G04 #@! TF.FileFunction,Legend,Bot*
%FSLAX46Y46*%
G04 Gerber Fmt 4.6, Leading zero omitted, Abs format (unit mm)*
G04 Created by KiCad (PCBNEW (after 2015-mar-04 BZR unknown)-product) date 22/05/2015 04:17:12*
%MOMM*%
G01*
G04 APERTURE LIST*
%ADD10C,0.100000*%
%ADD11C,0.300000*%
%ADD12C,0.150000*%
%ADD13R,1.500000X1.250000*%
%ADD14C,0.899160*%
%ADD15R,2.032000X2.032000*%
%ADD16O,2.032000X2.032000*%
%ADD17R,1.500000X1.300000*%
%ADD18R,1.397000X1.397000*%
%ADD19C,1.397000*%
%ADD20R,1.250000X1.500000*%
%ADD21R,1.727200X1.727200*%
%ADD22O,1.727200X1.727200*%
%ADD23R,2.032000X1.727200*%
%ADD24O,2.032000X1.727200*%
%ADD25R,1.300000X1.500000*%
%ADD26R,1.400000X0.300000*%
%ADD27C,1.016000*%
%ADD28R,1.549400X1.800860*%
%ADD29R,1.200000X0.600000*%
%ADD30R,0.600000X1.200000*%
%ADD31C,1.524000*%
G04 APERTURE END LIST*
D10*
D11*
X157821428Y-102967143D02*
X156678571Y-102967143D01*
X157250000Y-103538571D02*
X157250000Y-102395714D01*
X157851428Y-100597143D02*
X156708571Y-100597143D01*
X137469999Y-63668571D02*
X136469999Y-63668571D01*
X137469999Y-65168571D01*
X136469999Y-65168571D01*
X136565714Y-62425714D02*
X136637143Y-62497143D01*
X136851429Y-62568571D01*
X136994286Y-62568571D01*
X137208571Y-62497143D01*
X137351429Y-62354286D01*
X137422857Y-62211429D01*
X137494286Y-61925714D01*
X137494286Y-61711429D01*
X137422857Y-61425714D01*
X137351429Y-61282857D01*
X137208571Y-61140000D01*
X136994286Y-61068571D01*
X136851429Y-61068571D01*
X136637143Y-61140000D01*
X136565714Y-61211429D01*
X139990000Y-70654286D02*
X139990000Y-71368571D01*
X140490000Y-69868571D02*
X139990000Y-70654286D01*
X139490000Y-69868571D01*
X148039999Y-58398571D02*
X147039999Y-59898571D01*
X147039999Y-58398571D02*
X148039999Y-59898571D01*
X156442857Y-72485714D02*
X156514286Y-72557143D01*
X156728572Y-72628571D01*
X156871429Y-72628571D01*
X157085714Y-72557143D01*
X157228572Y-72414286D01*
X157300000Y-72271429D01*
X157371429Y-71985714D01*
X157371429Y-71771429D01*
X157300000Y-71485714D01*
X157228572Y-71342857D01*
X157085714Y-71200000D01*
X156871429Y-71128571D01*
X156728572Y-71128571D01*
X156514286Y-71200000D01*
X156442857Y-71271429D01*
X155085714Y-72628571D02*
X155800000Y-72628571D01*
X155800000Y-71128571D01*
X156944285Y-68598571D02*
X156801428Y-68598571D01*
X156658571Y-68670000D01*
X156587142Y-68741429D01*
X156515713Y-68884286D01*
X156444285Y-69170000D01*
X156444285Y-69527143D01*
X156515713Y-69812857D01*
X156587142Y-69955714D01*
X156658571Y-70027143D01*
X156801428Y-70098571D01*
X156944285Y-70098571D01*
X157087142Y-70027143D01*
X157158571Y-69955714D01*
X157229999Y-69812857D01*
X157301428Y-69527143D01*
X157301428Y-69170000D01*
X157229999Y-68884286D01*
X157158571Y-68741429D01*
X157087142Y-68670000D01*
X156944285Y-68598571D01*
X156015714Y-68598571D02*
X155515714Y-70098571D01*
X155015714Y-68598571D01*
X157245714Y-67548571D02*
X157245714Y-66048571D01*
X156888571Y-66048571D01*
X156674286Y-66120000D01*
X156531428Y-66262857D01*
X156460000Y-66405714D01*
X156388571Y-66691429D01*
X156388571Y-66905714D01*
X156460000Y-67191429D01*
X156531428Y-67334286D01*
X156674286Y-67477143D01*
X156888571Y-67548571D01*
X157245714Y-67548571D01*
X155817143Y-67120000D02*
X155102857Y-67120000D01*
X155960000Y-67548571D02*
X155460000Y-66048571D01*
X154960000Y-67548571D01*
X156409999Y-65138571D02*
X156909999Y-64424286D01*
X157267142Y-65138571D02*
X157267142Y-63638571D01*
X156695714Y-63638571D01*
X156552856Y-63710000D01*
X156481428Y-63781429D01*
X156409999Y-63924286D01*
X156409999Y-64138571D01*
X156481428Y-64281429D01*
X156552856Y-64352857D01*
X156695714Y-64424286D01*
X157267142Y-64424286D01*
X155838571Y-65067143D02*
X155624285Y-65138571D01*
X155267142Y-65138571D01*
X155124285Y-65067143D01*
X155052856Y-64995714D01*
X154981428Y-64852857D01*
X154981428Y-64710000D01*
X155052856Y-64567143D01*
X155124285Y-64495714D01*
X155267142Y-64424286D01*
X155552856Y-64352857D01*
X155695714Y-64281429D01*
X155767142Y-64210000D01*
X155838571Y-64067143D01*
X155838571Y-63924286D01*
X155767142Y-63781429D01*
X155695714Y-63710000D01*
X155552856Y-63638571D01*
X155195714Y-63638571D01*
X154981428Y-63710000D01*
D12*
X158260000Y-91710000D02*
X157260000Y-91710000D01*
X157260000Y-90010000D02*
X158260000Y-90010000D01*
X138210000Y-60035000D02*
X139410000Y-60035000D01*
X139410000Y-58285000D02*
X138210000Y-58285000D01*
X137210000Y-91810000D02*
X137210000Y-90810000D01*
X138910000Y-90810000D02*
X138910000Y-91810000D01*
X153760000Y-93460000D02*
X152760000Y-93460000D01*
X152760000Y-91760000D02*
X153760000Y-91760000D01*
X157260000Y-92110000D02*
X158260000Y-92110000D01*
X158260000Y-93810000D02*
X157260000Y-93810000D01*
X158810000Y-76010000D02*
X158810000Y-75010000D01*
X160510000Y-75010000D02*
X160510000Y-76010000D01*
X152960000Y-68785000D02*
X152960000Y-67785000D01*
X154660000Y-67785000D02*
X154660000Y-68785000D01*
X137420000Y-75750000D02*
X136420000Y-75750000D01*
X136420000Y-74050000D02*
X137420000Y-74050000D01*
X156240000Y-61175000D02*
X156240000Y-59975000D01*
X154490000Y-59975000D02*
X154490000Y-61175000D01*
X157990000Y-61175000D02*
X157990000Y-59975000D01*
X156240000Y-59975000D02*
X156240000Y-61175000D01*
X154335000Y-93935000D02*
X154335000Y-94235000D01*
X150985000Y-93935000D02*
X150985000Y-94235000D01*
X150985000Y-97285000D02*
X150985000Y-96985000D01*
X154335000Y-97285000D02*
X154335000Y-96985000D01*
X154335000Y-93935000D02*
X150985000Y-93935000D01*
X154335000Y-97285000D02*
X150985000Y-97285000D01*
X154335000Y-94235000D02*
X155560000Y-94235000D01*
X135495000Y-89845000D02*
X135495000Y-88575000D01*
X133844000Y-89845000D02*
X133844000Y-88575000D01*
X133844000Y-88575000D02*
X135876000Y-88575000D01*
X135876000Y-88575000D02*
X135876000Y-89845000D01*
X135876000Y-89845000D02*
X133844000Y-89845000D01*
X143785000Y-75735000D02*
X143785000Y-75435000D01*
X151035000Y-75735000D02*
X151035000Y-75435000D01*
X151035000Y-68485000D02*
X151035000Y-68785000D01*
X143785000Y-68485000D02*
X143785000Y-68785000D01*
X143785000Y-75735000D02*
X144085000Y-75735000D01*
X143785000Y-68485000D02*
X144085000Y-68485000D01*
X151035000Y-68485000D02*
X150735000Y-68485000D01*
X151035000Y-75735000D02*
X150735000Y-75735000D01*
X143785000Y-75435000D02*
X142560000Y-75435000D01*
X165210000Y-88430000D02*
X165210000Y-89430000D01*
X163510000Y-89430000D02*
X163510000Y-88430000D01*
X157055000Y-82060000D02*
X157055000Y-80860000D01*
X155305000Y-80860000D02*
X155305000Y-82060000D01*
X154726666Y-91317143D02*
X154774285Y-91364762D01*
X154917142Y-91412381D01*
X155012380Y-91412381D01*
X155155238Y-91364762D01*
X155250476Y-91269524D01*
X155298095Y-91174286D01*
X155345714Y-90983810D01*
X155345714Y-90840952D01*
X155298095Y-90650476D01*
X155250476Y-90555238D01*
X155155238Y-90460000D01*
X155012380Y-90412381D01*
X154917142Y-90412381D01*
X154774285Y-90460000D01*
X154726666Y-90507619D01*
X153774285Y-91412381D02*
X154345714Y-91412381D01*
X154060000Y-91412381D02*
X154060000Y-90412381D01*
X154155238Y-90555238D01*
X154250476Y-90650476D01*
X154345714Y-90698095D01*
X140356666Y-61272381D02*
X140690000Y-60796190D01*
X140928095Y-61272381D02*
X140928095Y-60272381D01*
X140547142Y-60272381D01*
X140451904Y-60320000D01*
X140404285Y-60367619D01*
X140356666Y-60462857D01*
X140356666Y-60605714D01*
X140404285Y-60700952D01*
X140451904Y-60748571D01*
X140547142Y-60796190D01*
X140928095Y-60796190D01*
X139404285Y-61272381D02*
X139975714Y-61272381D01*
X139690000Y-61272381D02*
X139690000Y-60272381D01*
X139785238Y-60415238D01*
X139880476Y-60510476D01*
X139975714Y-60558095D01*
X140176666Y-91737143D02*
X140224285Y-91784762D01*
X140367142Y-91832381D01*
X140462380Y-91832381D01*
X140605238Y-91784762D01*
X140700476Y-91689524D01*
X140748095Y-91594286D01*
X140795714Y-91403810D01*
X140795714Y-91260952D01*
X140748095Y-91070476D01*
X140700476Y-90975238D01*
X140605238Y-90880000D01*
X140462380Y-90832381D01*
X140367142Y-90832381D01*
X140224285Y-90880000D01*
X140176666Y-90927619D01*
X139843333Y-90832381D02*
X139224285Y-90832381D01*
X139557619Y-91213333D01*
X139414761Y-91213333D01*
X139319523Y-91260952D01*
X139271904Y-91308571D01*
X139224285Y-91403810D01*
X139224285Y-91641905D01*
X139271904Y-91737143D01*
X139319523Y-91784762D01*
X139414761Y-91832381D01*
X139700476Y-91832381D01*
X139795714Y-91784762D01*
X139843333Y-91737143D01*
X150126666Y-93017143D02*
X150174285Y-93064762D01*
X150317142Y-93112381D01*
X150412380Y-93112381D01*
X150555238Y-93064762D01*
X150650476Y-92969524D01*
X150698095Y-92874286D01*
X150745714Y-92683810D01*
X150745714Y-92540952D01*
X150698095Y-92350476D01*
X150650476Y-92255238D01*
X150555238Y-92160000D01*
X150412380Y-92112381D01*
X150317142Y-92112381D01*
X150174285Y-92160000D01*
X150126666Y-92207619D01*
X149269523Y-92445714D02*
X149269523Y-93112381D01*
X149507619Y-92064762D02*
X149745714Y-92779048D01*
X149126666Y-92779048D01*
X157826666Y-95062381D02*
X158302857Y-95062381D01*
X158302857Y-94062381D01*
X156969523Y-95062381D02*
X157540952Y-95062381D01*
X157255238Y-95062381D02*
X157255238Y-94062381D01*
X157350476Y-94205238D01*
X157445714Y-94300476D01*
X157540952Y-94348095D01*
X159726666Y-78877143D02*
X159774285Y-78924762D01*
X159917142Y-78972381D01*
X160012380Y-78972381D01*
X160155238Y-78924762D01*
X160250476Y-78829524D01*
X160298095Y-78734286D01*
X160345714Y-78543810D01*
X160345714Y-78400952D01*
X160298095Y-78210476D01*
X160250476Y-78115238D01*
X160155238Y-78020000D01*
X160012380Y-77972381D01*
X159917142Y-77972381D01*
X159774285Y-78020000D01*
X159726666Y-78067619D01*
X158821904Y-77972381D02*
X159298095Y-77972381D01*
X159345714Y-78448571D01*
X159298095Y-78400952D01*
X159202857Y-78353333D01*
X158964761Y-78353333D01*
X158869523Y-78400952D01*
X158821904Y-78448571D01*
X158774285Y-78543810D01*
X158774285Y-78781905D01*
X158821904Y-78877143D01*
X158869523Y-78924762D01*
X158964761Y-78972381D01*
X159202857Y-78972381D01*
X159298095Y-78924762D01*
X159345714Y-78877143D01*
X154026666Y-71607143D02*
X154074285Y-71654762D01*
X154217142Y-71702381D01*
X154312380Y-71702381D01*
X154455238Y-71654762D01*
X154550476Y-71559524D01*
X154598095Y-71464286D01*
X154645714Y-71273810D01*
X154645714Y-71130952D01*
X154598095Y-70940476D01*
X154550476Y-70845238D01*
X154455238Y-70750000D01*
X154312380Y-70702381D01*
X154217142Y-70702381D01*
X154074285Y-70750000D01*
X154026666Y-70797619D01*
X153169523Y-70702381D02*
X153360000Y-70702381D01*
X153455238Y-70750000D01*
X153502857Y-70797619D01*
X153598095Y-70940476D01*
X153645714Y-71130952D01*
X153645714Y-71511905D01*
X153598095Y-71607143D01*
X153550476Y-71654762D01*
X153455238Y-71702381D01*
X153264761Y-71702381D01*
X153169523Y-71654762D01*
X153121904Y-71607143D01*
X153074285Y-71511905D01*
X153074285Y-71273810D01*
X153121904Y-71178571D01*
X153169523Y-71130952D01*
X153264761Y-71083333D01*
X153455238Y-71083333D01*
X153550476Y-71130952D01*
X153598095Y-71178571D01*
X153645714Y-71273810D01*
X137036666Y-73527143D02*
X137084285Y-73574762D01*
X137227142Y-73622381D01*
X137322380Y-73622381D01*
X137465238Y-73574762D01*
X137560476Y-73479524D01*
X137608095Y-73384286D01*
X137655714Y-73193810D01*
X137655714Y-73050952D01*
X137608095Y-72860476D01*
X137560476Y-72765238D01*
X137465238Y-72670000D01*
X137322380Y-72622381D01*
X137227142Y-72622381D01*
X137084285Y-72670000D01*
X137036666Y-72717619D01*
X136703333Y-72622381D02*
X136036666Y-72622381D01*
X136465238Y-73622381D01*
X153576666Y-62542381D02*
X153910000Y-62066190D01*
X154148095Y-62542381D02*
X154148095Y-61542381D01*
X153767142Y-61542381D01*
X153671904Y-61590000D01*
X153624285Y-61637619D01*
X153576666Y-61732857D01*
X153576666Y-61875714D01*
X153624285Y-61970952D01*
X153671904Y-62018571D01*
X153767142Y-62066190D01*
X154148095Y-62066190D01*
X153243333Y-61542381D02*
X152576666Y-61542381D01*
X153005238Y-62542381D01*
X159266666Y-62432381D02*
X159600000Y-61956190D01*
X159838095Y-62432381D02*
X159838095Y-61432381D01*
X159457142Y-61432381D01*
X159361904Y-61480000D01*
X159314285Y-61527619D01*
X159266666Y-61622857D01*
X159266666Y-61765714D01*
X159314285Y-61860952D01*
X159361904Y-61908571D01*
X159457142Y-61956190D01*
X159838095Y-61956190D01*
X158695238Y-61860952D02*
X158790476Y-61813333D01*
X158838095Y-61765714D01*
X158885714Y-61670476D01*
X158885714Y-61622857D01*
X158838095Y-61527619D01*
X158790476Y-61480000D01*
X158695238Y-61432381D01*
X158504761Y-61432381D01*
X158409523Y-61480000D01*
X158361904Y-61527619D01*
X158314285Y-61622857D01*
X158314285Y-61670476D01*
X158361904Y-61765714D01*
X158409523Y-61813333D01*
X158504761Y-61860952D01*
X158695238Y-61860952D01*
X158790476Y-61908571D01*
X158838095Y-61956190D01*
X158885714Y-62051429D01*
X158885714Y-62241905D01*
X158838095Y-62337143D01*
X158790476Y-62384762D01*
X158695238Y-62432381D01*
X158504761Y-62432381D01*
X158409523Y-62384762D01*
X158361904Y-62337143D01*
X158314285Y-62241905D01*
X158314285Y-62051429D01*
X158361904Y-61956190D01*
X158409523Y-61908571D01*
X158504761Y-61860952D01*
X153371905Y-97712381D02*
X153371905Y-98521905D01*
X153324286Y-98617143D01*
X153276667Y-98664762D01*
X153181429Y-98712381D01*
X152990952Y-98712381D01*
X152895714Y-98664762D01*
X152848095Y-98617143D01*
X152800476Y-98521905D01*
X152800476Y-97712381D01*
X152419524Y-97712381D02*
X151800476Y-97712381D01*
X152133810Y-98093333D01*
X151990952Y-98093333D01*
X151895714Y-98140952D01*
X151848095Y-98188571D01*
X151800476Y-98283810D01*
X151800476Y-98521905D01*
X151848095Y-98617143D01*
X151895714Y-98664762D01*
X151990952Y-98712381D01*
X152276667Y-98712381D01*
X152371905Y-98664762D01*
X152419524Y-98617143D01*
X135056666Y-91512381D02*
X135532857Y-91512381D01*
X135532857Y-90512381D01*
X134770952Y-90607619D02*
X134723333Y-90560000D01*
X134628095Y-90512381D01*
X134389999Y-90512381D01*
X134294761Y-90560000D01*
X134247142Y-90607619D01*
X134199523Y-90702857D01*
X134199523Y-90798095D01*
X134247142Y-90940952D01*
X134818571Y-91512381D01*
X134199523Y-91512381D01*
X148171905Y-77412381D02*
X148171905Y-78221905D01*
X148124286Y-78317143D01*
X148076667Y-78364762D01*
X147981429Y-78412381D01*
X147790952Y-78412381D01*
X147695714Y-78364762D01*
X147648095Y-78317143D01*
X147600476Y-78221905D01*
X147600476Y-77412381D01*
X146600476Y-78412381D02*
X147171905Y-78412381D01*
X146886191Y-78412381D02*
X146886191Y-77412381D01*
X146981429Y-77555238D01*
X147076667Y-77650476D01*
X147171905Y-77698095D01*
X163138095Y-89452381D02*
X163138095Y-88452381D01*
X162900000Y-88452381D01*
X162757142Y-88500000D01*
X162661904Y-88595238D01*
X162614285Y-88690476D01*
X162566666Y-88880952D01*
X162566666Y-89023810D01*
X162614285Y-89214286D01*
X162661904Y-89309524D01*
X162757142Y-89404762D01*
X162900000Y-89452381D01*
X163138095Y-89452381D01*
X161614285Y-89452381D02*
X162185714Y-89452381D01*
X161900000Y-89452381D02*
X161900000Y-88452381D01*
X161995238Y-88595238D01*
X162090476Y-88690476D01*
X162185714Y-88738095D01*
X154246666Y-81912381D02*
X154580000Y-81436190D01*
X154818095Y-81912381D02*
X154818095Y-80912381D01*
X154437142Y-80912381D01*
X154341904Y-80960000D01*
X154294285Y-81007619D01*
X154246666Y-81102857D01*
X154246666Y-81245714D01*
X154294285Y-81340952D01*
X154341904Y-81388571D01*
X154437142Y-81436190D01*
X154818095Y-81436190D01*
X153389523Y-80912381D02*
X153580000Y-80912381D01*
X153675238Y-80960000D01*
X153722857Y-81007619D01*
X153818095Y-81150476D01*
X153865714Y-81340952D01*
X153865714Y-81721905D01*
X153818095Y-81817143D01*
X153770476Y-81864762D01*
X153675238Y-81912381D01*
X153484761Y-81912381D01*
X153389523Y-81864762D01*
X153341904Y-81817143D01*
X153294285Y-81721905D01*
X153294285Y-81483810D01*
X153341904Y-81388571D01*
X153389523Y-81340952D01*
X153484761Y-81293333D01*
X153675238Y-81293333D01*
X153770476Y-81340952D01*
X153818095Y-81388571D01*
X153865714Y-81483810D01*
%LPC*%
D13*
X156510000Y-90860000D03*
X159010000Y-90860000D03*
D14*
X162109100Y-91459640D03*
X162109100Y-87060360D03*
D15*
X151360000Y-100610000D03*
D16*
X151360000Y-103150000D03*
D15*
X154960000Y-103110000D03*
D16*
X154960000Y-100570000D03*
D17*
X140160000Y-59160000D03*
X137460000Y-59160000D03*
D18*
X135310000Y-61870000D03*
D19*
X135310000Y-64410000D03*
X135310000Y-66950000D03*
D20*
X138060000Y-90060000D03*
X138060000Y-92560000D03*
D13*
X152010000Y-92610000D03*
X154510000Y-92610000D03*
D21*
X139810000Y-103060000D03*
D22*
X139810000Y-100520000D03*
X142350000Y-103060000D03*
X142350000Y-100520000D03*
X144890000Y-103060000D03*
X144890000Y-100520000D03*
X147430000Y-103060000D03*
X147430000Y-100520000D03*
D13*
X159010000Y-92960000D03*
X156510000Y-92960000D03*
D20*
X159660000Y-74260000D03*
X159660000Y-76760000D03*
X153810000Y-67035000D03*
X153810000Y-69535000D03*
D13*
X135670000Y-74900000D03*
X138170000Y-74900000D03*
D23*
X159010000Y-64260000D03*
D24*
X159010000Y-66800000D03*
X159010000Y-69340000D03*
X159010000Y-71880000D03*
D25*
X155365000Y-59225000D03*
X155365000Y-61925000D03*
X157115000Y-59225000D03*
X157115000Y-61925000D03*
D26*
X154860000Y-94610000D03*
X154860000Y-95110000D03*
X154860000Y-95610000D03*
X154860000Y-96110000D03*
X154860000Y-96610000D03*
X150460000Y-96610000D03*
X150460000Y-96110000D03*
X150460000Y-95610000D03*
X150460000Y-95110000D03*
X150460000Y-94610000D03*
D23*
X135360000Y-95510000D03*
D24*
X135360000Y-98050000D03*
D27*
X135360000Y-100590000D03*
D28*
X136036020Y-89210000D03*
X133683980Y-89210000D03*
D29*
X143160000Y-74910000D03*
X143160000Y-74110000D03*
X143160000Y-73310000D03*
X143160000Y-72510000D03*
X143160000Y-71710000D03*
X143160000Y-70910000D03*
X143160000Y-70110000D03*
X143160000Y-69310000D03*
D30*
X144610000Y-67860000D03*
X145410000Y-67860000D03*
X146210000Y-67860000D03*
X147010000Y-67860000D03*
X147810000Y-67860000D03*
X148610000Y-67860000D03*
X149410000Y-67860000D03*
X150210000Y-67860000D03*
D29*
X151660000Y-69310000D03*
X151660000Y-70110000D03*
X151660000Y-70910000D03*
X151660000Y-71710000D03*
X151660000Y-72510000D03*
X151660000Y-73310000D03*
X151660000Y-74110000D03*
X151660000Y-74910000D03*
D30*
X150210000Y-76360000D03*
X149410000Y-76360000D03*
X148610000Y-76360000D03*
X147810000Y-76360000D03*
X147010000Y-76360000D03*
X146210000Y-76360000D03*
X145410000Y-76360000D03*
X144610000Y-76360000D03*
D31*
X138210000Y-68210000D03*
X138210000Y-70610000D03*
X138210000Y-73010000D03*
X145110000Y-61210000D03*
X147510000Y-61210000D03*
X149910000Y-61210000D03*
D20*
X164360000Y-90180000D03*
X164360000Y-87680000D03*
D25*
X156180000Y-80110000D03*
X156180000Y-82810000D03*
M02*
