G04 #@! TF.FileFunction,Copper,L2,Bot,Signal*
%FSLAX46Y46*%
G04 Gerber Fmt 4.6, Leading zero omitted, Abs format (unit mm)*
G04 Created by KiCad (PCBNEW (after 2015-mar-04 BZR unknown)-product) date 22/05/2015 04:17:12*
%MOMM*%
G01*
G04 APERTURE LIST*
%ADD10C,0.100000*%
%ADD11R,1.500000X1.250000*%
%ADD12R,2.032000X2.032000*%
%ADD13O,2.032000X2.032000*%
%ADD14R,1.500000X1.300000*%
%ADD15R,1.397000X1.397000*%
%ADD16C,1.397000*%
%ADD17R,1.250000X1.500000*%
%ADD18R,1.727200X1.727200*%
%ADD19O,1.727200X1.727200*%
%ADD20R,2.032000X1.727200*%
%ADD21O,2.032000X1.727200*%
%ADD22R,1.300000X1.500000*%
%ADD23R,1.400000X0.300000*%
%ADD24R,1.549400X1.800860*%
%ADD25R,1.200000X0.600000*%
%ADD26R,0.600000X1.200000*%
%ADD27C,1.524000*%
%ADD28C,0.600000*%
%ADD29C,0.400000*%
%ADD30C,1.000000*%
%ADD31C,0.800000*%
%ADD32C,1.000000*%
%ADD33C,0.250000*%
%ADD34C,0.600000*%
%ADD35C,0.800000*%
%ADD36C,1.500000*%
%ADD37C,0.254000*%
G04 APERTURE END LIST*
D10*
D11*
X156510000Y-90860000D03*
X159010000Y-90860000D03*
D12*
X151360000Y-100610000D03*
D13*
X151360000Y-103150000D03*
D12*
X154960000Y-103110000D03*
D13*
X154960000Y-100570000D03*
D14*
X140160000Y-59160000D03*
X137460000Y-59160000D03*
D15*
X135310000Y-61870000D03*
D16*
X135310000Y-64410000D03*
X135310000Y-66950000D03*
D17*
X138060000Y-90060000D03*
X138060000Y-92560000D03*
D11*
X152010000Y-92610000D03*
X154510000Y-92610000D03*
D18*
X139810000Y-103060000D03*
D19*
X139810000Y-100520000D03*
X142350000Y-103060000D03*
X142350000Y-100520000D03*
X144890000Y-103060000D03*
X144890000Y-100520000D03*
X147430000Y-103060000D03*
X147430000Y-100520000D03*
D11*
X159010000Y-92960000D03*
X156510000Y-92960000D03*
D17*
X159660000Y-74260000D03*
X159660000Y-76760000D03*
X153810000Y-67035000D03*
X153810000Y-69535000D03*
D11*
X135670000Y-74900000D03*
X138170000Y-74900000D03*
D20*
X159010000Y-64260000D03*
D21*
X159010000Y-66800000D03*
X159010000Y-69340000D03*
X159010000Y-71880000D03*
D22*
X155365000Y-59225000D03*
X155365000Y-61925000D03*
X157115000Y-59225000D03*
X157115000Y-61925000D03*
D23*
X154860000Y-94610000D03*
X154860000Y-95110000D03*
X154860000Y-95610000D03*
X154860000Y-96110000D03*
X154860000Y-96610000D03*
X150460000Y-96610000D03*
X150460000Y-96110000D03*
X150460000Y-95610000D03*
X150460000Y-95110000D03*
X150460000Y-94610000D03*
D20*
X135360000Y-95510000D03*
D21*
X135360000Y-98050000D03*
D24*
X136036020Y-89210000D03*
X133683980Y-89210000D03*
D25*
X143160000Y-74910000D03*
X143160000Y-74110000D03*
X143160000Y-73310000D03*
X143160000Y-72510000D03*
X143160000Y-71710000D03*
X143160000Y-70910000D03*
X143160000Y-70110000D03*
X143160000Y-69310000D03*
D26*
X144610000Y-67860000D03*
X145410000Y-67860000D03*
X146210000Y-67860000D03*
X147010000Y-67860000D03*
X147810000Y-67860000D03*
X148610000Y-67860000D03*
X149410000Y-67860000D03*
X150210000Y-67860000D03*
D25*
X151660000Y-69310000D03*
X151660000Y-70110000D03*
X151660000Y-70910000D03*
X151660000Y-71710000D03*
X151660000Y-72510000D03*
X151660000Y-73310000D03*
X151660000Y-74110000D03*
X151660000Y-74910000D03*
D26*
X150210000Y-76360000D03*
X149410000Y-76360000D03*
X148610000Y-76360000D03*
X147810000Y-76360000D03*
X147010000Y-76360000D03*
X146210000Y-76360000D03*
X145410000Y-76360000D03*
X144610000Y-76360000D03*
D27*
X138210000Y-68210000D03*
X138210000Y-70610000D03*
X138210000Y-73010000D03*
X145110000Y-61210000D03*
X147510000Y-61210000D03*
X149910000Y-61210000D03*
D17*
X164360000Y-90180000D03*
X164360000Y-87680000D03*
D22*
X156180000Y-80110000D03*
X156180000Y-82810000D03*
D28*
X142310000Y-85435000D03*
X154335000Y-66960000D03*
D29*
X149185000Y-69335000D03*
X145660000Y-74910000D03*
D28*
X157960000Y-76810000D03*
X136810000Y-78060000D03*
X142310000Y-82060000D03*
D29*
X135710000Y-71660000D03*
D30*
X159560000Y-88760000D03*
D28*
X137160000Y-92710000D03*
D29*
X157060000Y-98410000D03*
D31*
X154610000Y-92610000D03*
D30*
X160760000Y-91860000D03*
D28*
X157890000Y-59480000D03*
X141710000Y-74885000D03*
X146385000Y-70110000D03*
X133260000Y-86810000D03*
X137810000Y-89360000D03*
D29*
X140160000Y-60510000D03*
D28*
X139660000Y-94010000D03*
D29*
X146260000Y-94010000D03*
D31*
X139210000Y-90160000D03*
D29*
X137010000Y-62410000D03*
X149160000Y-96610000D03*
X149110000Y-93610000D03*
X149110000Y-95610000D03*
X150110000Y-78135000D03*
X148110000Y-74510000D03*
X153460000Y-97210000D03*
X150760000Y-77610000D03*
X148960000Y-74510000D03*
X153960000Y-96110000D03*
X149960000Y-73310000D03*
X151160000Y-77060000D03*
X153260000Y-90410000D03*
X155860000Y-95610000D03*
D28*
X134760000Y-87210000D03*
D29*
X150110000Y-75210000D03*
X151310000Y-75760000D03*
D28*
X154720000Y-61720000D03*
X157960000Y-62050000D03*
D29*
X144010000Y-93210000D03*
X146760000Y-91860000D03*
X146560000Y-91160000D03*
X144060000Y-92410000D03*
X147010000Y-92610000D03*
X142560000Y-92860000D03*
X152460000Y-98510000D03*
D28*
X149420000Y-66290000D03*
X156140000Y-75310000D03*
D32*
X156910000Y-90810000D02*
X156910000Y-92910000D01*
D33*
X154860000Y-95110000D02*
X154860000Y-94610000D01*
D32*
X155210000Y-94610000D02*
X156910000Y-92910000D01*
X154860000Y-94610000D02*
X155210000Y-94610000D01*
D34*
X164360000Y-90180000D02*
X159690000Y-90180000D01*
X159690000Y-90180000D02*
X159010000Y-90860000D01*
D32*
X136810000Y-78060000D02*
X136360000Y-78060000D01*
X135670000Y-77370000D02*
X135670000Y-74900000D01*
X136360000Y-78060000D02*
X135670000Y-77370000D01*
D33*
X159010000Y-90860000D02*
X159710000Y-90860000D01*
D32*
X154335000Y-66960000D02*
X154260000Y-67035000D01*
X154260000Y-67035000D02*
X153810000Y-67035000D01*
D34*
X145660000Y-74910000D02*
X145135000Y-74910000D01*
X144610000Y-75435000D02*
X144610000Y-76360000D01*
X145135000Y-74910000D02*
X144610000Y-75435000D01*
X142310000Y-82060000D02*
X143510000Y-82060000D01*
X143510000Y-82060000D02*
X144610000Y-80960000D01*
X144610000Y-80960000D02*
X144610000Y-76360000D01*
D33*
X154160000Y-67035000D02*
X153810000Y-67035000D01*
X145410000Y-76360000D02*
X145410000Y-75160000D01*
X150210000Y-68723602D02*
X150210000Y-67860000D01*
X149704301Y-69229301D02*
X150210000Y-68723602D01*
X149290699Y-69229301D02*
X149704301Y-69229301D01*
X149185000Y-69335000D02*
X149290699Y-69229301D01*
X145410000Y-75160000D02*
X145660000Y-74910000D01*
X144610000Y-76360000D02*
X145410000Y-76360000D01*
X151010000Y-67035000D02*
X151010000Y-67060000D01*
X151010000Y-67060000D02*
X150210000Y-67860000D01*
D34*
X153810000Y-67035000D02*
X151010000Y-67035000D01*
D32*
X159660000Y-76760000D02*
X158460000Y-76760000D01*
X158410000Y-76810000D02*
X157960000Y-76810000D01*
X158460000Y-76760000D02*
X158410000Y-76810000D01*
X138710000Y-82060000D02*
X142310000Y-82060000D01*
X138110000Y-81460000D02*
X138710000Y-82060000D01*
X138110000Y-78810000D02*
X138110000Y-81460000D01*
X137410000Y-78110000D02*
X138110000Y-78810000D01*
X136860000Y-78110000D02*
X137410000Y-78110000D01*
X136810000Y-78060000D02*
X136860000Y-78110000D01*
X138060000Y-92560000D02*
X139210000Y-92560000D01*
X139210000Y-92560000D02*
X142310000Y-89460000D01*
X142310000Y-87310000D02*
X142310000Y-85435000D01*
X142310000Y-89460000D02*
X142310000Y-87310000D01*
X142310000Y-85435000D02*
X142310000Y-83185000D01*
X142310000Y-83185000D02*
X142310000Y-82060000D01*
D33*
X135310000Y-66950000D02*
X135310000Y-71210000D01*
X135710000Y-71610000D02*
X135710000Y-71660000D01*
X135310000Y-71210000D02*
X135710000Y-71610000D01*
D32*
X159010000Y-89310000D02*
X159010000Y-90860000D01*
X159560000Y-88760000D02*
X159010000Y-89310000D01*
X137310000Y-92560000D02*
X137160000Y-92710000D01*
X138060000Y-92560000D02*
X137310000Y-92560000D01*
D33*
X155260000Y-96610000D02*
X157060000Y-98410000D01*
X154860000Y-96610000D02*
X155260000Y-96610000D01*
D34*
X154610000Y-92610000D02*
X154510000Y-92610000D01*
D33*
X150460000Y-95110000D02*
X150460000Y-94610000D01*
D35*
X150460000Y-94160000D02*
X152010000Y-92610000D01*
X150460000Y-94610000D02*
X150460000Y-94160000D01*
X148260000Y-94610000D02*
X147960000Y-94910000D01*
D36*
X147360000Y-95510000D02*
X135360000Y-95510000D01*
X147360000Y-95510000D02*
X147960000Y-94910000D01*
D35*
X150460000Y-94610000D02*
X148260000Y-94610000D01*
D32*
X159660000Y-92960000D02*
X159010000Y-92960000D01*
X160660000Y-91960000D02*
X159660000Y-92960000D01*
X160660000Y-91960000D02*
X160760000Y-91860000D01*
D36*
X149100000Y-98050000D02*
X135360000Y-98050000D01*
X151360000Y-100310000D02*
X149100000Y-98050000D01*
X151360000Y-100610000D02*
X151360000Y-100310000D01*
X154920000Y-103150000D02*
X154960000Y-103110000D01*
X151360000Y-103150000D02*
X154920000Y-103150000D01*
D32*
X157115000Y-59225000D02*
X157625000Y-59225000D01*
X157625000Y-59225000D02*
X157880000Y-59480000D01*
X157880000Y-59480000D02*
X157890000Y-59480000D01*
X155150000Y-59010000D02*
X145910000Y-59010000D01*
X145110000Y-59810000D02*
X145110000Y-61210000D01*
X145910000Y-59010000D02*
X145110000Y-59810000D01*
X155150000Y-59010000D02*
X155365000Y-59225000D01*
X155365000Y-59225000D02*
X157115000Y-59225000D01*
X138210000Y-73010000D02*
X138210000Y-74860000D01*
X138210000Y-74860000D02*
X138170000Y-74900000D01*
D33*
X141735000Y-74910000D02*
X143160000Y-74910000D01*
X141710000Y-74885000D02*
X141735000Y-74910000D01*
D32*
X146385000Y-70110000D02*
X146360000Y-70135000D01*
D33*
X143160000Y-71710000D02*
X144785000Y-71710000D01*
X144785000Y-71710000D02*
X146360000Y-70135000D01*
X150260000Y-69310000D02*
X151660000Y-69310000D01*
X149435000Y-70135000D02*
X150260000Y-69310000D01*
X146360000Y-70135000D02*
X149435000Y-70135000D01*
X151660000Y-69310000D02*
X153585000Y-69310000D01*
X153585000Y-69310000D02*
X153810000Y-69535000D01*
D32*
X133683980Y-89210000D02*
X133683980Y-88033980D01*
X133260000Y-87610000D02*
X133260000Y-86810000D01*
X133683980Y-88033980D02*
X133260000Y-87610000D01*
X137810000Y-89360000D02*
X138060000Y-89610000D01*
X138060000Y-89610000D02*
X138060000Y-90060000D01*
D33*
X140160000Y-59160000D02*
X140160000Y-60510000D01*
D32*
X138060000Y-90060000D02*
X138510000Y-90060000D01*
D34*
X146260000Y-94010000D02*
X139660000Y-94010000D01*
D32*
X139210000Y-90160000D02*
X139110000Y-90060000D01*
X139110000Y-90060000D02*
X138060000Y-90060000D01*
X133760180Y-89210000D02*
X133560000Y-89210000D01*
D33*
X137460000Y-59910000D02*
X137460000Y-59160000D01*
X137010000Y-60360000D02*
X137460000Y-59910000D01*
X137010000Y-62410000D02*
X137010000Y-60360000D01*
X135310000Y-64410000D02*
X135310000Y-64760000D01*
X135310000Y-64760000D02*
X136860000Y-66310000D01*
X140010000Y-70110000D02*
X143160000Y-70110000D01*
X139310000Y-69410000D02*
X140010000Y-70110000D01*
X137560000Y-69410000D02*
X139310000Y-69410000D01*
X136860000Y-68710000D02*
X137560000Y-69410000D01*
X136860000Y-66310000D02*
X136860000Y-68710000D01*
X135310000Y-64410000D02*
X135660000Y-64410000D01*
X136760000Y-64410000D02*
X136760000Y-63320000D01*
X140160000Y-69310000D02*
X139610000Y-68760000D01*
X139610000Y-68760000D02*
X139610000Y-67810000D01*
X139610000Y-67810000D02*
X136760000Y-64960000D01*
X136760000Y-64960000D02*
X136760000Y-64410000D01*
X143160000Y-69310000D02*
X140160000Y-69310000D01*
X136760000Y-63320000D02*
X135310000Y-61870000D01*
X149260000Y-96610000D02*
X149160000Y-96610000D01*
X150460000Y-96610000D02*
X149260000Y-96610000D01*
X151660000Y-70110000D02*
X150435000Y-70110000D01*
X151221398Y-90521398D02*
X151760006Y-89982790D01*
X149110000Y-93610000D02*
X149110000Y-92619194D01*
X149110000Y-92619194D02*
X149123602Y-92619194D01*
X149123602Y-92619194D02*
X151221398Y-90521398D01*
X149560000Y-96110000D02*
X149110000Y-95660000D01*
X149110000Y-95660000D02*
X149110000Y-95610000D01*
X149560000Y-96110000D02*
X150460000Y-96110000D01*
X151760006Y-89982790D02*
X151760006Y-88410000D01*
X151760006Y-88410000D02*
X151760006Y-85800810D01*
X151075992Y-85116796D02*
X151760006Y-85800810D01*
X151075992Y-79100992D02*
X151075992Y-85116796D01*
X150110000Y-78135000D02*
X151075992Y-79100992D01*
X148509998Y-74110002D02*
X148110000Y-74510000D01*
X148509998Y-73023604D02*
X148509998Y-74110002D01*
X149885000Y-71648602D02*
X148509998Y-73023604D01*
X149885000Y-70660000D02*
X149885000Y-71648602D01*
X150435000Y-70110000D02*
X149885000Y-70660000D01*
X151560000Y-96110000D02*
X151860000Y-96410000D01*
X151860000Y-96410000D02*
X151860000Y-98810000D01*
X151860000Y-98810000D02*
X152160000Y-99110000D01*
X152160000Y-99110000D02*
X153160000Y-99110000D01*
X153160000Y-99110000D02*
X153460000Y-98810000D01*
X153460000Y-98810000D02*
X153460000Y-97210000D01*
X150460000Y-96110000D02*
X151560000Y-96110000D01*
X152210008Y-85614414D02*
X151920297Y-85324703D01*
X152210008Y-88660000D02*
X152210008Y-85614414D01*
X151525994Y-84930400D02*
X151920297Y-85324703D01*
X149660000Y-72510000D02*
X151660000Y-72510000D01*
X151525994Y-78375994D02*
X151525994Y-83460000D01*
X150760000Y-77610000D02*
X151525994Y-78375994D01*
X148960000Y-73210000D02*
X148960000Y-74510000D01*
X149660000Y-72510000D02*
X148960000Y-73210000D01*
X151525994Y-83460000D02*
X151525994Y-84930400D01*
X153260000Y-91310000D02*
X152210008Y-90260008D01*
X152210008Y-90260008D02*
X152210008Y-88660000D01*
X152210008Y-88660000D02*
X152210008Y-88610000D01*
X154860000Y-96110000D02*
X153960000Y-96110000D01*
X154860000Y-96110000D02*
X153560000Y-96110000D01*
X153260000Y-95810000D02*
X153260000Y-91310000D01*
X153560000Y-96110000D02*
X153260000Y-95810000D01*
X153260000Y-91310000D02*
X153260000Y-91210000D01*
X151975996Y-84744004D02*
X151975996Y-77875996D01*
X149960000Y-73310000D02*
X151660000Y-73310000D01*
X151975996Y-77875996D02*
X151160000Y-77060000D01*
X152660010Y-88710000D02*
X152660010Y-85428018D01*
X153260000Y-90410000D02*
X152660010Y-89810010D01*
X152660010Y-89810010D02*
X152660010Y-88710000D01*
X152660010Y-85428018D02*
X151975996Y-84744004D01*
X154860000Y-95610000D02*
X155860000Y-95610000D01*
D32*
X136036020Y-87586020D02*
X136036020Y-89210000D01*
X135660000Y-87210000D02*
X136036020Y-87586020D01*
X134760000Y-87210000D02*
X135660000Y-87210000D01*
D33*
X153510000Y-75460000D02*
X153510000Y-75210000D01*
X144360000Y-72510000D02*
X144710000Y-72860000D01*
X144710000Y-72860000D02*
X144710000Y-72860000D01*
X144710000Y-72860000D02*
X147060000Y-75210000D01*
X147060000Y-75210000D02*
X150110000Y-75210000D01*
X151310000Y-75760000D02*
X151410000Y-75660000D01*
X151410000Y-75660000D02*
X153310000Y-75660000D01*
X153310000Y-75660000D02*
X153510000Y-75460000D01*
X143160000Y-72510000D02*
X144360000Y-72510000D01*
X154460000Y-74260000D02*
X159660000Y-74260000D01*
X153510000Y-75210000D02*
X154460000Y-74260000D01*
X159660000Y-74260000D02*
X159660000Y-74010000D01*
X159660000Y-74010000D02*
X160510000Y-73160000D01*
X160510000Y-73160000D02*
X160510000Y-72660000D01*
X159510000Y-74260000D02*
X159560000Y-74210000D01*
X159560000Y-74210000D02*
X159660000Y-74210000D01*
X160510000Y-72660000D02*
X160510000Y-65760000D01*
X160510000Y-65760000D02*
X159010000Y-64260000D01*
X151660000Y-74110000D02*
X152760000Y-74110000D01*
X157170002Y-66800000D02*
X156860002Y-67110000D01*
X156860002Y-67110000D02*
X156860002Y-69346396D01*
X157170002Y-66800000D02*
X159010000Y-66800000D01*
X156860002Y-70009998D02*
X156860002Y-69346396D01*
X152760000Y-74110000D02*
X156860002Y-70009998D01*
X151660000Y-74910000D02*
X152910000Y-74910000D01*
X155940000Y-71880000D02*
X159010000Y-71880000D01*
X152910000Y-74910000D02*
X155940000Y-71880000D01*
X155959998Y-64260000D02*
X155959998Y-63939998D01*
X155365000Y-63345000D02*
X155365000Y-61925000D01*
X155959998Y-63939998D02*
X155365000Y-63345000D01*
D34*
X154720000Y-61720000D02*
X154925000Y-61925000D01*
X154925000Y-61925000D02*
X155365000Y-61925000D01*
D33*
X151660000Y-70910000D02*
X154490000Y-70910000D01*
X155959998Y-69440002D02*
X155959998Y-64260000D01*
X155959998Y-64260000D02*
X155959998Y-64259998D01*
X154490000Y-70910000D02*
X155959998Y-69440002D01*
X154523602Y-71710000D02*
X156410000Y-69823602D01*
X151660000Y-71710000D02*
X154523602Y-71710000D01*
X157115000Y-65105000D02*
X156410000Y-65810000D01*
X156410000Y-65810000D02*
X156410000Y-69430000D01*
X157115000Y-65105000D02*
X157115000Y-61925000D01*
X156410000Y-69823602D02*
X156410000Y-69430000D01*
D34*
X157115000Y-61925000D02*
X157835000Y-61925000D01*
X157835000Y-61925000D02*
X157960000Y-62050000D01*
D33*
X147510000Y-61210000D02*
X147510000Y-61510000D01*
X147510000Y-61510000D02*
X146260000Y-62760000D01*
X146260000Y-62760000D02*
X146260000Y-65710000D01*
X146260000Y-65710000D02*
X147010000Y-66460000D01*
X147010000Y-66460000D02*
X147010000Y-67860000D01*
X144010000Y-93210000D02*
X143310000Y-92510000D01*
X147010000Y-77310000D02*
X147010000Y-76360000D01*
X147359998Y-77659998D02*
X147010000Y-77310000D01*
X147359998Y-84073604D02*
X147359998Y-77659998D01*
X144459998Y-86973604D02*
X147359998Y-84073604D01*
X144459998Y-91110002D02*
X144459998Y-86973604D01*
X143310000Y-92260000D02*
X144459998Y-91110002D01*
X143310000Y-92510000D02*
X143310000Y-92260000D01*
X149528200Y-84841800D02*
X148710004Y-84023604D01*
X150860002Y-86173602D02*
X149528200Y-84841800D01*
X150860002Y-86760000D02*
X150860002Y-88760000D01*
X150860002Y-89609998D02*
X150860002Y-88760000D01*
X150353199Y-90103199D02*
X150360000Y-90110000D01*
X148596398Y-91860000D02*
X150353199Y-90103199D01*
X147060002Y-91860000D02*
X148596398Y-91860000D01*
X146760002Y-91860000D02*
X147060002Y-91860000D01*
X146760000Y-91860000D02*
X146760002Y-91860000D01*
X150360000Y-90110000D02*
X150860002Y-89609998D01*
X150860002Y-86760000D02*
X150860002Y-86173602D01*
X149410000Y-77260000D02*
X149410000Y-76360000D01*
X148710004Y-77959996D02*
X149410000Y-77260000D01*
X148710004Y-78009996D02*
X148710004Y-77959996D01*
X148710004Y-78059996D02*
X148710004Y-78009996D01*
X148710004Y-84023604D02*
X148710004Y-78059996D01*
X148610000Y-77360000D02*
X148610000Y-76360000D01*
X148260002Y-77709998D02*
X148610000Y-77360000D01*
X148260002Y-84210000D02*
X148260002Y-77709998D01*
X150410000Y-86359998D02*
X148260002Y-84210000D01*
X150410000Y-89410000D02*
X150410000Y-86359998D01*
X148660000Y-91160000D02*
X150410000Y-89410000D01*
X146560000Y-91160000D02*
X148660000Y-91160000D01*
X144910000Y-87610000D02*
X144910000Y-87160000D01*
X144910000Y-91560000D02*
X144910000Y-87610000D01*
X144060000Y-92410000D02*
X144910000Y-91560000D01*
X147810000Y-84260000D02*
X147810000Y-76360000D01*
X144910000Y-87160000D02*
X147810000Y-84260000D01*
X150210000Y-76360000D02*
X150210000Y-77260000D01*
X149160006Y-83837208D02*
X149160006Y-78309994D01*
X149160006Y-78309994D02*
X150210000Y-77260000D01*
X149160006Y-83837208D02*
X150271399Y-84948601D01*
X150703199Y-90403199D02*
X151310004Y-89796394D01*
X151310004Y-85987206D02*
X150271399Y-84948601D01*
X150271399Y-84948601D02*
X150246399Y-84923601D01*
X151310004Y-89796394D02*
X151310004Y-85987206D01*
X148482796Y-92610000D02*
X150221398Y-90871398D01*
X147010000Y-92610000D02*
X148482796Y-92610000D01*
X150235000Y-90871398D02*
X150703199Y-90403199D01*
X150703199Y-90403199D02*
X150728199Y-90378199D01*
X150221398Y-90871398D02*
X150235000Y-90871398D01*
X146210000Y-77260000D02*
X146210000Y-76360000D01*
X146560000Y-77610000D02*
X146210000Y-77260000D01*
X146673602Y-77610000D02*
X146560000Y-77610000D01*
X146909996Y-77846394D02*
X146673602Y-77610000D01*
X146909996Y-83887208D02*
X146909996Y-77846394D01*
X144009996Y-86787208D02*
X146909996Y-83887208D01*
X144009996Y-90923606D02*
X144009996Y-86787208D01*
X142859998Y-92073604D02*
X144009996Y-90923606D01*
X142859998Y-92560002D02*
X142859998Y-92073604D01*
X142560000Y-92860000D02*
X142859998Y-92560002D01*
X143160000Y-70910000D02*
X139860000Y-70910000D01*
X139560000Y-70610000D02*
X138210000Y-70610000D01*
X139860000Y-70910000D02*
X139560000Y-70610000D01*
X151960000Y-95610000D02*
X152460000Y-96110000D01*
X152460000Y-96110000D02*
X152460000Y-98510000D01*
X150460000Y-95610000D02*
X151960000Y-95610000D01*
X149410000Y-66300000D02*
X149420000Y-66290000D01*
X149410000Y-67860000D02*
X149410000Y-66300000D01*
D34*
X156180000Y-75350000D02*
X156180000Y-80110000D01*
X156140000Y-75310000D02*
X156180000Y-75350000D01*
D33*
X156135000Y-79885000D02*
X156135000Y-80285000D01*
D34*
X156180000Y-82810000D02*
X156180000Y-83440000D01*
X156180000Y-83440000D02*
X157200000Y-84460000D01*
X157200000Y-84460000D02*
X159430000Y-84460000D01*
X159430000Y-84460000D02*
X160740000Y-85770000D01*
X160740000Y-85770000D02*
X160740000Y-87510000D01*
X160740000Y-87510000D02*
X161610000Y-88380000D01*
X161610000Y-88380000D02*
X163660000Y-88380000D01*
X163660000Y-88380000D02*
X164360000Y-87680000D01*
D33*
X156135000Y-82785000D02*
X156135000Y-83010000D01*
X164010000Y-87660000D02*
X164460000Y-87660000D01*
D37*
G36*
X135503747Y-66964142D02*
X135324142Y-67143747D01*
X135310000Y-67129605D01*
X135295857Y-67143747D01*
X135116252Y-66964142D01*
X135130395Y-66950000D01*
X135116252Y-66935857D01*
X135295857Y-66756252D01*
X135310000Y-66770395D01*
X135324142Y-66756252D01*
X135503747Y-66935857D01*
X135489605Y-66950000D01*
X135503747Y-66964142D01*
X135503747Y-66964142D01*
G37*
X135503747Y-66964142D02*
X135324142Y-67143747D01*
X135310000Y-67129605D01*
X135295857Y-67143747D01*
X135116252Y-66964142D01*
X135130395Y-66950000D01*
X135116252Y-66935857D01*
X135295857Y-66756252D01*
X135310000Y-66770395D01*
X135324142Y-66756252D01*
X135503747Y-66935857D01*
X135489605Y-66950000D01*
X135503747Y-66964142D01*
G36*
X139957000Y-103187000D02*
X139937000Y-103187000D01*
X139937000Y-103207000D01*
X139683000Y-103207000D01*
X139683000Y-103187000D01*
X138470150Y-103187000D01*
X138311400Y-103345750D01*
X138311400Y-103600634D01*
X136204616Y-101361893D01*
X136328423Y-101238303D01*
X136502801Y-100818354D01*
X136503198Y-100363641D01*
X136329554Y-99943388D01*
X136008303Y-99621577D01*
X135739338Y-99509893D01*
X136115851Y-99435000D01*
X138747637Y-99435000D01*
X138425474Y-99917152D01*
X138311400Y-100490641D01*
X138311400Y-100549359D01*
X138425474Y-101122848D01*
X138740526Y-101594356D01*
X138586701Y-101658073D01*
X138408073Y-101836702D01*
X138311400Y-102070091D01*
X138311400Y-102774250D01*
X138470150Y-102933000D01*
X139683000Y-102933000D01*
X139683000Y-102913000D01*
X139937000Y-102913000D01*
X139937000Y-102933000D01*
X139957000Y-102933000D01*
X139957000Y-103187000D01*
X139957000Y-103187000D01*
G37*
X139957000Y-103187000D02*
X139937000Y-103187000D01*
X139937000Y-103207000D01*
X139683000Y-103207000D01*
X139683000Y-103187000D01*
X138470150Y-103187000D01*
X138311400Y-103345750D01*
X138311400Y-103600634D01*
X136204616Y-101361893D01*
X136328423Y-101238303D01*
X136502801Y-100818354D01*
X136503198Y-100363641D01*
X136329554Y-99943388D01*
X136008303Y-99621577D01*
X135739338Y-99509893D01*
X136115851Y-99435000D01*
X138747637Y-99435000D01*
X138425474Y-99917152D01*
X138311400Y-100490641D01*
X138311400Y-100549359D01*
X138425474Y-101122848D01*
X138740526Y-101594356D01*
X138586701Y-101658073D01*
X138408073Y-101836702D01*
X138311400Y-102070091D01*
X138311400Y-102774250D01*
X138470150Y-102933000D01*
X139683000Y-102933000D01*
X139683000Y-102913000D01*
X139937000Y-102913000D01*
X139937000Y-102933000D01*
X139957000Y-102933000D01*
X139957000Y-103187000D01*
G36*
X144757000Y-76487000D02*
X144737000Y-76487000D01*
X144633750Y-76487000D01*
X144483000Y-76637750D01*
X144483000Y-76487000D01*
X144463000Y-76487000D01*
X144463000Y-76233000D01*
X144483000Y-76233000D01*
X144483000Y-76082250D01*
X144633750Y-76233000D01*
X144737000Y-76233000D01*
X144757000Y-76233000D01*
X144757000Y-76487000D01*
X144757000Y-76487000D01*
G37*
X144757000Y-76487000D02*
X144737000Y-76487000D01*
X144633750Y-76487000D01*
X144483000Y-76637750D01*
X144483000Y-76487000D01*
X144463000Y-76487000D01*
X144463000Y-76233000D01*
X144483000Y-76233000D01*
X144483000Y-76082250D01*
X144633750Y-76233000D01*
X144737000Y-76233000D01*
X144757000Y-76233000D01*
X144757000Y-76487000D01*
G36*
X145891372Y-75116174D02*
X145839363Y-75126264D01*
X145836310Y-75125000D01*
X145695750Y-75125000D01*
X145648454Y-75172295D01*
X145455073Y-75299327D01*
X145411662Y-75363637D01*
X145269699Y-75221673D01*
X145186433Y-75187183D01*
X145124250Y-75125000D01*
X145036310Y-75125000D01*
X144983690Y-75125000D01*
X144895750Y-75125000D01*
X144833566Y-75187183D01*
X144750301Y-75221673D01*
X144571673Y-75400302D01*
X144483000Y-75614377D01*
X144483000Y-75283750D01*
X144407440Y-75208190D01*
X144407440Y-75125000D01*
X144407440Y-74610000D01*
X144387717Y-74508347D01*
X144407440Y-74410000D01*
X144407440Y-73810000D01*
X144387717Y-73708347D01*
X144403724Y-73628526D01*
X145891372Y-75116174D01*
X145891372Y-75116174D01*
G37*
X145891372Y-75116174D02*
X145839363Y-75126264D01*
X145836310Y-75125000D01*
X145695750Y-75125000D01*
X145648454Y-75172295D01*
X145455073Y-75299327D01*
X145411662Y-75363637D01*
X145269699Y-75221673D01*
X145186433Y-75187183D01*
X145124250Y-75125000D01*
X145036310Y-75125000D01*
X144983690Y-75125000D01*
X144895750Y-75125000D01*
X144833566Y-75187183D01*
X144750301Y-75221673D01*
X144571673Y-75400302D01*
X144483000Y-75614377D01*
X144483000Y-75283750D01*
X144407440Y-75208190D01*
X144407440Y-75125000D01*
X144407440Y-74610000D01*
X144387717Y-74508347D01*
X144407440Y-74410000D01*
X144407440Y-73810000D01*
X144387717Y-73708347D01*
X144403724Y-73628526D01*
X145891372Y-75116174D01*
G36*
X146149996Y-83572406D02*
X143472595Y-86249807D01*
X143307848Y-86496369D01*
X143249996Y-86787208D01*
X143249996Y-90608804D01*
X142322597Y-91536203D01*
X142157850Y-91782765D01*
X142099998Y-92073604D01*
X142099998Y-92146596D01*
X142087628Y-92151708D01*
X141852534Y-92386393D01*
X141725145Y-92693179D01*
X141724855Y-93025363D01*
X141745364Y-93075000D01*
X139660816Y-93075000D01*
X139474833Y-93074838D01*
X139320000Y-93138813D01*
X139320000Y-92845750D01*
X139161250Y-92687000D01*
X138187000Y-92687000D01*
X138187000Y-93786250D01*
X138345750Y-93945000D01*
X138558691Y-93945000D01*
X138725055Y-93945000D01*
X138724899Y-94125000D01*
X137933000Y-94125000D01*
X137933000Y-93786250D01*
X137933000Y-92687000D01*
X136958750Y-92687000D01*
X136800000Y-92845750D01*
X136800000Y-93436309D01*
X136896673Y-93669698D01*
X137075301Y-93848327D01*
X137308690Y-93945000D01*
X137561309Y-93945000D01*
X137774250Y-93945000D01*
X137933000Y-93786250D01*
X137933000Y-94125000D01*
X136738196Y-94125000D01*
X136625640Y-94049023D01*
X136376000Y-93998960D01*
X134344000Y-93998960D01*
X134101877Y-94045937D01*
X133994328Y-94116585D01*
X133510513Y-90757870D01*
X134458680Y-90757870D01*
X134700803Y-90710893D01*
X134860672Y-90605875D01*
X135011680Y-90707807D01*
X135261320Y-90757870D01*
X136787560Y-90757870D01*
X136787560Y-90810000D01*
X136834537Y-91052123D01*
X136974327Y-91264927D01*
X137038637Y-91308337D01*
X136896673Y-91450302D01*
X136800000Y-91683691D01*
X136800000Y-92274250D01*
X136958750Y-92433000D01*
X137933000Y-92433000D01*
X137933000Y-92413000D01*
X138187000Y-92413000D01*
X138187000Y-92433000D01*
X139161250Y-92433000D01*
X139320000Y-92274250D01*
X139320000Y-91683691D01*
X139223327Y-91450302D01*
X139081849Y-91308823D01*
X139127789Y-91278646D01*
X139210000Y-91294999D01*
X139644345Y-91208603D01*
X140012566Y-90962566D01*
X140258603Y-90594345D01*
X140344999Y-90160000D01*
X140258603Y-89725654D01*
X140012566Y-89357434D01*
X139912566Y-89257434D01*
X139544346Y-89011397D01*
X139203873Y-88943672D01*
X139145673Y-88855073D01*
X139135882Y-88848464D01*
X139242571Y-88827243D01*
X139964413Y-88344924D01*
X140446732Y-87623082D01*
X140616100Y-86771611D01*
X140446732Y-85920140D01*
X139964413Y-85198298D01*
X139242571Y-84715979D01*
X138391100Y-84546611D01*
X137539629Y-84715979D01*
X136817787Y-85198298D01*
X136335468Y-85920140D01*
X136264821Y-86275305D01*
X136094346Y-86161397D01*
X135660000Y-86075000D01*
X134760000Y-86075000D01*
X134325654Y-86161397D01*
X134214892Y-86235405D01*
X134062566Y-86007434D01*
X133694346Y-85761397D01*
X133260000Y-85675000D01*
X132825654Y-85761397D01*
X132793845Y-85782651D01*
X132550125Y-84090716D01*
X137283723Y-84064990D01*
X137412882Y-84038567D01*
X137542138Y-84012857D01*
X137543714Y-84011803D01*
X137545574Y-84011423D01*
X137654794Y-83937582D01*
X137764368Y-83864368D01*
X137765421Y-83862790D01*
X137766994Y-83861728D01*
X137839683Y-83751649D01*
X137912857Y-83642138D01*
X137913226Y-83640279D01*
X137914273Y-83638695D01*
X137939299Y-83509205D01*
X137965000Y-83380000D01*
X137965000Y-79310000D01*
X137912857Y-79047862D01*
X137764368Y-78825632D01*
X137542138Y-78677143D01*
X137280000Y-78625000D01*
X134895000Y-78625000D01*
X134895000Y-76160000D01*
X135384250Y-76160000D01*
X135543000Y-76001250D01*
X135543000Y-75027000D01*
X135523000Y-75027000D01*
X135523000Y-74773000D01*
X135543000Y-74773000D01*
X135543000Y-73798750D01*
X135384250Y-73640000D01*
X134895000Y-73640000D01*
X134895000Y-68217621D01*
X135117480Y-68295927D01*
X135647199Y-68267148D01*
X136002929Y-68119800D01*
X136064582Y-67884190D01*
X136100000Y-67919608D01*
X136100000Y-68710000D01*
X136157852Y-69000839D01*
X136322599Y-69247401D01*
X136987188Y-69911991D01*
X136813243Y-70330900D01*
X136812758Y-70886661D01*
X137024990Y-71400303D01*
X137417630Y-71793629D01*
X137456517Y-71809776D01*
X137419697Y-71824990D01*
X137026371Y-72217630D01*
X136813243Y-72730900D01*
X136812758Y-73286661D01*
X137016756Y-73780376D01*
X136965073Y-73814327D01*
X136921662Y-73878637D01*
X136779698Y-73736673D01*
X136546309Y-73640000D01*
X135955750Y-73640000D01*
X135797000Y-73798750D01*
X135797000Y-74773000D01*
X135817000Y-74773000D01*
X135817000Y-75027000D01*
X135797000Y-75027000D01*
X135797000Y-76001250D01*
X135955750Y-76160000D01*
X136546309Y-76160000D01*
X136779698Y-76063327D01*
X136921176Y-75921849D01*
X136959327Y-75979927D01*
X137170360Y-76122377D01*
X137420000Y-76172440D01*
X138920000Y-76172440D01*
X139162123Y-76125463D01*
X139374927Y-75985673D01*
X139423900Y-75913121D01*
X139423900Y-77333600D01*
X139476043Y-77595738D01*
X139624532Y-77817968D01*
X139846762Y-77966457D01*
X140108900Y-78018600D01*
X143008900Y-78018600D01*
X143271038Y-77966457D01*
X143493268Y-77817968D01*
X143641757Y-77595738D01*
X143693900Y-77333600D01*
X143693900Y-77131937D01*
X143771673Y-77319698D01*
X143950301Y-77498327D01*
X144183690Y-77595000D01*
X144324250Y-77595000D01*
X144483000Y-77436250D01*
X144483000Y-77105622D01*
X144571673Y-77319698D01*
X144750301Y-77498327D01*
X144833566Y-77532816D01*
X144895750Y-77595000D01*
X144983690Y-77595000D01*
X145036310Y-77595000D01*
X145124250Y-77595000D01*
X145186433Y-77532816D01*
X145269699Y-77498327D01*
X145411175Y-77356849D01*
X145449327Y-77414927D01*
X145485701Y-77439479D01*
X145507852Y-77550839D01*
X145672599Y-77797401D01*
X146022599Y-78147401D01*
X146149996Y-78232524D01*
X146149996Y-83572406D01*
X146149996Y-83572406D01*
G37*
X146149996Y-83572406D02*
X143472595Y-86249807D01*
X143307848Y-86496369D01*
X143249996Y-86787208D01*
X143249996Y-90608804D01*
X142322597Y-91536203D01*
X142157850Y-91782765D01*
X142099998Y-92073604D01*
X142099998Y-92146596D01*
X142087628Y-92151708D01*
X141852534Y-92386393D01*
X141725145Y-92693179D01*
X141724855Y-93025363D01*
X141745364Y-93075000D01*
X139660816Y-93075000D01*
X139474833Y-93074838D01*
X139320000Y-93138813D01*
X139320000Y-92845750D01*
X139161250Y-92687000D01*
X138187000Y-92687000D01*
X138187000Y-93786250D01*
X138345750Y-93945000D01*
X138558691Y-93945000D01*
X138725055Y-93945000D01*
X138724899Y-94125000D01*
X137933000Y-94125000D01*
X137933000Y-93786250D01*
X137933000Y-92687000D01*
X136958750Y-92687000D01*
X136800000Y-92845750D01*
X136800000Y-93436309D01*
X136896673Y-93669698D01*
X137075301Y-93848327D01*
X137308690Y-93945000D01*
X137561309Y-93945000D01*
X137774250Y-93945000D01*
X137933000Y-93786250D01*
X137933000Y-94125000D01*
X136738196Y-94125000D01*
X136625640Y-94049023D01*
X136376000Y-93998960D01*
X134344000Y-93998960D01*
X134101877Y-94045937D01*
X133994328Y-94116585D01*
X133510513Y-90757870D01*
X134458680Y-90757870D01*
X134700803Y-90710893D01*
X134860672Y-90605875D01*
X135011680Y-90707807D01*
X135261320Y-90757870D01*
X136787560Y-90757870D01*
X136787560Y-90810000D01*
X136834537Y-91052123D01*
X136974327Y-91264927D01*
X137038637Y-91308337D01*
X136896673Y-91450302D01*
X136800000Y-91683691D01*
X136800000Y-92274250D01*
X136958750Y-92433000D01*
X137933000Y-92433000D01*
X137933000Y-92413000D01*
X138187000Y-92413000D01*
X138187000Y-92433000D01*
X139161250Y-92433000D01*
X139320000Y-92274250D01*
X139320000Y-91683691D01*
X139223327Y-91450302D01*
X139081849Y-91308823D01*
X139127789Y-91278646D01*
X139210000Y-91294999D01*
X139644345Y-91208603D01*
X140012566Y-90962566D01*
X140258603Y-90594345D01*
X140344999Y-90160000D01*
X140258603Y-89725654D01*
X140012566Y-89357434D01*
X139912566Y-89257434D01*
X139544346Y-89011397D01*
X139203873Y-88943672D01*
X139145673Y-88855073D01*
X139135882Y-88848464D01*
X139242571Y-88827243D01*
X139964413Y-88344924D01*
X140446732Y-87623082D01*
X140616100Y-86771611D01*
X140446732Y-85920140D01*
X139964413Y-85198298D01*
X139242571Y-84715979D01*
X138391100Y-84546611D01*
X137539629Y-84715979D01*
X136817787Y-85198298D01*
X136335468Y-85920140D01*
X136264821Y-86275305D01*
X136094346Y-86161397D01*
X135660000Y-86075000D01*
X134760000Y-86075000D01*
X134325654Y-86161397D01*
X134214892Y-86235405D01*
X134062566Y-86007434D01*
X133694346Y-85761397D01*
X133260000Y-85675000D01*
X132825654Y-85761397D01*
X132793845Y-85782651D01*
X132550125Y-84090716D01*
X137283723Y-84064990D01*
X137412882Y-84038567D01*
X137542138Y-84012857D01*
X137543714Y-84011803D01*
X137545574Y-84011423D01*
X137654794Y-83937582D01*
X137764368Y-83864368D01*
X137765421Y-83862790D01*
X137766994Y-83861728D01*
X137839683Y-83751649D01*
X137912857Y-83642138D01*
X137913226Y-83640279D01*
X137914273Y-83638695D01*
X137939299Y-83509205D01*
X137965000Y-83380000D01*
X137965000Y-79310000D01*
X137912857Y-79047862D01*
X137764368Y-78825632D01*
X137542138Y-78677143D01*
X137280000Y-78625000D01*
X134895000Y-78625000D01*
X134895000Y-76160000D01*
X135384250Y-76160000D01*
X135543000Y-76001250D01*
X135543000Y-75027000D01*
X135523000Y-75027000D01*
X135523000Y-74773000D01*
X135543000Y-74773000D01*
X135543000Y-73798750D01*
X135384250Y-73640000D01*
X134895000Y-73640000D01*
X134895000Y-68217621D01*
X135117480Y-68295927D01*
X135647199Y-68267148D01*
X136002929Y-68119800D01*
X136064582Y-67884190D01*
X136100000Y-67919608D01*
X136100000Y-68710000D01*
X136157852Y-69000839D01*
X136322599Y-69247401D01*
X136987188Y-69911991D01*
X136813243Y-70330900D01*
X136812758Y-70886661D01*
X137024990Y-71400303D01*
X137417630Y-71793629D01*
X137456517Y-71809776D01*
X137419697Y-71824990D01*
X137026371Y-72217630D01*
X136813243Y-72730900D01*
X136812758Y-73286661D01*
X137016756Y-73780376D01*
X136965073Y-73814327D01*
X136921662Y-73878637D01*
X136779698Y-73736673D01*
X136546309Y-73640000D01*
X135955750Y-73640000D01*
X135797000Y-73798750D01*
X135797000Y-74773000D01*
X135817000Y-74773000D01*
X135817000Y-75027000D01*
X135797000Y-75027000D01*
X135797000Y-76001250D01*
X135955750Y-76160000D01*
X136546309Y-76160000D01*
X136779698Y-76063327D01*
X136921176Y-75921849D01*
X136959327Y-75979927D01*
X137170360Y-76122377D01*
X137420000Y-76172440D01*
X138920000Y-76172440D01*
X139162123Y-76125463D01*
X139374927Y-75985673D01*
X139423900Y-75913121D01*
X139423900Y-77333600D01*
X139476043Y-77595738D01*
X139624532Y-77817968D01*
X139846762Y-77966457D01*
X140108900Y-78018600D01*
X143008900Y-78018600D01*
X143271038Y-77966457D01*
X143493268Y-77817968D01*
X143641757Y-77595738D01*
X143693900Y-77333600D01*
X143693900Y-77131937D01*
X143771673Y-77319698D01*
X143950301Y-77498327D01*
X144183690Y-77595000D01*
X144324250Y-77595000D01*
X144483000Y-77436250D01*
X144483000Y-77105622D01*
X144571673Y-77319698D01*
X144750301Y-77498327D01*
X144833566Y-77532816D01*
X144895750Y-77595000D01*
X144983690Y-77595000D01*
X145036310Y-77595000D01*
X145124250Y-77595000D01*
X145186433Y-77532816D01*
X145269699Y-77498327D01*
X145411175Y-77356849D01*
X145449327Y-77414927D01*
X145485701Y-77439479D01*
X145507852Y-77550839D01*
X145672599Y-77797401D01*
X146022599Y-78147401D01*
X146149996Y-78232524D01*
X146149996Y-83572406D01*
G36*
X155199998Y-69125200D02*
X155082440Y-69242758D01*
X155082440Y-68785000D01*
X155035463Y-68542877D01*
X154895673Y-68330073D01*
X154831362Y-68286662D01*
X154973327Y-68144698D01*
X155070000Y-67911309D01*
X155070000Y-67320750D01*
X154911250Y-67162000D01*
X153937000Y-67162000D01*
X153937000Y-67182000D01*
X153683000Y-67182000D01*
X153683000Y-67162000D01*
X152708750Y-67162000D01*
X152550000Y-67320750D01*
X152550000Y-67911309D01*
X152646673Y-68144698D01*
X152788150Y-68286176D01*
X152730073Y-68324327D01*
X152620128Y-68487204D01*
X152509640Y-68412623D01*
X152260000Y-68362560D01*
X151145000Y-68362560D01*
X151145000Y-68145750D01*
X150986250Y-67987000D01*
X150357440Y-67987000D01*
X150357440Y-67733000D01*
X150986250Y-67733000D01*
X151145000Y-67574250D01*
X151145000Y-67133691D01*
X151048327Y-66900302D01*
X150869699Y-66721673D01*
X150636310Y-66625000D01*
X150495750Y-66625000D01*
X150337002Y-66783748D01*
X150337002Y-66625000D01*
X150293299Y-66625000D01*
X150354838Y-66476799D01*
X150355162Y-66104833D01*
X150213117Y-65761057D01*
X149950327Y-65497808D01*
X149606799Y-65355162D01*
X149234833Y-65354838D01*
X149000526Y-65451651D01*
X149043900Y-65233600D01*
X148927055Y-64646181D01*
X148594309Y-64148191D01*
X148096319Y-63815445D01*
X147508900Y-63698600D01*
X147020000Y-63795848D01*
X147020000Y-63074802D01*
X147487820Y-62606981D01*
X147786661Y-62607242D01*
X148300303Y-62395010D01*
X148693629Y-62002370D01*
X148709776Y-61963482D01*
X148724990Y-62000303D01*
X149117630Y-62393629D01*
X149630900Y-62606757D01*
X150186661Y-62607242D01*
X150700303Y-62395010D01*
X151093629Y-62002370D01*
X151306757Y-61489100D01*
X151307242Y-60933339D01*
X151095010Y-60419697D01*
X150820792Y-60145000D01*
X154100543Y-60145000D01*
X154114537Y-60217123D01*
X154254327Y-60429927D01*
X154465360Y-60572377D01*
X154474530Y-60574216D01*
X154472877Y-60574537D01*
X154260073Y-60714327D01*
X154117623Y-60925360D01*
X154098860Y-61018918D01*
X153927808Y-61189673D01*
X153785162Y-61533201D01*
X153784838Y-61905167D01*
X153926883Y-62248943D01*
X154058855Y-62381145D01*
X154067560Y-62389865D01*
X154067560Y-62675000D01*
X154114537Y-62917123D01*
X154254327Y-63129927D01*
X154281990Y-63148600D01*
X152008900Y-63148600D01*
X151746762Y-63200743D01*
X151524532Y-63349232D01*
X151376043Y-63571462D01*
X151323900Y-63833600D01*
X151323900Y-65153600D01*
X151376043Y-65415738D01*
X151524532Y-65637968D01*
X151746762Y-65786457D01*
X152008900Y-65838600D01*
X152733374Y-65838600D01*
X152646673Y-65925302D01*
X152550000Y-66158691D01*
X152550000Y-66749250D01*
X152708750Y-66908000D01*
X153683000Y-66908000D01*
X153683000Y-66888000D01*
X153937000Y-66888000D01*
X153937000Y-66908000D01*
X154911250Y-66908000D01*
X155070000Y-66749250D01*
X155070000Y-66486554D01*
X155171038Y-66466457D01*
X155199998Y-66447106D01*
X155199998Y-69125200D01*
X155199998Y-69125200D01*
G37*
X155199998Y-69125200D02*
X155082440Y-69242758D01*
X155082440Y-68785000D01*
X155035463Y-68542877D01*
X154895673Y-68330073D01*
X154831362Y-68286662D01*
X154973327Y-68144698D01*
X155070000Y-67911309D01*
X155070000Y-67320750D01*
X154911250Y-67162000D01*
X153937000Y-67162000D01*
X153937000Y-67182000D01*
X153683000Y-67182000D01*
X153683000Y-67162000D01*
X152708750Y-67162000D01*
X152550000Y-67320750D01*
X152550000Y-67911309D01*
X152646673Y-68144698D01*
X152788150Y-68286176D01*
X152730073Y-68324327D01*
X152620128Y-68487204D01*
X152509640Y-68412623D01*
X152260000Y-68362560D01*
X151145000Y-68362560D01*
X151145000Y-68145750D01*
X150986250Y-67987000D01*
X150357440Y-67987000D01*
X150357440Y-67733000D01*
X150986250Y-67733000D01*
X151145000Y-67574250D01*
X151145000Y-67133691D01*
X151048327Y-66900302D01*
X150869699Y-66721673D01*
X150636310Y-66625000D01*
X150495750Y-66625000D01*
X150337002Y-66783748D01*
X150337002Y-66625000D01*
X150293299Y-66625000D01*
X150354838Y-66476799D01*
X150355162Y-66104833D01*
X150213117Y-65761057D01*
X149950327Y-65497808D01*
X149606799Y-65355162D01*
X149234833Y-65354838D01*
X149000526Y-65451651D01*
X149043900Y-65233600D01*
X148927055Y-64646181D01*
X148594309Y-64148191D01*
X148096319Y-63815445D01*
X147508900Y-63698600D01*
X147020000Y-63795848D01*
X147020000Y-63074802D01*
X147487820Y-62606981D01*
X147786661Y-62607242D01*
X148300303Y-62395010D01*
X148693629Y-62002370D01*
X148709776Y-61963482D01*
X148724990Y-62000303D01*
X149117630Y-62393629D01*
X149630900Y-62606757D01*
X150186661Y-62607242D01*
X150700303Y-62395010D01*
X151093629Y-62002370D01*
X151306757Y-61489100D01*
X151307242Y-60933339D01*
X151095010Y-60419697D01*
X150820792Y-60145000D01*
X154100543Y-60145000D01*
X154114537Y-60217123D01*
X154254327Y-60429927D01*
X154465360Y-60572377D01*
X154474530Y-60574216D01*
X154472877Y-60574537D01*
X154260073Y-60714327D01*
X154117623Y-60925360D01*
X154098860Y-61018918D01*
X153927808Y-61189673D01*
X153785162Y-61533201D01*
X153784838Y-61905167D01*
X153926883Y-62248943D01*
X154058855Y-62381145D01*
X154067560Y-62389865D01*
X154067560Y-62675000D01*
X154114537Y-62917123D01*
X154254327Y-63129927D01*
X154281990Y-63148600D01*
X152008900Y-63148600D01*
X151746762Y-63200743D01*
X151524532Y-63349232D01*
X151376043Y-63571462D01*
X151323900Y-63833600D01*
X151323900Y-65153600D01*
X151376043Y-65415738D01*
X151524532Y-65637968D01*
X151746762Y-65786457D01*
X152008900Y-65838600D01*
X152733374Y-65838600D01*
X152646673Y-65925302D01*
X152550000Y-66158691D01*
X152550000Y-66749250D01*
X152708750Y-66908000D01*
X153683000Y-66908000D01*
X153683000Y-66888000D01*
X153937000Y-66888000D01*
X153937000Y-66908000D01*
X154911250Y-66908000D01*
X155070000Y-66749250D01*
X155070000Y-66486554D01*
X155171038Y-66466457D01*
X155199998Y-66447106D01*
X155199998Y-69125200D01*
G36*
X159157000Y-69467000D02*
X159137000Y-69467000D01*
X159137000Y-69487000D01*
X158883000Y-69487000D01*
X158883000Y-69467000D01*
X158863000Y-69467000D01*
X158863000Y-69213000D01*
X158883000Y-69213000D01*
X158883000Y-69193000D01*
X159137000Y-69193000D01*
X159137000Y-69213000D01*
X159157000Y-69213000D01*
X159157000Y-69467000D01*
X159157000Y-69467000D01*
G37*
X159157000Y-69467000D02*
X159137000Y-69467000D01*
X159137000Y-69487000D01*
X158883000Y-69487000D01*
X158883000Y-69467000D01*
X158863000Y-69467000D01*
X158863000Y-69213000D01*
X158883000Y-69213000D01*
X158883000Y-69193000D01*
X159137000Y-69193000D01*
X159137000Y-69213000D01*
X159157000Y-69213000D01*
X159157000Y-69467000D01*
G36*
X160125000Y-78625000D02*
X159533000Y-78625000D01*
X159533000Y-77986250D01*
X159533000Y-76887000D01*
X158558750Y-76887000D01*
X158400000Y-77045750D01*
X158400000Y-77636309D01*
X158496673Y-77869698D01*
X158675301Y-78048327D01*
X158908690Y-78145000D01*
X159161309Y-78145000D01*
X159374250Y-78145000D01*
X159533000Y-77986250D01*
X159533000Y-78625000D01*
X157710000Y-78625000D01*
X157447862Y-78677143D01*
X157225632Y-78825632D01*
X157209267Y-78850123D01*
X157115000Y-78786491D01*
X157115000Y-75350005D01*
X157115000Y-75350000D01*
X157115001Y-75350000D01*
X157075140Y-75149613D01*
X157075140Y-75149611D01*
X157075162Y-75124833D01*
X157065615Y-75101729D01*
X157065615Y-75101728D01*
X157055635Y-75051556D01*
X157049358Y-75020000D01*
X158389500Y-75020000D01*
X158434537Y-75252123D01*
X158574327Y-75464927D01*
X158638637Y-75508337D01*
X158496673Y-75650302D01*
X158400000Y-75883691D01*
X158400000Y-76474250D01*
X158558750Y-76633000D01*
X159533000Y-76633000D01*
X159533000Y-76613000D01*
X159787000Y-76613000D01*
X159787000Y-76633000D01*
X159807000Y-76633000D01*
X159807000Y-76887000D01*
X159787000Y-76887000D01*
X159787000Y-77986250D01*
X159945750Y-78145000D01*
X160125000Y-78145000D01*
X160125000Y-78625000D01*
X160125000Y-78625000D01*
G37*
X160125000Y-78625000D02*
X159533000Y-78625000D01*
X159533000Y-77986250D01*
X159533000Y-76887000D01*
X158558750Y-76887000D01*
X158400000Y-77045750D01*
X158400000Y-77636309D01*
X158496673Y-77869698D01*
X158675301Y-78048327D01*
X158908690Y-78145000D01*
X159161309Y-78145000D01*
X159374250Y-78145000D01*
X159533000Y-77986250D01*
X159533000Y-78625000D01*
X157710000Y-78625000D01*
X157447862Y-78677143D01*
X157225632Y-78825632D01*
X157209267Y-78850123D01*
X157115000Y-78786491D01*
X157115000Y-75350005D01*
X157115000Y-75350000D01*
X157115001Y-75350000D01*
X157075140Y-75149613D01*
X157075140Y-75149611D01*
X157075162Y-75124833D01*
X157065615Y-75101729D01*
X157065615Y-75101728D01*
X157055635Y-75051556D01*
X157049358Y-75020000D01*
X158389500Y-75020000D01*
X158434537Y-75252123D01*
X158574327Y-75464927D01*
X158638637Y-75508337D01*
X158496673Y-75650302D01*
X158400000Y-75883691D01*
X158400000Y-76474250D01*
X158558750Y-76633000D01*
X159533000Y-76633000D01*
X159533000Y-76613000D01*
X159787000Y-76613000D01*
X159787000Y-76633000D01*
X159807000Y-76633000D01*
X159807000Y-76887000D01*
X159787000Y-76887000D01*
X159787000Y-77986250D01*
X159945750Y-78145000D01*
X160125000Y-78145000D01*
X160125000Y-78625000D01*
G36*
X161118748Y-93106384D02*
X160162030Y-99899079D01*
X156623440Y-103660756D01*
X156623440Y-102094000D01*
X156576463Y-101851877D01*
X156436673Y-101639073D01*
X156276956Y-101531262D01*
X156366385Y-101434818D01*
X156565975Y-100952944D01*
X156565975Y-100187056D01*
X156366385Y-99705182D01*
X155928379Y-99232812D01*
X155342946Y-98964017D01*
X155087000Y-99082633D01*
X155087000Y-100443000D01*
X156446836Y-100443000D01*
X156565975Y-100187056D01*
X156565975Y-100952944D01*
X156446836Y-100697000D01*
X155087000Y-100697000D01*
X155087000Y-100717000D01*
X154833000Y-100717000D01*
X154833000Y-100697000D01*
X153473164Y-100697000D01*
X153354025Y-100952944D01*
X153553615Y-101434818D01*
X153643574Y-101531835D01*
X153489073Y-101633327D01*
X153400192Y-101765000D01*
X152995564Y-101765000D01*
X153023440Y-101626000D01*
X153023440Y-99870000D01*
X153160000Y-99870000D01*
X153450839Y-99812148D01*
X153531684Y-99758128D01*
X153354025Y-100187056D01*
X153473164Y-100443000D01*
X154833000Y-100443000D01*
X154833000Y-99082633D01*
X154577054Y-98964017D01*
X154110409Y-99178271D01*
X154162148Y-99100839D01*
X154220000Y-98810000D01*
X154220000Y-97557091D01*
X154287306Y-97395000D01*
X154574250Y-97395000D01*
X154733000Y-97236250D01*
X154733000Y-96907440D01*
X154987000Y-96907440D01*
X154987000Y-97236250D01*
X155145750Y-97395000D01*
X155686309Y-97395000D01*
X155919698Y-97298327D01*
X156098327Y-97119699D01*
X156195000Y-96886310D01*
X156195000Y-96843750D01*
X156037895Y-96686645D01*
X156157377Y-96509640D01*
X156181399Y-96389850D01*
X156195000Y-96376250D01*
X156195000Y-96375052D01*
X156332372Y-96318292D01*
X156567466Y-96083607D01*
X156694855Y-95776821D01*
X156695145Y-95444637D01*
X156568292Y-95137628D01*
X156428020Y-94997111D01*
X157192692Y-94232440D01*
X157260000Y-94232440D01*
X157502123Y-94185463D01*
X157714927Y-94045673D01*
X157759613Y-93979471D01*
X157799327Y-94039927D01*
X158010360Y-94182377D01*
X158260000Y-94232440D01*
X159760000Y-94232440D01*
X160002123Y-94185463D01*
X160214927Y-94045673D01*
X160357377Y-93834640D01*
X160357791Y-93832574D01*
X160462566Y-93762566D01*
X161118748Y-93106384D01*
X161118748Y-93106384D01*
G37*
X161118748Y-93106384D02*
X160162030Y-99899079D01*
X156623440Y-103660756D01*
X156623440Y-102094000D01*
X156576463Y-101851877D01*
X156436673Y-101639073D01*
X156276956Y-101531262D01*
X156366385Y-101434818D01*
X156565975Y-100952944D01*
X156565975Y-100187056D01*
X156366385Y-99705182D01*
X155928379Y-99232812D01*
X155342946Y-98964017D01*
X155087000Y-99082633D01*
X155087000Y-100443000D01*
X156446836Y-100443000D01*
X156565975Y-100187056D01*
X156565975Y-100952944D01*
X156446836Y-100697000D01*
X155087000Y-100697000D01*
X155087000Y-100717000D01*
X154833000Y-100717000D01*
X154833000Y-100697000D01*
X153473164Y-100697000D01*
X153354025Y-100952944D01*
X153553615Y-101434818D01*
X153643574Y-101531835D01*
X153489073Y-101633327D01*
X153400192Y-101765000D01*
X152995564Y-101765000D01*
X153023440Y-101626000D01*
X153023440Y-99870000D01*
X153160000Y-99870000D01*
X153450839Y-99812148D01*
X153531684Y-99758128D01*
X153354025Y-100187056D01*
X153473164Y-100443000D01*
X154833000Y-100443000D01*
X154833000Y-99082633D01*
X154577054Y-98964017D01*
X154110409Y-99178271D01*
X154162148Y-99100839D01*
X154220000Y-98810000D01*
X154220000Y-97557091D01*
X154287306Y-97395000D01*
X154574250Y-97395000D01*
X154733000Y-97236250D01*
X154733000Y-96907440D01*
X154987000Y-96907440D01*
X154987000Y-97236250D01*
X155145750Y-97395000D01*
X155686309Y-97395000D01*
X155919698Y-97298327D01*
X156098327Y-97119699D01*
X156195000Y-96886310D01*
X156195000Y-96843750D01*
X156037895Y-96686645D01*
X156157377Y-96509640D01*
X156181399Y-96389850D01*
X156195000Y-96376250D01*
X156195000Y-96375052D01*
X156332372Y-96318292D01*
X156567466Y-96083607D01*
X156694855Y-95776821D01*
X156695145Y-95444637D01*
X156568292Y-95137628D01*
X156428020Y-94997111D01*
X157192692Y-94232440D01*
X157260000Y-94232440D01*
X157502123Y-94185463D01*
X157714927Y-94045673D01*
X157759613Y-93979471D01*
X157799327Y-94039927D01*
X158010360Y-94182377D01*
X158260000Y-94232440D01*
X159760000Y-94232440D01*
X160002123Y-94185463D01*
X160214927Y-94045673D01*
X160357377Y-93834640D01*
X160357791Y-93832574D01*
X160462566Y-93762566D01*
X161118748Y-93106384D01*
G36*
X165925000Y-92425000D02*
X165620000Y-92425000D01*
X165620000Y-91056309D01*
X165620000Y-90465750D01*
X165461250Y-90307000D01*
X164487000Y-90307000D01*
X164487000Y-91406250D01*
X164645750Y-91565000D01*
X164858691Y-91565000D01*
X165111310Y-91565000D01*
X165344699Y-91468327D01*
X165523327Y-91289698D01*
X165620000Y-91056309D01*
X165620000Y-92425000D01*
X162612878Y-92425000D01*
X162722663Y-92379638D01*
X163028026Y-92074807D01*
X163193491Y-91676323D01*
X163193834Y-91282845D01*
X163196673Y-91289698D01*
X163375301Y-91468327D01*
X163608690Y-91565000D01*
X163861309Y-91565000D01*
X164074250Y-91565000D01*
X164233000Y-91406250D01*
X164233000Y-90307000D01*
X163258750Y-90307000D01*
X163100000Y-90465750D01*
X163100000Y-91017672D01*
X163029098Y-90846077D01*
X162724267Y-90540714D01*
X162325783Y-90375249D01*
X161894310Y-90374872D01*
X161495537Y-90539642D01*
X161214800Y-90819889D01*
X160986756Y-90725197D01*
X160535225Y-90724803D01*
X160395000Y-90782742D01*
X160395000Y-90732998D01*
X160236252Y-90732998D01*
X160395000Y-90574250D01*
X160395000Y-90361309D01*
X160395000Y-90108690D01*
X160298327Y-89875301D01*
X160119698Y-89696673D01*
X159886309Y-89600000D01*
X159295750Y-89600000D01*
X159137000Y-89758750D01*
X159137000Y-90733000D01*
X159157000Y-90733000D01*
X159157000Y-90987000D01*
X159137000Y-90987000D01*
X159137000Y-91007000D01*
X158883000Y-91007000D01*
X158883000Y-90987000D01*
X158863000Y-90987000D01*
X158863000Y-90733000D01*
X158883000Y-90733000D01*
X158883000Y-89758750D01*
X158724250Y-89600000D01*
X158133691Y-89600000D01*
X157900302Y-89696673D01*
X157758823Y-89838150D01*
X157720673Y-89780073D01*
X157509640Y-89637623D01*
X157260000Y-89587560D01*
X155760000Y-89587560D01*
X155517877Y-89634537D01*
X155305073Y-89774327D01*
X155162623Y-89985360D01*
X155112560Y-90235000D01*
X155112560Y-91350000D01*
X154795750Y-91350000D01*
X154637000Y-91508750D01*
X154637000Y-92483000D01*
X154657000Y-92483000D01*
X154657000Y-92737000D01*
X154637000Y-92737000D01*
X154637000Y-92757000D01*
X154383000Y-92757000D01*
X154383000Y-92737000D01*
X154363000Y-92737000D01*
X154363000Y-92483000D01*
X154383000Y-92483000D01*
X154383000Y-91508750D01*
X154224250Y-91350000D01*
X154020000Y-91350000D01*
X154020000Y-91310000D01*
X154020000Y-91210000D01*
X153962148Y-90919161D01*
X153950025Y-90901017D01*
X153967466Y-90883607D01*
X154094855Y-90576821D01*
X154095145Y-90244637D01*
X153968292Y-89937628D01*
X153733607Y-89702534D01*
X153551873Y-89627071D01*
X153420010Y-89495208D01*
X153420010Y-88710000D01*
X153420010Y-85428018D01*
X153362158Y-85137179D01*
X153197411Y-84890617D01*
X152735996Y-84429202D01*
X152735996Y-78018600D01*
X154908900Y-78018600D01*
X155171038Y-77966457D01*
X155245000Y-77917037D01*
X155245000Y-78787702D01*
X155075073Y-78899327D01*
X154932623Y-79110360D01*
X154882560Y-79360000D01*
X154882560Y-80860000D01*
X154929537Y-81102123D01*
X155069327Y-81314927D01*
X155280360Y-81457377D01*
X155289530Y-81459216D01*
X155287877Y-81459537D01*
X155075073Y-81599327D01*
X154932623Y-81810360D01*
X154882560Y-82060000D01*
X154882560Y-83560000D01*
X154929537Y-83802123D01*
X155069327Y-84014927D01*
X155280360Y-84157377D01*
X155530000Y-84207440D01*
X155625150Y-84207440D01*
X156088219Y-84670509D01*
X155859629Y-84715979D01*
X155137787Y-85198298D01*
X154655468Y-85920140D01*
X154486100Y-86771611D01*
X154655468Y-87623082D01*
X155137787Y-88344924D01*
X155859629Y-88827243D01*
X156711100Y-88996611D01*
X157562571Y-88827243D01*
X158284413Y-88344924D01*
X158766732Y-87623082D01*
X158936100Y-86771611D01*
X158766732Y-85920140D01*
X158415844Y-85395000D01*
X159042710Y-85395000D01*
X159805000Y-86157290D01*
X159805000Y-87510000D01*
X159876173Y-87867809D01*
X160078855Y-88171145D01*
X160948855Y-89041145D01*
X161252191Y-89243827D01*
X161610000Y-89315000D01*
X163100000Y-89315000D01*
X163100000Y-89894250D01*
X163258750Y-90053000D01*
X164233000Y-90053000D01*
X164233000Y-90033000D01*
X164487000Y-90033000D01*
X164487000Y-90053000D01*
X165461250Y-90053000D01*
X165620000Y-89894250D01*
X165620000Y-89303691D01*
X165523327Y-89070302D01*
X165381849Y-88928823D01*
X165439927Y-88890673D01*
X165582377Y-88679640D01*
X165632440Y-88430000D01*
X165632440Y-86930000D01*
X165585463Y-86687877D01*
X165445673Y-86475073D01*
X165234640Y-86332623D01*
X164985000Y-86282560D01*
X163735000Y-86282560D01*
X163492877Y-86329537D01*
X163280073Y-86469327D01*
X163137623Y-86680360D01*
X163133695Y-86699942D01*
X163029098Y-86446797D01*
X162724267Y-86141434D01*
X162325783Y-85975969D01*
X161894310Y-85975592D01*
X161675000Y-86066209D01*
X161675000Y-85770000D01*
X161603827Y-85412191D01*
X161401145Y-85108855D01*
X160387290Y-84095000D01*
X162444714Y-84095000D01*
X162235254Y-85291919D01*
X162236631Y-85351525D01*
X162225000Y-85410000D01*
X162239689Y-85483848D01*
X162241429Y-85559122D01*
X162265511Y-85613663D01*
X162277143Y-85672138D01*
X162318972Y-85734740D01*
X162349387Y-85803622D01*
X162392509Y-85844796D01*
X162425632Y-85894368D01*
X162488237Y-85936199D01*
X162542694Y-85988196D01*
X162598289Y-86009733D01*
X162647862Y-86042857D01*
X162721707Y-86057545D01*
X162791919Y-86084746D01*
X162851525Y-86083368D01*
X162910000Y-86095000D01*
X165925000Y-86095000D01*
X165925000Y-92425000D01*
X165925000Y-92425000D01*
G37*
X165925000Y-92425000D02*
X165620000Y-92425000D01*
X165620000Y-91056309D01*
X165620000Y-90465750D01*
X165461250Y-90307000D01*
X164487000Y-90307000D01*
X164487000Y-91406250D01*
X164645750Y-91565000D01*
X164858691Y-91565000D01*
X165111310Y-91565000D01*
X165344699Y-91468327D01*
X165523327Y-91289698D01*
X165620000Y-91056309D01*
X165620000Y-92425000D01*
X162612878Y-92425000D01*
X162722663Y-92379638D01*
X163028026Y-92074807D01*
X163193491Y-91676323D01*
X163193834Y-91282845D01*
X163196673Y-91289698D01*
X163375301Y-91468327D01*
X163608690Y-91565000D01*
X163861309Y-91565000D01*
X164074250Y-91565000D01*
X164233000Y-91406250D01*
X164233000Y-90307000D01*
X163258750Y-90307000D01*
X163100000Y-90465750D01*
X163100000Y-91017672D01*
X163029098Y-90846077D01*
X162724267Y-90540714D01*
X162325783Y-90375249D01*
X161894310Y-90374872D01*
X161495537Y-90539642D01*
X161214800Y-90819889D01*
X160986756Y-90725197D01*
X160535225Y-90724803D01*
X160395000Y-90782742D01*
X160395000Y-90732998D01*
X160236252Y-90732998D01*
X160395000Y-90574250D01*
X160395000Y-90361309D01*
X160395000Y-90108690D01*
X160298327Y-89875301D01*
X160119698Y-89696673D01*
X159886309Y-89600000D01*
X159295750Y-89600000D01*
X159137000Y-89758750D01*
X159137000Y-90733000D01*
X159157000Y-90733000D01*
X159157000Y-90987000D01*
X159137000Y-90987000D01*
X159137000Y-91007000D01*
X158883000Y-91007000D01*
X158883000Y-90987000D01*
X158863000Y-90987000D01*
X158863000Y-90733000D01*
X158883000Y-90733000D01*
X158883000Y-89758750D01*
X158724250Y-89600000D01*
X158133691Y-89600000D01*
X157900302Y-89696673D01*
X157758823Y-89838150D01*
X157720673Y-89780073D01*
X157509640Y-89637623D01*
X157260000Y-89587560D01*
X155760000Y-89587560D01*
X155517877Y-89634537D01*
X155305073Y-89774327D01*
X155162623Y-89985360D01*
X155112560Y-90235000D01*
X155112560Y-91350000D01*
X154795750Y-91350000D01*
X154637000Y-91508750D01*
X154637000Y-92483000D01*
X154657000Y-92483000D01*
X154657000Y-92737000D01*
X154637000Y-92737000D01*
X154637000Y-92757000D01*
X154383000Y-92757000D01*
X154383000Y-92737000D01*
X154363000Y-92737000D01*
X154363000Y-92483000D01*
X154383000Y-92483000D01*
X154383000Y-91508750D01*
X154224250Y-91350000D01*
X154020000Y-91350000D01*
X154020000Y-91310000D01*
X154020000Y-91210000D01*
X153962148Y-90919161D01*
X153950025Y-90901017D01*
X153967466Y-90883607D01*
X154094855Y-90576821D01*
X154095145Y-90244637D01*
X153968292Y-89937628D01*
X153733607Y-89702534D01*
X153551873Y-89627071D01*
X153420010Y-89495208D01*
X153420010Y-88710000D01*
X153420010Y-85428018D01*
X153362158Y-85137179D01*
X153197411Y-84890617D01*
X152735996Y-84429202D01*
X152735996Y-78018600D01*
X154908900Y-78018600D01*
X155171038Y-77966457D01*
X155245000Y-77917037D01*
X155245000Y-78787702D01*
X155075073Y-78899327D01*
X154932623Y-79110360D01*
X154882560Y-79360000D01*
X154882560Y-80860000D01*
X154929537Y-81102123D01*
X155069327Y-81314927D01*
X155280360Y-81457377D01*
X155289530Y-81459216D01*
X155287877Y-81459537D01*
X155075073Y-81599327D01*
X154932623Y-81810360D01*
X154882560Y-82060000D01*
X154882560Y-83560000D01*
X154929537Y-83802123D01*
X155069327Y-84014927D01*
X155280360Y-84157377D01*
X155530000Y-84207440D01*
X155625150Y-84207440D01*
X156088219Y-84670509D01*
X155859629Y-84715979D01*
X155137787Y-85198298D01*
X154655468Y-85920140D01*
X154486100Y-86771611D01*
X154655468Y-87623082D01*
X155137787Y-88344924D01*
X155859629Y-88827243D01*
X156711100Y-88996611D01*
X157562571Y-88827243D01*
X158284413Y-88344924D01*
X158766732Y-87623082D01*
X158936100Y-86771611D01*
X158766732Y-85920140D01*
X158415844Y-85395000D01*
X159042710Y-85395000D01*
X159805000Y-86157290D01*
X159805000Y-87510000D01*
X159876173Y-87867809D01*
X160078855Y-88171145D01*
X160948855Y-89041145D01*
X161252191Y-89243827D01*
X161610000Y-89315000D01*
X163100000Y-89315000D01*
X163100000Y-89894250D01*
X163258750Y-90053000D01*
X164233000Y-90053000D01*
X164233000Y-90033000D01*
X164487000Y-90033000D01*
X164487000Y-90053000D01*
X165461250Y-90053000D01*
X165620000Y-89894250D01*
X165620000Y-89303691D01*
X165523327Y-89070302D01*
X165381849Y-88928823D01*
X165439927Y-88890673D01*
X165582377Y-88679640D01*
X165632440Y-88430000D01*
X165632440Y-86930000D01*
X165585463Y-86687877D01*
X165445673Y-86475073D01*
X165234640Y-86332623D01*
X164985000Y-86282560D01*
X163735000Y-86282560D01*
X163492877Y-86329537D01*
X163280073Y-86469327D01*
X163137623Y-86680360D01*
X163133695Y-86699942D01*
X163029098Y-86446797D01*
X162724267Y-86141434D01*
X162325783Y-85975969D01*
X161894310Y-85975592D01*
X161675000Y-86066209D01*
X161675000Y-85770000D01*
X161603827Y-85412191D01*
X161401145Y-85108855D01*
X160387290Y-84095000D01*
X162444714Y-84095000D01*
X162235254Y-85291919D01*
X162236631Y-85351525D01*
X162225000Y-85410000D01*
X162239689Y-85483848D01*
X162241429Y-85559122D01*
X162265511Y-85613663D01*
X162277143Y-85672138D01*
X162318972Y-85734740D01*
X162349387Y-85803622D01*
X162392509Y-85844796D01*
X162425632Y-85894368D01*
X162488237Y-85936199D01*
X162542694Y-85988196D01*
X162598289Y-86009733D01*
X162647862Y-86042857D01*
X162721707Y-86057545D01*
X162791919Y-86084746D01*
X162851525Y-86083368D01*
X162910000Y-86095000D01*
X165925000Y-86095000D01*
X165925000Y-92425000D01*
M02*
