G04 #@! TF.FileFunction,Soldermask,Top*
%FSLAX46Y46*%
G04 Gerber Fmt 4.6, Leading zero omitted, Abs format (unit mm)*
G04 Created by KiCad (PCBNEW (after 2015-mar-04 BZR unknown)-product) date 22/05/2015 04:17:12*
%MOMM*%
G01*
G04 APERTURE LIST*
%ADD10C,0.100000*%
%ADD11R,1.500000X1.250000*%
%ADD12R,2.301240X0.500380*%
%ADD13R,2.499360X1.998980*%
%ADD14C,0.899160*%
%ADD15R,2.032000X2.032000*%
%ADD16O,2.032000X2.032000*%
%ADD17R,1.500000X1.300000*%
%ADD18R,1.300000X1.500000*%
%ADD19R,0.900000X0.400000*%
%ADD20R,1.397000X1.397000*%
%ADD21C,1.397000*%
%ADD22R,1.727200X1.727200*%
%ADD23O,1.727200X1.727200*%
%ADD24R,2.032000X1.727200*%
%ADD25O,2.032000X1.727200*%
%ADD26R,0.650000X1.060000*%
%ADD27C,1.016000*%
%ADD28C,1.524000*%
%ADD29R,2.000000X2.000000*%
G04 APERTURE END LIST*
D10*
D11*
X134310000Y-92610000D03*
X136810000Y-92610000D03*
D12*
X159510680Y-90860200D03*
X159510680Y-87659800D03*
D13*
X159609740Y-93710080D03*
X159609740Y-84809920D03*
D14*
X162109100Y-91459640D03*
X162109100Y-87060360D03*
D15*
X151360000Y-100610000D03*
D16*
X151360000Y-103150000D03*
D15*
X154960000Y-103110000D03*
D16*
X154960000Y-100570000D03*
D17*
X140160000Y-59160000D03*
X137460000Y-59160000D03*
D18*
X135310000Y-69360000D03*
X135310000Y-72060000D03*
D17*
X149160000Y-59010000D03*
X151860000Y-59010000D03*
X151910000Y-92610000D03*
X154610000Y-92610000D03*
D19*
X154210000Y-97010000D03*
X154210000Y-96210000D03*
X154210000Y-97810000D03*
X154210000Y-95410000D03*
X152510000Y-97810000D03*
X152510000Y-97010000D03*
X152510000Y-96210000D03*
X152510000Y-95410000D03*
D20*
X135310000Y-61870000D03*
D21*
X135310000Y-64410000D03*
X135310000Y-66950000D03*
D22*
X139810000Y-103060000D03*
D23*
X139810000Y-100520000D03*
X142350000Y-103060000D03*
X142350000Y-100520000D03*
X144890000Y-103060000D03*
X144890000Y-100520000D03*
X147430000Y-103060000D03*
X147430000Y-100520000D03*
D11*
X143110000Y-79660000D03*
X140610000Y-79660000D03*
D24*
X159010000Y-64260000D03*
D25*
X159010000Y-66800000D03*
X159010000Y-69340000D03*
X159010000Y-71880000D03*
D26*
X155265000Y-62175000D03*
X156215000Y-62175000D03*
X157165000Y-62175000D03*
X157165000Y-59975000D03*
X155265000Y-59975000D03*
X134710000Y-90510000D03*
X135660000Y-90510000D03*
X136610000Y-90510000D03*
X136610000Y-88310000D03*
X134710000Y-88310000D03*
D24*
X135360000Y-95510000D03*
D25*
X135360000Y-98050000D03*
D27*
X135360000Y-100590000D03*
D28*
X138210000Y-68210000D03*
X138210000Y-70610000D03*
X138210000Y-73010000D03*
X145110000Y-61210000D03*
X147510000Y-61210000D03*
X149910000Y-61210000D03*
D29*
X150610000Y-83235000D03*
X146110000Y-83235000D03*
X150610000Y-79735000D03*
X146110000Y-79735000D03*
M02*
