M48
;DRILL file {kicad (after 2015-mar-04 BZR unknown)-product} date 22/05/2015 04:17:13
;FORMAT={-:-/ absolute / metric / decimal}
FMAT,2
METRIC,TZ
T1C0.300
T2C0.400
T3C0.500
T4C0.700
T5C0.762
T6C0.813
T7C0.899
T8C1.016
%
G90
G05
M71
T1
X135.71Y-71.66
X137.01Y-62.41
X140.16Y-60.51
X142.56Y-92.86
X144.01Y-93.21
X144.06Y-92.41
X145.66Y-74.91
X146.26Y-94.01
X146.56Y-91.16
X146.76Y-91.86
X147.01Y-92.61
X148.11Y-74.51
X148.96Y-74.51
X149.11Y-93.61
X149.11Y-95.61
X149.16Y-96.61
X149.185Y-69.335
X149.96Y-73.31
X150.11Y-75.21
X150.11Y-78.135
X150.76Y-77.61
X151.16Y-77.06
X151.31Y-75.76
X152.46Y-98.51
X153.26Y-90.41
X153.46Y-97.21
X153.96Y-96.11
X155.86Y-95.61
X157.06Y-98.41
T2
X133.26Y-86.81
X134.76Y-87.21
X136.81Y-78.06
X137.16Y-92.71
X137.81Y-89.36
X139.66Y-94.01
X141.71Y-74.885
X142.31Y-82.06
X142.31Y-85.435
X146.385Y-70.11
X149.42Y-66.29
X154.335Y-66.96
X154.72Y-61.72
X156.14Y-75.31
X157.89Y-59.48
X157.96Y-62.05
X157.96Y-76.81
T3
X139.21Y-90.16
X154.61Y-92.61
T4
X159.56Y-88.76
X160.76Y-91.86
T5
X138.21Y-68.21
X138.21Y-70.61
X138.21Y-73.01
X145.11Y-61.21
X147.51Y-61.21
X149.91Y-61.21
T6
X135.31Y-61.87
X135.31Y-64.41
X135.31Y-66.95
T7
X162.109Y-87.06
X162.109Y-91.46
T8
X135.36Y-95.51
X135.36Y-98.05
X135.36Y-100.59
X139.81Y-100.52
X139.81Y-103.06
X142.35Y-100.52
X142.35Y-103.06
X144.89Y-100.52
X144.89Y-103.06
X147.43Y-100.52
X147.43Y-103.06
X151.36Y-100.61
X151.36Y-103.15
X154.96Y-100.57
X154.96Y-103.11
X159.01Y-64.26
X159.01Y-66.8
X159.01Y-69.34
X159.01Y-71.88
T0
M30
