G04 #@! TF.FileFunction,Profile,NP*
%FSLAX46Y46*%
G04 Gerber Fmt 4.6, Leading zero omitted, Abs format (unit mm)*
G04 Created by KiCad (PCBNEW (after 2015-mar-04 BZR unknown)-product) date 22/05/2015 04:17:12*
%MOMM*%
G01*
G04 APERTURE LIST*
%ADD10C,0.100000*%
%ADD11C,0.254000*%
G04 APERTURE END LIST*
D10*
X153960000Y-76010000D02*
X153960000Y-75330000D01*
X152010000Y-76010000D02*
X153960000Y-76010000D01*
X152010000Y-77330000D02*
X152010000Y-76010000D01*
X154910000Y-77330000D02*
X152010000Y-77330000D01*
X154920000Y-75330000D02*
X154910000Y-77330000D01*
X153960000Y-75330000D02*
X154920000Y-75330000D01*
X153960000Y-76010000D02*
X153960000Y-75330000D01*
X138810000Y-105130000D02*
X156210000Y-105100000D01*
X134180000Y-100210000D02*
X138810000Y-105130000D01*
X131760000Y-83410000D02*
X134180000Y-100210000D01*
X137280000Y-83380000D02*
X131760000Y-83410000D01*
X137280000Y-79310000D02*
X137280000Y-83380000D01*
X134210000Y-79310000D02*
X137280000Y-79310000D01*
X134210000Y-60520000D02*
X134210000Y-79310000D01*
X136130000Y-60510000D02*
X134210000Y-60520000D01*
X136140000Y-58030000D02*
X136130000Y-60510000D01*
X141440000Y-58040000D02*
X136140000Y-58030000D01*
X141450000Y-60530000D02*
X141440000Y-58040000D01*
X143330000Y-60530000D02*
X141450000Y-60530000D01*
X143330000Y-58040000D02*
X143330000Y-60530000D01*
X158710000Y-58040000D02*
X143330000Y-58040000D01*
X158740000Y-60460000D02*
X158710000Y-58040000D01*
X160810000Y-60460000D02*
X158740000Y-60460000D01*
X160810000Y-79310000D02*
X160810000Y-60460000D01*
X157710000Y-79310000D02*
X160810000Y-79310000D01*
X157710000Y-83410000D02*
X157710000Y-79310000D01*
X163260000Y-83410000D02*
X157710000Y-83410000D01*
X162910000Y-85410000D02*
X163260000Y-83410000D01*
X166610000Y-85410000D02*
X162910000Y-85410000D01*
X166610000Y-93110000D02*
X166610000Y-85410000D01*
X161810000Y-93110000D02*
X166610000Y-93110000D01*
X160810000Y-100210000D02*
X161810000Y-93110000D01*
X156210000Y-105100000D02*
X160810000Y-100210000D01*
X158251100Y-86771611D02*
G75*
G03X158251100Y-86771611I-1540000J0D01*
G01*
X150095856Y-88280191D02*
G75*
G03X150095856Y-88280191I-2443409J0D01*
G01*
X139931100Y-86771611D02*
G75*
G03X139931100Y-86771611I-1540000J0D01*
G01*
X148358900Y-65233600D02*
G75*
G03X148358900Y-65233600I-850000J0D01*
G01*
X153958900Y-76013600D02*
X152008900Y-76013600D01*
X153958900Y-76013600D02*
X153958900Y-75333600D01*
X153958900Y-75333600D02*
X154908900Y-75333600D01*
X154908900Y-77333600D02*
X154908900Y-75333600D01*
X152008900Y-77333600D02*
X154908900Y-77333600D01*
X152008900Y-76013600D02*
X152008900Y-77333600D01*
X140108900Y-63833600D02*
X140108900Y-65833600D01*
X143008900Y-63833600D02*
X140108900Y-63833600D01*
X143008900Y-65153600D02*
X143008900Y-63833600D01*
X141058900Y-65153600D02*
X143008900Y-65153600D01*
X141058900Y-65153600D02*
X141058900Y-65833600D01*
X141058900Y-65833600D02*
X140108900Y-65833600D01*
X153958900Y-65153600D02*
X152008900Y-65153600D01*
X152008900Y-65153600D02*
X152008900Y-63833600D01*
X152008900Y-63833600D02*
X154908900Y-63833600D01*
X154908900Y-63833600D02*
X154908900Y-65833600D01*
X153958900Y-65833600D02*
X154908900Y-65833600D01*
X153958900Y-65153600D02*
X153958900Y-65833600D01*
X140108900Y-77333600D02*
X140108900Y-75333600D01*
X141058900Y-75333600D02*
X140108900Y-75333600D01*
X141058900Y-76013600D02*
X141058900Y-75333600D01*
X141058900Y-76013600D02*
X143008900Y-76013600D01*
X143008900Y-76013600D02*
X143008900Y-77333600D01*
X143008900Y-77333600D02*
X140108900Y-77333600D01*
D11*
G36*
X154792367Y-75465664D02*
X154783634Y-77203436D01*
X152146038Y-77212563D01*
X152137956Y-76145694D01*
X153960651Y-76127000D01*
X154097000Y-76127000D01*
X154097000Y-75458344D01*
X154792367Y-75465664D01*
X154792367Y-75465664D01*
G37*
X154792367Y-75465664D02*
X154783634Y-77203436D01*
X152146038Y-77212563D01*
X152137956Y-76145694D01*
X153960651Y-76127000D01*
X154097000Y-76127000D01*
X154097000Y-75458344D01*
X154792367Y-75465664D01*
G36*
X142883000Y-77193437D02*
X140236361Y-77202564D01*
X140227596Y-75458258D01*
X140923000Y-75465656D01*
X140923000Y-76136354D01*
X142883000Y-76146354D01*
X142883000Y-77193437D01*
X142883000Y-77193437D01*
G37*
X142883000Y-77193437D02*
X140236361Y-77202564D01*
X140227596Y-75458258D01*
X140923000Y-75465656D01*
X140923000Y-76136354D01*
X142883000Y-76146354D01*
X142883000Y-77193437D01*
G36*
X142873000Y-65014296D02*
X140923000Y-65034296D01*
X140923000Y-65701642D01*
X140236370Y-65694337D01*
X140227640Y-63957000D01*
X142873000Y-63957000D01*
X142873000Y-65014296D01*
X142873000Y-65014296D01*
G37*
X142873000Y-65014296D02*
X140923000Y-65034296D01*
X140923000Y-65701642D01*
X140236370Y-65694337D01*
X140227640Y-63957000D01*
X142873000Y-63957000D01*
X142873000Y-65014296D01*
G36*
X154783000Y-65684344D02*
X154095126Y-65691662D01*
X154085146Y-65013000D01*
X152128687Y-65013000D01*
X152145038Y-63966568D01*
X154783000Y-63957440D01*
X154783000Y-65684344D01*
X154783000Y-65684344D01*
G37*
X154783000Y-65684344D02*
X154095126Y-65691662D01*
X154085146Y-65013000D01*
X152128687Y-65013000D01*
X152145038Y-63966568D01*
X154783000Y-63957440D01*
X154783000Y-65684344D01*
G36*
X148231148Y-65210933D02*
X148214631Y-65367843D01*
X148162319Y-65577091D01*
X148057691Y-65730009D01*
X147907984Y-65838130D01*
X147670283Y-65934972D01*
X147453965Y-65952277D01*
X147279709Y-65927383D01*
X147122379Y-65844578D01*
X146985215Y-65724559D01*
X146861564Y-65547916D01*
X146788090Y-65376476D01*
X146796563Y-65173133D01*
X146823952Y-65008801D01*
X146875865Y-64835755D01*
X146944581Y-64736500D01*
X147035471Y-64660758D01*
X147238138Y-64581453D01*
X147478596Y-64523743D01*
X147530939Y-64512112D01*
X147692349Y-64533165D01*
X147863803Y-64618892D01*
X148053257Y-64756677D01*
X148151976Y-64929435D01*
X148231148Y-65210933D01*
X148231148Y-65210933D01*
G37*
X148231148Y-65210933D02*
X148214631Y-65367843D01*
X148162319Y-65577091D01*
X148057691Y-65730009D01*
X147907984Y-65838130D01*
X147670283Y-65934972D01*
X147453965Y-65952277D01*
X147279709Y-65927383D01*
X147122379Y-65844578D01*
X146985215Y-65724559D01*
X146861564Y-65547916D01*
X146788090Y-65376476D01*
X146796563Y-65173133D01*
X146823952Y-65008801D01*
X146875865Y-64835755D01*
X146944581Y-64736500D01*
X147035471Y-64660758D01*
X147238138Y-64581453D01*
X147478596Y-64523743D01*
X147530939Y-64512112D01*
X147692349Y-64533165D01*
X147863803Y-64618892D01*
X148053257Y-64756677D01*
X148151976Y-64929435D01*
X148231148Y-65210933D01*
G36*
X139782454Y-86836460D02*
X139755123Y-87055107D01*
X139681700Y-87321265D01*
X139602671Y-87461762D01*
X139460451Y-87660870D01*
X139320628Y-87819336D01*
X139200641Y-87922182D01*
X138933334Y-88046289D01*
X138801237Y-88116740D01*
X138566296Y-88144933D01*
X138357615Y-88199372D01*
X138209947Y-88166557D01*
X138020873Y-88116800D01*
X137823681Y-88069850D01*
X137681159Y-87998589D01*
X137550329Y-87920091D01*
X137395293Y-87755935D01*
X137267168Y-87600355D01*
X137182208Y-87430435D01*
X137098243Y-87281165D01*
X137050196Y-87108193D01*
X136977000Y-86934353D01*
X136977000Y-86752441D01*
X136986299Y-86510673D01*
X137030885Y-86359079D01*
X137086092Y-86202659D01*
X137169619Y-86054167D01*
X137297030Y-85844850D01*
X137484514Y-85693077D01*
X137614163Y-85609731D01*
X137772904Y-85525692D01*
X137940547Y-85460497D01*
X138206548Y-85384497D01*
X138329026Y-85367000D01*
X138415626Y-85367000D01*
X138683621Y-85385482D01*
X138909919Y-85466950D01*
X139151170Y-85587575D01*
X139378957Y-85769805D01*
X139504027Y-85930610D01*
X139625492Y-86145509D01*
X139709003Y-86349648D01*
X139764072Y-86569924D01*
X139782454Y-86836460D01*
X139782454Y-86836460D01*
G37*
X139782454Y-86836460D02*
X139755123Y-87055107D01*
X139681700Y-87321265D01*
X139602671Y-87461762D01*
X139460451Y-87660870D01*
X139320628Y-87819336D01*
X139200641Y-87922182D01*
X138933334Y-88046289D01*
X138801237Y-88116740D01*
X138566296Y-88144933D01*
X138357615Y-88199372D01*
X138209947Y-88166557D01*
X138020873Y-88116800D01*
X137823681Y-88069850D01*
X137681159Y-87998589D01*
X137550329Y-87920091D01*
X137395293Y-87755935D01*
X137267168Y-87600355D01*
X137182208Y-87430435D01*
X137098243Y-87281165D01*
X137050196Y-87108193D01*
X136977000Y-86934353D01*
X136977000Y-86752441D01*
X136986299Y-86510673D01*
X137030885Y-86359079D01*
X137086092Y-86202659D01*
X137169619Y-86054167D01*
X137297030Y-85844850D01*
X137484514Y-85693077D01*
X137614163Y-85609731D01*
X137772904Y-85525692D01*
X137940547Y-85460497D01*
X138206548Y-85384497D01*
X138329026Y-85367000D01*
X138415626Y-85367000D01*
X138683621Y-85385482D01*
X138909919Y-85466950D01*
X139151170Y-85587575D01*
X139378957Y-85769805D01*
X139504027Y-85930610D01*
X139625492Y-86145509D01*
X139709003Y-86349648D01*
X139764072Y-86569924D01*
X139782454Y-86836460D01*
G36*
X158102454Y-86826460D02*
X158075123Y-87045107D01*
X158001700Y-87311265D01*
X157922671Y-87451762D01*
X157780451Y-87650870D01*
X157640628Y-87809336D01*
X157520641Y-87912182D01*
X157253334Y-88036289D01*
X157121237Y-88106740D01*
X156886296Y-88134933D01*
X156677615Y-88189372D01*
X156529947Y-88156557D01*
X156340873Y-88106800D01*
X156143681Y-88059850D01*
X156001159Y-87988589D01*
X155870329Y-87910091D01*
X155715293Y-87745935D01*
X155587168Y-87590355D01*
X155502208Y-87420435D01*
X155418243Y-87271165D01*
X155370196Y-87098193D01*
X155297000Y-86924353D01*
X155297000Y-86742441D01*
X155306299Y-86500673D01*
X155350885Y-86349079D01*
X155406092Y-86192659D01*
X155489619Y-86044167D01*
X155617030Y-85834850D01*
X155804514Y-85683077D01*
X155934163Y-85599731D01*
X156092904Y-85515692D01*
X156260547Y-85450497D01*
X156526548Y-85374497D01*
X156649026Y-85357000D01*
X156735626Y-85357000D01*
X157003621Y-85375482D01*
X157229919Y-85456950D01*
X157471170Y-85577575D01*
X157698957Y-85759805D01*
X157824027Y-85920610D01*
X157945492Y-86135509D01*
X158029003Y-86339648D01*
X158084072Y-86559924D01*
X158102454Y-86826460D01*
X158102454Y-86826460D01*
G37*
X158102454Y-86826460D02*
X158075123Y-87045107D01*
X158001700Y-87311265D01*
X157922671Y-87451762D01*
X157780451Y-87650870D01*
X157640628Y-87809336D01*
X157520641Y-87912182D01*
X157253334Y-88036289D01*
X157121237Y-88106740D01*
X156886296Y-88134933D01*
X156677615Y-88189372D01*
X156529947Y-88156557D01*
X156340873Y-88106800D01*
X156143681Y-88059850D01*
X156001159Y-87988589D01*
X155870329Y-87910091D01*
X155715293Y-87745935D01*
X155587168Y-87590355D01*
X155502208Y-87420435D01*
X155418243Y-87271165D01*
X155370196Y-87098193D01*
X155297000Y-86924353D01*
X155297000Y-86742441D01*
X155306299Y-86500673D01*
X155350885Y-86349079D01*
X155406092Y-86192659D01*
X155489619Y-86044167D01*
X155617030Y-85834850D01*
X155804514Y-85683077D01*
X155934163Y-85599731D01*
X156092904Y-85515692D01*
X156260547Y-85450497D01*
X156526548Y-85374497D01*
X156649026Y-85357000D01*
X156735626Y-85357000D01*
X157003621Y-85375482D01*
X157229919Y-85456950D01*
X157471170Y-85577575D01*
X157698957Y-85759805D01*
X157824027Y-85920610D01*
X157945492Y-86135509D01*
X158029003Y-86339648D01*
X158084072Y-86559924D01*
X158102454Y-86826460D01*
G36*
X149982487Y-88445005D02*
X149945798Y-88710996D01*
X149851827Y-88992911D01*
X149716067Y-89283825D01*
X149590505Y-89525290D01*
X149458231Y-89723701D01*
X149260020Y-89959666D01*
X149084271Y-90106124D01*
X148968379Y-90222016D01*
X148672516Y-90342210D01*
X148376933Y-90460444D01*
X148112681Y-90545382D01*
X147804720Y-90582710D01*
X147302306Y-90563751D01*
X147003982Y-90467518D01*
X146712411Y-90399484D01*
X146485363Y-90290501D01*
X146273770Y-90136616D01*
X146087191Y-90006011D01*
X146006399Y-89907264D01*
X145830561Y-89711888D01*
X145660548Y-89456869D01*
X145526491Y-89179179D01*
X145442486Y-88964502D01*
X145385179Y-88668412D01*
X145336546Y-88347434D01*
X145327470Y-88156853D01*
X145374386Y-87856593D01*
X145430312Y-87651531D01*
X145510014Y-87462239D01*
X145550562Y-87320320D01*
X145594969Y-87204861D01*
X145732750Y-86966041D01*
X145866973Y-86822230D01*
X145957037Y-86705147D01*
X146061337Y-86638775D01*
X146248679Y-86441572D01*
X146412345Y-86350646D01*
X146546704Y-86273870D01*
X146686308Y-86214040D01*
X146839847Y-86127674D01*
X147190613Y-86023392D01*
X147425189Y-85976477D01*
X147652645Y-85967000D01*
X147658413Y-85967000D01*
X148035750Y-85976433D01*
X148470023Y-86136926D01*
X148864944Y-86329570D01*
X149223391Y-86584256D01*
X149429951Y-86828372D01*
X149633281Y-87109161D01*
X149775705Y-87356030D01*
X149858367Y-87558092D01*
X149895341Y-87724477D01*
X149963631Y-88124460D01*
X149982487Y-88445005D01*
X149982487Y-88445005D01*
G37*
X149982487Y-88445005D02*
X149945798Y-88710996D01*
X149851827Y-88992911D01*
X149716067Y-89283825D01*
X149590505Y-89525290D01*
X149458231Y-89723701D01*
X149260020Y-89959666D01*
X149084271Y-90106124D01*
X148968379Y-90222016D01*
X148672516Y-90342210D01*
X148376933Y-90460444D01*
X148112681Y-90545382D01*
X147804720Y-90582710D01*
X147302306Y-90563751D01*
X147003982Y-90467518D01*
X146712411Y-90399484D01*
X146485363Y-90290501D01*
X146273770Y-90136616D01*
X146087191Y-90006011D01*
X146006399Y-89907264D01*
X145830561Y-89711888D01*
X145660548Y-89456869D01*
X145526491Y-89179179D01*
X145442486Y-88964502D01*
X145385179Y-88668412D01*
X145336546Y-88347434D01*
X145327470Y-88156853D01*
X145374386Y-87856593D01*
X145430312Y-87651531D01*
X145510014Y-87462239D01*
X145550562Y-87320320D01*
X145594969Y-87204861D01*
X145732750Y-86966041D01*
X145866973Y-86822230D01*
X145957037Y-86705147D01*
X146061337Y-86638775D01*
X146248679Y-86441572D01*
X146412345Y-86350646D01*
X146546704Y-86273870D01*
X146686308Y-86214040D01*
X146839847Y-86127674D01*
X147190613Y-86023392D01*
X147425189Y-85976477D01*
X147652645Y-85967000D01*
X147658413Y-85967000D01*
X148035750Y-85976433D01*
X148470023Y-86136926D01*
X148864944Y-86329570D01*
X149223391Y-86584256D01*
X149429951Y-86828372D01*
X149633281Y-87109161D01*
X149775705Y-87356030D01*
X149858367Y-87558092D01*
X149895341Y-87724477D01*
X149963631Y-88124460D01*
X149982487Y-88445005D01*
M02*
