G04 #@! TF.FileFunction,Soldermask,Bot*
%FSLAX46Y46*%
G04 Gerber Fmt 4.6, Leading zero omitted, Abs format (unit mm)*
G04 Created by KiCad (PCBNEW (after 2015-mar-04 BZR unknown)-product) date 22/05/2015 04:17:12*
%MOMM*%
G01*
G04 APERTURE LIST*
%ADD10C,0.100000*%
%ADD11R,1.500000X1.250000*%
%ADD12C,0.899160*%
%ADD13R,2.032000X2.032000*%
%ADD14O,2.032000X2.032000*%
%ADD15R,1.500000X1.300000*%
%ADD16R,1.397000X1.397000*%
%ADD17C,1.397000*%
%ADD18R,1.250000X1.500000*%
%ADD19R,1.727200X1.727200*%
%ADD20O,1.727200X1.727200*%
%ADD21R,2.032000X1.727200*%
%ADD22O,2.032000X1.727200*%
%ADD23R,1.300000X1.500000*%
%ADD24R,1.400000X0.300000*%
%ADD25C,1.016000*%
%ADD26R,1.549400X1.800860*%
%ADD27R,1.200000X0.600000*%
%ADD28R,0.600000X1.200000*%
%ADD29C,1.524000*%
G04 APERTURE END LIST*
D10*
D11*
X156510000Y-90860000D03*
X159010000Y-90860000D03*
D12*
X162109100Y-91459640D03*
X162109100Y-87060360D03*
D13*
X151360000Y-100610000D03*
D14*
X151360000Y-103150000D03*
D13*
X154960000Y-103110000D03*
D14*
X154960000Y-100570000D03*
D15*
X140160000Y-59160000D03*
X137460000Y-59160000D03*
D16*
X135310000Y-61870000D03*
D17*
X135310000Y-64410000D03*
X135310000Y-66950000D03*
D18*
X138060000Y-90060000D03*
X138060000Y-92560000D03*
D11*
X152010000Y-92610000D03*
X154510000Y-92610000D03*
D19*
X139810000Y-103060000D03*
D20*
X139810000Y-100520000D03*
X142350000Y-103060000D03*
X142350000Y-100520000D03*
X144890000Y-103060000D03*
X144890000Y-100520000D03*
X147430000Y-103060000D03*
X147430000Y-100520000D03*
D11*
X159010000Y-92960000D03*
X156510000Y-92960000D03*
D18*
X159660000Y-74260000D03*
X159660000Y-76760000D03*
X153810000Y-67035000D03*
X153810000Y-69535000D03*
D11*
X135670000Y-74900000D03*
X138170000Y-74900000D03*
D21*
X159010000Y-64260000D03*
D22*
X159010000Y-66800000D03*
X159010000Y-69340000D03*
X159010000Y-71880000D03*
D23*
X155365000Y-59225000D03*
X155365000Y-61925000D03*
X157115000Y-59225000D03*
X157115000Y-61925000D03*
D24*
X154860000Y-94610000D03*
X154860000Y-95110000D03*
X154860000Y-95610000D03*
X154860000Y-96110000D03*
X154860000Y-96610000D03*
X150460000Y-96610000D03*
X150460000Y-96110000D03*
X150460000Y-95610000D03*
X150460000Y-95110000D03*
X150460000Y-94610000D03*
D21*
X135360000Y-95510000D03*
D22*
X135360000Y-98050000D03*
D25*
X135360000Y-100590000D03*
D26*
X136036020Y-89210000D03*
X133683980Y-89210000D03*
D27*
X143160000Y-74910000D03*
X143160000Y-74110000D03*
X143160000Y-73310000D03*
X143160000Y-72510000D03*
X143160000Y-71710000D03*
X143160000Y-70910000D03*
X143160000Y-70110000D03*
X143160000Y-69310000D03*
D28*
X144610000Y-67860000D03*
X145410000Y-67860000D03*
X146210000Y-67860000D03*
X147010000Y-67860000D03*
X147810000Y-67860000D03*
X148610000Y-67860000D03*
X149410000Y-67860000D03*
X150210000Y-67860000D03*
D27*
X151660000Y-69310000D03*
X151660000Y-70110000D03*
X151660000Y-70910000D03*
X151660000Y-71710000D03*
X151660000Y-72510000D03*
X151660000Y-73310000D03*
X151660000Y-74110000D03*
X151660000Y-74910000D03*
D28*
X150210000Y-76360000D03*
X149410000Y-76360000D03*
X148610000Y-76360000D03*
X147810000Y-76360000D03*
X147010000Y-76360000D03*
X146210000Y-76360000D03*
X145410000Y-76360000D03*
X144610000Y-76360000D03*
D29*
X138210000Y-68210000D03*
X138210000Y-70610000D03*
X138210000Y-73010000D03*
X145110000Y-61210000D03*
X147510000Y-61210000D03*
X149910000Y-61210000D03*
D18*
X164360000Y-90180000D03*
X164360000Y-87680000D03*
D23*
X156180000Y-80110000D03*
X156180000Y-82810000D03*
M02*
