G04 #@! TF.FileFunction,Legend,Top*
%FSLAX46Y46*%
G04 Gerber Fmt 4.6, Leading zero omitted, Abs format (unit mm)*
G04 Created by KiCad (PCBNEW (after 2015-mar-04 BZR unknown)-product) date 22/05/2015 04:17:12*
%MOMM*%
G01*
G04 APERTURE LIST*
%ADD10C,0.100000*%
%ADD11C,0.300000*%
%ADD12C,0.150000*%
%ADD13R,1.500000X1.250000*%
%ADD14R,2.301240X0.500380*%
%ADD15R,2.499360X1.998980*%
%ADD16C,0.899160*%
%ADD17R,2.032000X2.032000*%
%ADD18O,2.032000X2.032000*%
%ADD19R,1.500000X1.300000*%
%ADD20R,1.300000X1.500000*%
%ADD21R,0.900000X0.400000*%
%ADD22R,1.397000X1.397000*%
%ADD23C,1.397000*%
%ADD24R,1.727200X1.727200*%
%ADD25O,1.727200X1.727200*%
%ADD26R,2.032000X1.727200*%
%ADD27O,2.032000X1.727200*%
%ADD28R,0.650000X1.060000*%
%ADD29C,1.016000*%
%ADD30C,1.524000*%
%ADD31R,2.000000X2.000000*%
G04 APERTURE END LIST*
D10*
D11*
X147020001Y-62458571D02*
X148020001Y-63958571D01*
X148020001Y-62458571D02*
X147020001Y-63958571D01*
X139980000Y-70644286D02*
X139980000Y-71358571D01*
X139480000Y-69858571D02*
X139980000Y-70644286D01*
X140480000Y-69858571D01*
X156708572Y-100607143D02*
X157851429Y-100607143D01*
X156678572Y-102957143D02*
X157821429Y-102957143D01*
X157250000Y-103528571D02*
X157250000Y-102385714D01*
X139111429Y-84188571D02*
X138611429Y-83474286D01*
X138254286Y-84188571D02*
X138254286Y-82688571D01*
X138825714Y-82688571D01*
X138968572Y-82760000D01*
X139040000Y-82831429D01*
X139111429Y-82974286D01*
X139111429Y-83188571D01*
X139040000Y-83331429D01*
X138968572Y-83402857D01*
X138825714Y-83474286D01*
X138254286Y-83474286D01*
X139754286Y-83402857D02*
X140254286Y-83402857D01*
X140468572Y-84188571D02*
X139754286Y-84188571D01*
X139754286Y-82688571D01*
X140468572Y-82688571D01*
X141040000Y-84117143D02*
X141254286Y-84188571D01*
X141611429Y-84188571D01*
X141754286Y-84117143D01*
X141825715Y-84045714D01*
X141897143Y-83902857D01*
X141897143Y-83760000D01*
X141825715Y-83617143D01*
X141754286Y-83545714D01*
X141611429Y-83474286D01*
X141325715Y-83402857D01*
X141182857Y-83331429D01*
X141111429Y-83260000D01*
X141040000Y-83117143D01*
X141040000Y-82974286D01*
X141111429Y-82831429D01*
X141182857Y-82760000D01*
X141325715Y-82688571D01*
X141682857Y-82688571D01*
X141897143Y-82760000D01*
X142540000Y-83402857D02*
X143040000Y-83402857D01*
X143254286Y-84188571D02*
X142540000Y-84188571D01*
X142540000Y-82688571D01*
X143254286Y-82688571D01*
X143682857Y-82688571D02*
X144540000Y-82688571D01*
X144111429Y-84188571D02*
X144111429Y-82688571D01*
X155980001Y-65068571D02*
X155480001Y-64354286D01*
X155122858Y-65068571D02*
X155122858Y-63568571D01*
X155694286Y-63568571D01*
X155837144Y-63640000D01*
X155908572Y-63711429D01*
X155980001Y-63854286D01*
X155980001Y-64068571D01*
X155908572Y-64211429D01*
X155837144Y-64282857D01*
X155694286Y-64354286D01*
X155122858Y-64354286D01*
X156551429Y-64997143D02*
X156765715Y-65068571D01*
X157122858Y-65068571D01*
X157265715Y-64997143D01*
X157337144Y-64925714D01*
X157408572Y-64782857D01*
X157408572Y-64640000D01*
X157337144Y-64497143D01*
X157265715Y-64425714D01*
X157122858Y-64354286D01*
X156837144Y-64282857D01*
X156694286Y-64211429D01*
X156622858Y-64140000D01*
X156551429Y-63997143D01*
X156551429Y-63854286D01*
X156622858Y-63711429D01*
X156694286Y-63640000D01*
X156837144Y-63568571D01*
X157194286Y-63568571D01*
X157408572Y-63640000D01*
X156057143Y-72425714D02*
X155985714Y-72497143D01*
X155771428Y-72568571D01*
X155628571Y-72568571D01*
X155414286Y-72497143D01*
X155271428Y-72354286D01*
X155200000Y-72211429D01*
X155128571Y-71925714D01*
X155128571Y-71711429D01*
X155200000Y-71425714D01*
X155271428Y-71282857D01*
X155414286Y-71140000D01*
X155628571Y-71068571D01*
X155771428Y-71068571D01*
X155985714Y-71140000D01*
X156057143Y-71211429D01*
X157414286Y-72568571D02*
X156700000Y-72568571D01*
X156700000Y-71068571D01*
X155707143Y-68720000D02*
X155564286Y-68648571D01*
X155350000Y-68648571D01*
X155135715Y-68720000D01*
X154992857Y-68862857D01*
X154921429Y-69005714D01*
X154850000Y-69291429D01*
X154850000Y-69505714D01*
X154921429Y-69791429D01*
X154992857Y-69934286D01*
X155135715Y-70077143D01*
X155350000Y-70148571D01*
X155492857Y-70148571D01*
X155707143Y-70077143D01*
X155778572Y-70005714D01*
X155778572Y-69505714D01*
X155492857Y-69505714D01*
X156421429Y-70148571D02*
X156421429Y-68648571D01*
X157278572Y-70148571D01*
X157278572Y-68648571D01*
X154964286Y-67588571D02*
X154964286Y-66088571D01*
X155321429Y-66088571D01*
X155535714Y-66160000D01*
X155678572Y-66302857D01*
X155750000Y-66445714D01*
X155821429Y-66731429D01*
X155821429Y-66945714D01*
X155750000Y-67231429D01*
X155678572Y-67374286D01*
X155535714Y-67517143D01*
X155321429Y-67588571D01*
X154964286Y-67588571D01*
X156392857Y-67160000D02*
X157107143Y-67160000D01*
X156250000Y-67588571D02*
X156750000Y-66088571D01*
X157250000Y-67588571D01*
X137010001Y-63658571D02*
X138010001Y-63658571D01*
X137010001Y-65158571D01*
X138010001Y-65158571D01*
X137894286Y-62395714D02*
X137822857Y-62467143D01*
X137608571Y-62538571D01*
X137465714Y-62538571D01*
X137251429Y-62467143D01*
X137108571Y-62324286D01*
X137037143Y-62181429D01*
X136965714Y-61895714D01*
X136965714Y-61681429D01*
X137037143Y-61395714D01*
X137108571Y-61252857D01*
X137251429Y-61110000D01*
X137465714Y-61038571D01*
X137608571Y-61038571D01*
X137822857Y-61110000D01*
X137894286Y-61181429D01*
X140852858Y-90788571D02*
X141210001Y-92288571D01*
X141495715Y-91217143D01*
X141781429Y-92288571D01*
X142138572Y-90788571D01*
X142710001Y-92288571D02*
X142710001Y-91288571D01*
X142710001Y-90788571D02*
X142638572Y-90860000D01*
X142710001Y-90931429D01*
X142781429Y-90860000D01*
X142710001Y-90788571D01*
X142710001Y-90931429D01*
X143424287Y-92288571D02*
X143424287Y-91288571D01*
X143424287Y-91574286D02*
X143495715Y-91431429D01*
X143567144Y-91360000D01*
X143710001Y-91288571D01*
X143852858Y-91288571D01*
X144924286Y-92217143D02*
X144781429Y-92288571D01*
X144495715Y-92288571D01*
X144352858Y-92217143D01*
X144281429Y-92074286D01*
X144281429Y-91502857D01*
X144352858Y-91360000D01*
X144495715Y-91288571D01*
X144781429Y-91288571D01*
X144924286Y-91360000D01*
X144995715Y-91502857D01*
X144995715Y-91645714D01*
X144281429Y-91788571D01*
X145852858Y-92288571D02*
X145710000Y-92217143D01*
X145638572Y-92074286D01*
X145638572Y-90788571D01*
X146995714Y-92217143D02*
X146852857Y-92288571D01*
X146567143Y-92288571D01*
X146424286Y-92217143D01*
X146352857Y-92074286D01*
X146352857Y-91502857D01*
X146424286Y-91360000D01*
X146567143Y-91288571D01*
X146852857Y-91288571D01*
X146995714Y-91360000D01*
X147067143Y-91502857D01*
X147067143Y-91645714D01*
X146352857Y-91788571D01*
X147638571Y-92217143D02*
X147781428Y-92288571D01*
X148067143Y-92288571D01*
X148210000Y-92217143D01*
X148281428Y-92074286D01*
X148281428Y-92002857D01*
X148210000Y-91860000D01*
X148067143Y-91788571D01*
X147852857Y-91788571D01*
X147710000Y-91717143D01*
X147638571Y-91574286D01*
X147638571Y-91502857D01*
X147710000Y-91360000D01*
X147852857Y-91288571D01*
X148067143Y-91288571D01*
X148210000Y-91360000D01*
X148852857Y-92217143D02*
X148995714Y-92288571D01*
X149281429Y-92288571D01*
X149424286Y-92217143D01*
X149495714Y-92074286D01*
X149495714Y-92002857D01*
X149424286Y-91860000D01*
X149281429Y-91788571D01*
X149067143Y-91788571D01*
X148924286Y-91717143D01*
X148852857Y-91574286D01*
X148852857Y-91502857D01*
X148924286Y-91360000D01*
X149067143Y-91288571D01*
X149281429Y-91288571D01*
X149424286Y-91360000D01*
X140174286Y-94688571D02*
X140174286Y-93188571D01*
X141031429Y-94688571D01*
X141031429Y-93188571D01*
X142388572Y-93688571D02*
X142388572Y-94688571D01*
X141745715Y-93688571D02*
X141745715Y-94474286D01*
X141817143Y-94617143D01*
X141960001Y-94688571D01*
X142174286Y-94688571D01*
X142317143Y-94617143D01*
X142388572Y-94545714D01*
X143102858Y-93688571D02*
X143102858Y-94688571D01*
X143102858Y-93831429D02*
X143174286Y-93760000D01*
X143317144Y-93688571D01*
X143531429Y-93688571D01*
X143674286Y-93760000D01*
X143745715Y-93902857D01*
X143745715Y-94688571D01*
X145102858Y-94617143D02*
X144960001Y-94688571D01*
X144674287Y-94688571D01*
X144531429Y-94617143D01*
X144460001Y-94545714D01*
X144388572Y-94402857D01*
X144388572Y-93974286D01*
X144460001Y-93831429D01*
X144531429Y-93760000D01*
X144674287Y-93688571D01*
X144960001Y-93688571D01*
X145102858Y-93760000D01*
X145745715Y-94688571D02*
X145745715Y-93188571D01*
X146388572Y-94688571D02*
X146388572Y-93902857D01*
X146317143Y-93760000D01*
X146174286Y-93688571D01*
X145960001Y-93688571D01*
X145817143Y-93760000D01*
X145745715Y-93831429D01*
X147745715Y-93688571D02*
X147745715Y-94688571D01*
X147102858Y-93688571D02*
X147102858Y-94474286D01*
X147174286Y-94617143D01*
X147317144Y-94688571D01*
X147531429Y-94688571D01*
X147674286Y-94617143D01*
X147745715Y-94545714D01*
X149102858Y-94617143D02*
X148960001Y-94688571D01*
X148674287Y-94688571D01*
X148531429Y-94617143D01*
X148460001Y-94545714D01*
X148388572Y-94402857D01*
X148388572Y-93974286D01*
X148460001Y-93831429D01*
X148531429Y-93760000D01*
X148674287Y-93688571D01*
X148960001Y-93688571D01*
X149102858Y-93760000D01*
X149745715Y-94688571D02*
X149745715Y-93188571D01*
X149888572Y-94117143D02*
X150317143Y-94688571D01*
X150317143Y-93688571D02*
X149745715Y-94260000D01*
X142281429Y-97088571D02*
X141781429Y-96374286D01*
X141424286Y-97088571D02*
X141424286Y-95588571D01*
X141995714Y-95588571D01*
X142138572Y-95660000D01*
X142210000Y-95731429D01*
X142281429Y-95874286D01*
X142281429Y-96088571D01*
X142210000Y-96231429D01*
X142138572Y-96302857D01*
X141995714Y-96374286D01*
X141424286Y-96374286D01*
X143495714Y-97017143D02*
X143352857Y-97088571D01*
X143067143Y-97088571D01*
X142924286Y-97017143D01*
X142852857Y-96874286D01*
X142852857Y-96302857D01*
X142924286Y-96160000D01*
X143067143Y-96088571D01*
X143352857Y-96088571D01*
X143495714Y-96160000D01*
X143567143Y-96302857D01*
X143567143Y-96445714D01*
X142852857Y-96588571D01*
X144210000Y-97088571D02*
X144210000Y-96088571D01*
X144210000Y-96231429D02*
X144281428Y-96160000D01*
X144424286Y-96088571D01*
X144638571Y-96088571D01*
X144781428Y-96160000D01*
X144852857Y-96302857D01*
X144852857Y-97088571D01*
X144852857Y-96302857D02*
X144924286Y-96160000D01*
X145067143Y-96088571D01*
X145281428Y-96088571D01*
X145424286Y-96160000D01*
X145495714Y-96302857D01*
X145495714Y-97088571D01*
X146424286Y-97088571D02*
X146281428Y-97017143D01*
X146210000Y-96945714D01*
X146138571Y-96802857D01*
X146138571Y-96374286D01*
X146210000Y-96231429D01*
X146281428Y-96160000D01*
X146424286Y-96088571D01*
X146638571Y-96088571D01*
X146781428Y-96160000D01*
X146852857Y-96231429D01*
X146924286Y-96374286D01*
X146924286Y-96802857D01*
X146852857Y-96945714D01*
X146781428Y-97017143D01*
X146638571Y-97088571D01*
X146424286Y-97088571D01*
X147352857Y-96088571D02*
X147924286Y-96088571D01*
X147567143Y-95588571D02*
X147567143Y-96874286D01*
X147638571Y-97017143D01*
X147781429Y-97088571D01*
X147924286Y-97088571D01*
X148995714Y-97017143D02*
X148852857Y-97088571D01*
X148567143Y-97088571D01*
X148424286Y-97017143D01*
X148352857Y-96874286D01*
X148352857Y-96302857D01*
X148424286Y-96160000D01*
X148567143Y-96088571D01*
X148852857Y-96088571D01*
X148995714Y-96160000D01*
X149067143Y-96302857D01*
X149067143Y-96445714D01*
X148352857Y-96588571D01*
X132467144Y-84438571D02*
X132824287Y-85438571D01*
X133181429Y-84438571D01*
X134038572Y-83938571D02*
X134181429Y-83938571D01*
X134324286Y-84010000D01*
X134395715Y-84081429D01*
X134467144Y-84224286D01*
X134538572Y-84510000D01*
X134538572Y-84867143D01*
X134467144Y-85152857D01*
X134395715Y-85295714D01*
X134324286Y-85367143D01*
X134181429Y-85438571D01*
X134038572Y-85438571D01*
X133895715Y-85367143D01*
X133824286Y-85295714D01*
X133752858Y-85152857D01*
X133681429Y-84867143D01*
X133681429Y-84510000D01*
X133752858Y-84224286D01*
X133824286Y-84081429D01*
X133895715Y-84010000D01*
X134038572Y-83938571D01*
X135181429Y-85295714D02*
X135252857Y-85367143D01*
X135181429Y-85438571D01*
X135110000Y-85367143D01*
X135181429Y-85295714D01*
X135181429Y-85438571D01*
X135824286Y-84081429D02*
X135895715Y-84010000D01*
X136038572Y-83938571D01*
X136395715Y-83938571D01*
X136538572Y-84010000D01*
X136610001Y-84081429D01*
X136681429Y-84224286D01*
X136681429Y-84367143D01*
X136610001Y-84581429D01*
X135752858Y-85438571D01*
X136681429Y-85438571D01*
D12*
X136060000Y-91760000D02*
X135060000Y-91760000D01*
X135060000Y-93460000D02*
X136060000Y-93460000D01*
X166559180Y-93110640D02*
X166559180Y-85409360D01*
X167559940Y-93110640D02*
X167559940Y-85409360D01*
X167559940Y-85409360D02*
X158360060Y-85409360D01*
X158360060Y-85409360D02*
X158360060Y-93110640D01*
X158360060Y-93110640D02*
X167559940Y-93110640D01*
X152630000Y-101880000D02*
X152630000Y-104420000D01*
X152910000Y-99060000D02*
X152910000Y-100610000D01*
X152630000Y-101880000D02*
X150090000Y-101880000D01*
X149810000Y-100610000D02*
X149810000Y-99060000D01*
X149810000Y-99060000D02*
X152910000Y-99060000D01*
X150090000Y-101880000D02*
X150090000Y-104420000D01*
X150090000Y-104420000D02*
X152630000Y-104420000D01*
X153690000Y-101840000D02*
X153690000Y-99300000D01*
X153410000Y-104660000D02*
X153410000Y-103110000D01*
X153690000Y-101840000D02*
X156230000Y-101840000D01*
X156510000Y-103110000D02*
X156510000Y-104660000D01*
X156510000Y-104660000D02*
X153410000Y-104660000D01*
X156230000Y-101840000D02*
X156230000Y-99300000D01*
X156230000Y-99300000D02*
X153690000Y-99300000D01*
X138210000Y-58285000D02*
X139410000Y-58285000D01*
X139410000Y-60035000D02*
X138210000Y-60035000D01*
X134435000Y-71310000D02*
X134435000Y-70110000D01*
X136185000Y-70110000D02*
X136185000Y-71310000D01*
X151110000Y-59885000D02*
X149910000Y-59885000D01*
X149910000Y-58135000D02*
X151110000Y-58135000D01*
X153860000Y-93485000D02*
X152660000Y-93485000D01*
X152660000Y-91735000D02*
X153860000Y-91735000D01*
X152960000Y-94985000D02*
X153760000Y-94985000D01*
X152960000Y-98235000D02*
X153760000Y-98235000D01*
X134040000Y-60600000D02*
X136580000Y-60600000D01*
X136580000Y-60600000D02*
X136580000Y-68220000D01*
X136580000Y-68220000D02*
X134040000Y-68220000D01*
X134040000Y-68220000D02*
X134040000Y-60600000D01*
X136580000Y-63140000D02*
X134040000Y-63140000D01*
X141080000Y-104330000D02*
X148700000Y-104330000D01*
X148700000Y-104330000D02*
X148700000Y-99250000D01*
X148700000Y-99250000D02*
X138540000Y-99250000D01*
X138540000Y-99250000D02*
X138540000Y-101790000D01*
X138260000Y-103060000D02*
X138260000Y-104610000D01*
X138540000Y-101790000D02*
X141080000Y-101790000D01*
X141080000Y-101790000D02*
X141080000Y-104330000D01*
X138260000Y-104610000D02*
X139810000Y-104610000D01*
X141360000Y-80510000D02*
X142360000Y-80510000D01*
X142360000Y-78810000D02*
X141360000Y-78810000D01*
X160280000Y-65530000D02*
X160280000Y-73150000D01*
X157740000Y-65530000D02*
X157740000Y-73150000D01*
X157460000Y-62710000D02*
X157460000Y-64260000D01*
X160280000Y-73150000D02*
X157740000Y-73150000D01*
X157740000Y-65530000D02*
X160280000Y-65530000D01*
X160560000Y-64260000D02*
X160560000Y-62710000D01*
X160560000Y-62710000D02*
X157460000Y-62710000D01*
X154615000Y-61375000D02*
G75*
G03X154615000Y-61375000I-100000J0D01*
G01*
X154765000Y-60825000D02*
X154765000Y-61325000D01*
X157665000Y-60825000D02*
X154765000Y-60825000D01*
X157665000Y-61325000D02*
X157665000Y-60825000D01*
X154765000Y-61325000D02*
X157665000Y-61325000D01*
X134060000Y-89710000D02*
G75*
G03X134060000Y-89710000I-100000J0D01*
G01*
X134210000Y-89160000D02*
X134210000Y-89660000D01*
X137110000Y-89160000D02*
X134210000Y-89160000D01*
X137110000Y-89660000D02*
X137110000Y-89160000D01*
X134210000Y-89660000D02*
X137110000Y-89660000D01*
X134090000Y-96780000D02*
X134090000Y-101860000D01*
X134090000Y-101860000D02*
X136630000Y-101860000D01*
X136630000Y-101860000D02*
X136630000Y-96780000D01*
X136910000Y-93960000D02*
X136910000Y-95510000D01*
X136630000Y-96780000D02*
X134090000Y-96780000D01*
X133810000Y-95510000D02*
X133810000Y-93960000D01*
X133810000Y-93960000D02*
X136910000Y-93960000D01*
X156210000Y-60210000D02*
X136510000Y-60210000D01*
X136510000Y-60210000D02*
X136510000Y-78410000D01*
X136510000Y-78410000D02*
X156210000Y-78410000D01*
X156210000Y-78410000D02*
X156210000Y-60210000D01*
X138593334Y-93017143D02*
X138545715Y-93064762D01*
X138402858Y-93112381D01*
X138307620Y-93112381D01*
X138164762Y-93064762D01*
X138069524Y-92969524D01*
X138021905Y-92874286D01*
X137974286Y-92683810D01*
X137974286Y-92540952D01*
X138021905Y-92350476D01*
X138069524Y-92255238D01*
X138164762Y-92160000D01*
X138307620Y-92112381D01*
X138402858Y-92112381D01*
X138545715Y-92160000D01*
X138593334Y-92207619D01*
X138974286Y-92207619D02*
X139021905Y-92160000D01*
X139117143Y-92112381D01*
X139355239Y-92112381D01*
X139450477Y-92160000D01*
X139498096Y-92207619D01*
X139545715Y-92302857D01*
X139545715Y-92398095D01*
X139498096Y-92540952D01*
X138926667Y-93112381D01*
X139545715Y-93112381D01*
X156421905Y-90662381D02*
X156421905Y-89662381D01*
X156802858Y-89662381D01*
X156898096Y-89710000D01*
X156945715Y-89757619D01*
X156993334Y-89852857D01*
X156993334Y-89995714D01*
X156945715Y-90090952D01*
X156898096Y-90138571D01*
X156802858Y-90186190D01*
X156421905Y-90186190D01*
X157945715Y-90662381D02*
X157374286Y-90662381D01*
X157660000Y-90662381D02*
X157660000Y-89662381D01*
X157564762Y-89805238D01*
X157469524Y-89900476D01*
X157374286Y-89948095D01*
X149821905Y-98762381D02*
X149821905Y-97762381D01*
X150202858Y-97762381D01*
X150298096Y-97810000D01*
X150345715Y-97857619D01*
X150393334Y-97952857D01*
X150393334Y-98095714D01*
X150345715Y-98190952D01*
X150298096Y-98238571D01*
X150202858Y-98286190D01*
X149821905Y-98286190D01*
X150774286Y-97857619D02*
X150821905Y-97810000D01*
X150917143Y-97762381D01*
X151155239Y-97762381D01*
X151250477Y-97810000D01*
X151298096Y-97857619D01*
X151345715Y-97952857D01*
X151345715Y-98048095D01*
X151298096Y-98190952D01*
X150726667Y-98762381D01*
X151345715Y-98762381D01*
X155521905Y-98762381D02*
X155521905Y-97762381D01*
X155902858Y-97762381D01*
X155998096Y-97810000D01*
X156045715Y-97857619D01*
X156093334Y-97952857D01*
X156093334Y-98095714D01*
X156045715Y-98190952D01*
X155998096Y-98238571D01*
X155902858Y-98286190D01*
X155521905Y-98286190D01*
X156426667Y-97762381D02*
X157045715Y-97762381D01*
X156712381Y-98143333D01*
X156855239Y-98143333D01*
X156950477Y-98190952D01*
X156998096Y-98238571D01*
X157045715Y-98333810D01*
X157045715Y-98571905D01*
X156998096Y-98667143D01*
X156950477Y-98714762D01*
X156855239Y-98762381D01*
X156569524Y-98762381D01*
X156474286Y-98714762D01*
X156426667Y-98667143D01*
X138793334Y-61472381D02*
X138460000Y-60996190D01*
X138221905Y-61472381D02*
X138221905Y-60472381D01*
X138602858Y-60472381D01*
X138698096Y-60520000D01*
X138745715Y-60567619D01*
X138793334Y-60662857D01*
X138793334Y-60805714D01*
X138745715Y-60900952D01*
X138698096Y-60948571D01*
X138602858Y-60996190D01*
X138221905Y-60996190D01*
X139174286Y-60567619D02*
X139221905Y-60520000D01*
X139317143Y-60472381D01*
X139555239Y-60472381D01*
X139650477Y-60520000D01*
X139698096Y-60567619D01*
X139745715Y-60662857D01*
X139745715Y-60758095D01*
X139698096Y-60900952D01*
X139126667Y-61472381D01*
X139745715Y-61472381D01*
X137332381Y-71956666D02*
X136856190Y-72290000D01*
X137332381Y-72528095D02*
X136332381Y-72528095D01*
X136332381Y-72147142D01*
X136380000Y-72051904D01*
X136427619Y-72004285D01*
X136522857Y-71956666D01*
X136665714Y-71956666D01*
X136760952Y-72004285D01*
X136808571Y-72051904D01*
X136856190Y-72147142D01*
X136856190Y-72528095D01*
X136332381Y-71623333D02*
X136332381Y-71004285D01*
X136713333Y-71337619D01*
X136713333Y-71194761D01*
X136760952Y-71099523D01*
X136808571Y-71051904D01*
X136903810Y-71004285D01*
X137141905Y-71004285D01*
X137237143Y-71051904D01*
X137284762Y-71099523D01*
X137332381Y-71194761D01*
X137332381Y-71480476D01*
X137284762Y-71575714D01*
X137237143Y-71623333D01*
X146893334Y-59552381D02*
X146560000Y-59076190D01*
X146321905Y-59552381D02*
X146321905Y-58552381D01*
X146702858Y-58552381D01*
X146798096Y-58600000D01*
X146845715Y-58647619D01*
X146893334Y-58742857D01*
X146893334Y-58885714D01*
X146845715Y-58980952D01*
X146798096Y-59028571D01*
X146702858Y-59076190D01*
X146321905Y-59076190D01*
X147750477Y-58885714D02*
X147750477Y-59552381D01*
X147512381Y-58504762D02*
X147274286Y-59219048D01*
X147893334Y-59219048D01*
X156443334Y-93112381D02*
X156110000Y-92636190D01*
X155871905Y-93112381D02*
X155871905Y-92112381D01*
X156252858Y-92112381D01*
X156348096Y-92160000D01*
X156395715Y-92207619D01*
X156443334Y-92302857D01*
X156443334Y-92445714D01*
X156395715Y-92540952D01*
X156348096Y-92588571D01*
X156252858Y-92636190D01*
X155871905Y-92636190D01*
X157348096Y-92112381D02*
X156871905Y-92112381D01*
X156824286Y-92588571D01*
X156871905Y-92540952D01*
X156967143Y-92493333D01*
X157205239Y-92493333D01*
X157300477Y-92540952D01*
X157348096Y-92588571D01*
X157395715Y-92683810D01*
X157395715Y-92921905D01*
X157348096Y-93017143D01*
X157300477Y-93064762D01*
X157205239Y-93112381D01*
X156967143Y-93112381D01*
X156871905Y-93064762D01*
X156824286Y-93017143D01*
X152693334Y-94762381D02*
X152360000Y-94286190D01*
X152121905Y-94762381D02*
X152121905Y-93762381D01*
X152502858Y-93762381D01*
X152598096Y-93810000D01*
X152645715Y-93857619D01*
X152693334Y-93952857D01*
X152693334Y-94095714D01*
X152645715Y-94190952D01*
X152598096Y-94238571D01*
X152502858Y-94286190D01*
X152121905Y-94286190D01*
X153121905Y-94762381D02*
X153121905Y-93762381D01*
X153502858Y-93762381D01*
X153598096Y-93810000D01*
X153645715Y-93857619D01*
X153693334Y-93952857D01*
X153693334Y-94095714D01*
X153645715Y-94190952D01*
X153598096Y-94238571D01*
X153502858Y-94286190D01*
X153121905Y-94286190D01*
X154645715Y-94762381D02*
X154074286Y-94762381D01*
X154360000Y-94762381D02*
X154360000Y-93762381D01*
X154264762Y-93905238D01*
X154169524Y-94000476D01*
X154074286Y-94048095D01*
X136906667Y-67014762D02*
X137049524Y-67062381D01*
X137287620Y-67062381D01*
X137382858Y-67014762D01*
X137430477Y-66967143D01*
X137478096Y-66871905D01*
X137478096Y-66776667D01*
X137430477Y-66681429D01*
X137382858Y-66633810D01*
X137287620Y-66586190D01*
X137097143Y-66538571D01*
X137001905Y-66490952D01*
X136954286Y-66443333D01*
X136906667Y-66348095D01*
X136906667Y-66252857D01*
X136954286Y-66157619D01*
X137001905Y-66110000D01*
X137097143Y-66062381D01*
X137335239Y-66062381D01*
X137478096Y-66110000D01*
X137811429Y-66062381D02*
X138049524Y-67062381D01*
X138240001Y-66348095D01*
X138430477Y-67062381D01*
X138668572Y-66062381D01*
X139573334Y-67062381D02*
X139001905Y-67062381D01*
X139287619Y-67062381D02*
X139287619Y-66062381D01*
X139192381Y-66205238D01*
X139097143Y-66300476D01*
X139001905Y-66348095D01*
X136698095Y-100912381D02*
X136698095Y-101721905D01*
X136745714Y-101817143D01*
X136793333Y-101864762D01*
X136888571Y-101912381D01*
X137079048Y-101912381D01*
X137174286Y-101864762D01*
X137221905Y-101817143D01*
X137269524Y-101721905D01*
X137269524Y-100912381D01*
X138174286Y-101245714D02*
X138174286Y-101912381D01*
X137936190Y-100864762D02*
X137698095Y-101579048D01*
X138317143Y-101579048D01*
X141613334Y-81667143D02*
X141565715Y-81714762D01*
X141422858Y-81762381D01*
X141327620Y-81762381D01*
X141184762Y-81714762D01*
X141089524Y-81619524D01*
X141041905Y-81524286D01*
X140994286Y-81333810D01*
X140994286Y-81190952D01*
X141041905Y-81000476D01*
X141089524Y-80905238D01*
X141184762Y-80810000D01*
X141327620Y-80762381D01*
X141422858Y-80762381D01*
X141565715Y-80810000D01*
X141613334Y-80857619D01*
X142184762Y-81190952D02*
X142089524Y-81143333D01*
X142041905Y-81095714D01*
X141994286Y-81000476D01*
X141994286Y-80952857D01*
X142041905Y-80857619D01*
X142089524Y-80810000D01*
X142184762Y-80762381D01*
X142375239Y-80762381D01*
X142470477Y-80810000D01*
X142518096Y-80857619D01*
X142565715Y-80952857D01*
X142565715Y-81000476D01*
X142518096Y-81095714D01*
X142470477Y-81143333D01*
X142375239Y-81190952D01*
X142184762Y-81190952D01*
X142089524Y-81238571D01*
X142041905Y-81286190D01*
X141994286Y-81381429D01*
X141994286Y-81571905D01*
X142041905Y-81667143D01*
X142089524Y-81714762D01*
X142184762Y-81762381D01*
X142375239Y-81762381D01*
X142470477Y-81714762D01*
X142518096Y-81667143D01*
X142565715Y-81571905D01*
X142565715Y-81381429D01*
X142518096Y-81286190D01*
X142470477Y-81238571D01*
X142375239Y-81190952D01*
X158271905Y-74562381D02*
X158271905Y-73562381D01*
X158652858Y-73562381D01*
X158748096Y-73610000D01*
X158795715Y-73657619D01*
X158843334Y-73752857D01*
X158843334Y-73895714D01*
X158795715Y-73990952D01*
X158748096Y-74038571D01*
X158652858Y-74086190D01*
X158271905Y-74086190D01*
X159700477Y-73895714D02*
X159700477Y-74562381D01*
X159462381Y-73514762D02*
X159224286Y-74229048D01*
X159843334Y-74229048D01*
X152608095Y-60672381D02*
X152608095Y-61481905D01*
X152655714Y-61577143D01*
X152703333Y-61624762D01*
X152798571Y-61672381D01*
X152989048Y-61672381D01*
X153084286Y-61624762D01*
X153131905Y-61577143D01*
X153179524Y-61481905D01*
X153179524Y-60672381D01*
X154131905Y-60672381D02*
X153655714Y-60672381D01*
X153608095Y-61148571D01*
X153655714Y-61100952D01*
X153750952Y-61053333D01*
X153989048Y-61053333D01*
X154084286Y-61100952D01*
X154131905Y-61148571D01*
X154179524Y-61243810D01*
X154179524Y-61481905D01*
X154131905Y-61577143D01*
X154084286Y-61624762D01*
X153989048Y-61672381D01*
X153750952Y-61672381D01*
X153655714Y-61624762D01*
X153608095Y-61577143D01*
X134798095Y-86242381D02*
X134798095Y-87051905D01*
X134845714Y-87147143D01*
X134893333Y-87194762D01*
X134988571Y-87242381D01*
X135179048Y-87242381D01*
X135274286Y-87194762D01*
X135321905Y-87147143D01*
X135369524Y-87051905D01*
X135369524Y-86242381D01*
X135798095Y-86337619D02*
X135845714Y-86290000D01*
X135940952Y-86242381D01*
X136179048Y-86242381D01*
X136274286Y-86290000D01*
X136321905Y-86337619D01*
X136369524Y-86432857D01*
X136369524Y-86528095D01*
X136321905Y-86670952D01*
X135750476Y-87242381D01*
X136369524Y-87242381D01*
X136986667Y-95974762D02*
X137129524Y-96022381D01*
X137367620Y-96022381D01*
X137462858Y-95974762D01*
X137510477Y-95927143D01*
X137558096Y-95831905D01*
X137558096Y-95736667D01*
X137510477Y-95641429D01*
X137462858Y-95593810D01*
X137367620Y-95546190D01*
X137177143Y-95498571D01*
X137081905Y-95450952D01*
X137034286Y-95403333D01*
X136986667Y-95308095D01*
X136986667Y-95212857D01*
X137034286Y-95117619D01*
X137081905Y-95070000D01*
X137177143Y-95022381D01*
X137415239Y-95022381D01*
X137558096Y-95070000D01*
X137891429Y-95022381D02*
X138129524Y-96022381D01*
X138320001Y-95308095D01*
X138510477Y-96022381D01*
X138748572Y-95022381D01*
X139081905Y-95117619D02*
X139129524Y-95070000D01*
X139224762Y-95022381D01*
X139462858Y-95022381D01*
X139558096Y-95070000D01*
X139605715Y-95117619D01*
X139653334Y-95212857D01*
X139653334Y-95308095D01*
X139605715Y-95450952D01*
X139034286Y-96022381D01*
X139653334Y-96022381D01*
X145264762Y-69862381D02*
X144931428Y-69386190D01*
X144693333Y-69862381D02*
X144693333Y-68862381D01*
X145074286Y-68862381D01*
X145169524Y-68910000D01*
X145217143Y-68957619D01*
X145264762Y-69052857D01*
X145264762Y-69195714D01*
X145217143Y-69290952D01*
X145169524Y-69338571D01*
X145074286Y-69386190D01*
X144693333Y-69386190D01*
X145550476Y-68862381D02*
X145883809Y-69862381D01*
X146217143Y-68862381D01*
X147074286Y-69862381D02*
X146502857Y-69862381D01*
X146788571Y-69862381D02*
X146788571Y-68862381D01*
X146693333Y-69005238D01*
X146598095Y-69100476D01*
X146502857Y-69148095D01*
X152136667Y-81864762D02*
X152279524Y-81912381D01*
X152517620Y-81912381D01*
X152612858Y-81864762D01*
X152660477Y-81817143D01*
X152708096Y-81721905D01*
X152708096Y-81626667D01*
X152660477Y-81531429D01*
X152612858Y-81483810D01*
X152517620Y-81436190D01*
X152327143Y-81388571D01*
X152231905Y-81340952D01*
X152184286Y-81293333D01*
X152136667Y-81198095D01*
X152136667Y-81102857D01*
X152184286Y-81007619D01*
X152231905Y-80960000D01*
X152327143Y-80912381D01*
X152565239Y-80912381D01*
X152708096Y-80960000D01*
X153041429Y-80912381D02*
X153279524Y-81912381D01*
X153470001Y-81198095D01*
X153660477Y-81912381D01*
X153898572Y-80912381D01*
X154184286Y-80912381D02*
X154803334Y-80912381D01*
X154470000Y-81293333D01*
X154612858Y-81293333D01*
X154708096Y-81340952D01*
X154755715Y-81388571D01*
X154803334Y-81483810D01*
X154803334Y-81721905D01*
X154755715Y-81817143D01*
X154708096Y-81864762D01*
X154612858Y-81912381D01*
X154327143Y-81912381D01*
X154231905Y-81864762D01*
X154184286Y-81817143D01*
%LPC*%
D13*
X134310000Y-92610000D03*
X136810000Y-92610000D03*
D14*
X159510680Y-90860200D03*
X159510680Y-87659800D03*
D15*
X159609740Y-93710080D03*
X159609740Y-84809920D03*
D16*
X162109100Y-91459640D03*
X162109100Y-87060360D03*
D17*
X151360000Y-100610000D03*
D18*
X151360000Y-103150000D03*
D17*
X154960000Y-103110000D03*
D18*
X154960000Y-100570000D03*
D19*
X140160000Y-59160000D03*
X137460000Y-59160000D03*
D20*
X135310000Y-69360000D03*
X135310000Y-72060000D03*
D19*
X149160000Y-59010000D03*
X151860000Y-59010000D03*
X151910000Y-92610000D03*
X154610000Y-92610000D03*
D21*
X154210000Y-97010000D03*
X154210000Y-96210000D03*
X154210000Y-97810000D03*
X154210000Y-95410000D03*
X152510000Y-97810000D03*
X152510000Y-97010000D03*
X152510000Y-96210000D03*
X152510000Y-95410000D03*
D22*
X135310000Y-61870000D03*
D23*
X135310000Y-64410000D03*
X135310000Y-66950000D03*
D24*
X139810000Y-103060000D03*
D25*
X139810000Y-100520000D03*
X142350000Y-103060000D03*
X142350000Y-100520000D03*
X144890000Y-103060000D03*
X144890000Y-100520000D03*
X147430000Y-103060000D03*
X147430000Y-100520000D03*
D13*
X143110000Y-79660000D03*
X140610000Y-79660000D03*
D26*
X159010000Y-64260000D03*
D27*
X159010000Y-66800000D03*
X159010000Y-69340000D03*
X159010000Y-71880000D03*
D28*
X155265000Y-62175000D03*
X156215000Y-62175000D03*
X157165000Y-62175000D03*
X157165000Y-59975000D03*
X155265000Y-59975000D03*
X134710000Y-90510000D03*
X135660000Y-90510000D03*
X136610000Y-90510000D03*
X136610000Y-88310000D03*
X134710000Y-88310000D03*
D26*
X135360000Y-95510000D03*
D27*
X135360000Y-98050000D03*
D29*
X135360000Y-100590000D03*
D30*
X138210000Y-68210000D03*
X138210000Y-70610000D03*
X138210000Y-73010000D03*
X145110000Y-61210000D03*
X147510000Y-61210000D03*
X149910000Y-61210000D03*
D31*
X150610000Y-83235000D03*
X146110000Y-83235000D03*
X150610000Y-79735000D03*
X146110000Y-79735000D03*
M02*
