G04 #@! TF.FileFunction,Copper,L1,Top,Signal*
%FSLAX46Y46*%
G04 Gerber Fmt 4.6, Leading zero omitted, Abs format (unit mm)*
G04 Created by KiCad (PCBNEW (after 2015-mar-04 BZR unknown)-product) date 22/05/2015 04:17:12*
%MOMM*%
G01*
G04 APERTURE LIST*
%ADD10C,0.100000*%
%ADD11R,1.500000X1.250000*%
%ADD12R,2.301240X0.500380*%
%ADD13R,2.499360X1.998980*%
%ADD14R,2.032000X2.032000*%
%ADD15O,2.032000X2.032000*%
%ADD16R,1.500000X1.300000*%
%ADD17R,1.300000X1.500000*%
%ADD18R,0.900000X0.400000*%
%ADD19R,1.397000X1.397000*%
%ADD20C,1.397000*%
%ADD21R,1.727200X1.727200*%
%ADD22O,1.727200X1.727200*%
%ADD23R,2.032000X1.727200*%
%ADD24O,2.032000X1.727200*%
%ADD25R,0.650000X1.060000*%
%ADD26C,1.524000*%
%ADD27R,2.000000X2.000000*%
%ADD28C,0.600000*%
%ADD29C,0.400000*%
%ADD30C,1.000000*%
%ADD31C,0.800000*%
%ADD32C,1.000000*%
%ADD33C,0.600000*%
%ADD34C,0.250000*%
%ADD35C,1.500000*%
%ADD36C,0.254000*%
G04 APERTURE END LIST*
D10*
D11*
X134310000Y-92610000D03*
X136810000Y-92610000D03*
D12*
X159510680Y-90860200D03*
X159510680Y-87659800D03*
D13*
X159609740Y-93710080D03*
X159609740Y-84809920D03*
D14*
X151360000Y-100610000D03*
D15*
X151360000Y-103150000D03*
D14*
X154960000Y-103110000D03*
D15*
X154960000Y-100570000D03*
D16*
X140160000Y-59160000D03*
X137460000Y-59160000D03*
D17*
X135310000Y-69360000D03*
X135310000Y-72060000D03*
D16*
X149160000Y-59010000D03*
X151860000Y-59010000D03*
X151910000Y-92610000D03*
X154610000Y-92610000D03*
D18*
X154210000Y-97010000D03*
X154210000Y-96210000D03*
X154210000Y-97810000D03*
X154210000Y-95410000D03*
X152510000Y-97810000D03*
X152510000Y-97010000D03*
X152510000Y-96210000D03*
X152510000Y-95410000D03*
D19*
X135310000Y-61870000D03*
D20*
X135310000Y-64410000D03*
X135310000Y-66950000D03*
D21*
X139810000Y-103060000D03*
D22*
X139810000Y-100520000D03*
X142350000Y-103060000D03*
X142350000Y-100520000D03*
X144890000Y-103060000D03*
X144890000Y-100520000D03*
X147430000Y-103060000D03*
X147430000Y-100520000D03*
D11*
X143110000Y-79660000D03*
X140610000Y-79660000D03*
D23*
X159010000Y-64260000D03*
D24*
X159010000Y-66800000D03*
X159010000Y-69340000D03*
X159010000Y-71880000D03*
D25*
X155265000Y-62175000D03*
X156215000Y-62175000D03*
X157165000Y-62175000D03*
X157165000Y-59975000D03*
X155265000Y-59975000D03*
X134710000Y-90510000D03*
X135660000Y-90510000D03*
X136610000Y-90510000D03*
X136610000Y-88310000D03*
X134710000Y-88310000D03*
D23*
X135360000Y-95510000D03*
D24*
X135360000Y-98050000D03*
D26*
X138210000Y-68210000D03*
X138210000Y-70610000D03*
X138210000Y-73010000D03*
X145110000Y-61210000D03*
X147510000Y-61210000D03*
X149910000Y-61210000D03*
D27*
X150610000Y-83235000D03*
X146110000Y-83235000D03*
X150610000Y-79735000D03*
X146110000Y-79735000D03*
D28*
X142310000Y-85435000D03*
X154335000Y-66960000D03*
D29*
X149185000Y-69335000D03*
X145660000Y-74910000D03*
D28*
X157960000Y-76810000D03*
X136810000Y-78060000D03*
X142310000Y-82060000D03*
D29*
X135710000Y-71660000D03*
D30*
X159560000Y-88760000D03*
D28*
X137160000Y-92710000D03*
D29*
X157060000Y-98410000D03*
D31*
X154610000Y-92610000D03*
D30*
X160760000Y-91860000D03*
D28*
X157890000Y-59480000D03*
X141710000Y-74885000D03*
X146385000Y-70110000D03*
X133260000Y-86810000D03*
X137810000Y-89360000D03*
D29*
X140160000Y-60510000D03*
D28*
X139660000Y-94010000D03*
D29*
X146260000Y-94010000D03*
D31*
X139210000Y-90160000D03*
D29*
X137010000Y-62410000D03*
X149160000Y-96610000D03*
X149110000Y-93610000D03*
X149110000Y-95610000D03*
X150110000Y-78135000D03*
X148110000Y-74510000D03*
X153460000Y-97210000D03*
X150760000Y-77610000D03*
X148960000Y-74510000D03*
X153960000Y-96110000D03*
X149960000Y-73310000D03*
X151160000Y-77060000D03*
X153260000Y-90410000D03*
X155860000Y-95610000D03*
D28*
X134760000Y-87210000D03*
D29*
X150110000Y-75210000D03*
X151310000Y-75760000D03*
D28*
X154720000Y-61720000D03*
X157960000Y-62050000D03*
D29*
X144010000Y-93210000D03*
X146760000Y-91860000D03*
X146560000Y-91160000D03*
X144060000Y-92410000D03*
X147010000Y-92610000D03*
X142560000Y-92860000D03*
X152460000Y-98510000D03*
D28*
X149420000Y-66290000D03*
X156140000Y-75310000D03*
D32*
X157960000Y-76810000D02*
X157960000Y-74320000D01*
X156960000Y-71460000D02*
X155710000Y-70210000D01*
X156960000Y-73320000D02*
X156960000Y-71460000D01*
X157960000Y-74320000D02*
X156960000Y-73320000D01*
D33*
X155710000Y-63660000D02*
X156060000Y-63310000D01*
X155710000Y-66835000D02*
X155710000Y-63660000D01*
X156215000Y-63165000D02*
X156215000Y-62175000D01*
X156070000Y-63310000D02*
X156215000Y-63165000D01*
X156060000Y-63310000D02*
X156070000Y-63310000D01*
X156215000Y-62175000D02*
X156215000Y-60925000D01*
X156215000Y-60925000D02*
X155265000Y-59975000D01*
D32*
X135660000Y-74910000D02*
X135660000Y-77360000D01*
X146235000Y-85210000D02*
X146235000Y-83360000D01*
X146235000Y-83360000D02*
X146110000Y-83235000D01*
X146110000Y-83235000D02*
X146110000Y-79735000D01*
X154510000Y-85785000D02*
X153935000Y-85210000D01*
X142535000Y-85210000D02*
X146235000Y-85210000D01*
X146235000Y-85210000D02*
X153935000Y-85210000D01*
X142535000Y-85210000D02*
X142310000Y-85435000D01*
X155710000Y-66835000D02*
X154460000Y-66835000D01*
X154460000Y-66835000D02*
X154335000Y-66960000D01*
D34*
X146585000Y-71935000D02*
X149185000Y-69335000D01*
X146585000Y-73985000D02*
X146585000Y-71935000D01*
X145660000Y-74910000D02*
X146585000Y-73985000D01*
D32*
X136810000Y-92610000D02*
X137360000Y-93160000D01*
X137360000Y-93160000D02*
X137360000Y-101985000D01*
X138435000Y-103060000D02*
X139810000Y-103060000D01*
X137360000Y-101985000D02*
X138435000Y-103060000D01*
X155710000Y-69360000D02*
X155710000Y-70210000D01*
D33*
X155710000Y-66835000D02*
X155710000Y-69360000D01*
D32*
X159010000Y-69340000D02*
X156580000Y-69340000D01*
X156580000Y-69340000D02*
X155710000Y-70210000D01*
X157910000Y-76760000D02*
X155710000Y-76760000D01*
X157960000Y-76810000D02*
X157910000Y-76760000D01*
X154660000Y-80260000D02*
X154660000Y-78760000D01*
X157860000Y-88760000D02*
X157610000Y-89010000D01*
X157610000Y-89010000D02*
X155660000Y-89010000D01*
X155660000Y-89010000D02*
X154510000Y-87860000D01*
X154510000Y-87860000D02*
X154510000Y-85785000D01*
X154510000Y-85785000D02*
X154510000Y-83160000D01*
X154510000Y-83160000D02*
X154510000Y-80410000D01*
X154510000Y-80410000D02*
X154660000Y-80260000D01*
X158510000Y-88760000D02*
X157860000Y-88760000D01*
X155710000Y-77710000D02*
X155710000Y-76760000D01*
X154660000Y-78760000D02*
X155710000Y-77710000D01*
X136360000Y-78060000D02*
X136810000Y-78060000D01*
X135660000Y-77360000D02*
X136360000Y-78060000D01*
X135310000Y-72060000D02*
X135310000Y-74560000D01*
X135310000Y-74560000D02*
X135660000Y-74910000D01*
X151860000Y-59010000D02*
X152785000Y-59935000D01*
X143110000Y-81260000D02*
X143110000Y-79660000D01*
X142310000Y-82060000D02*
X143110000Y-81260000D01*
D34*
X135710000Y-71660000D02*
X135310000Y-72060000D01*
D32*
X159560000Y-88760000D02*
X158510000Y-88760000D01*
X158510000Y-88760000D02*
X158410000Y-88760000D01*
X158410000Y-88760000D02*
X158010000Y-89160000D01*
D34*
X156060000Y-88710000D02*
X159510000Y-88710000D01*
X154610000Y-92610000D02*
X154610000Y-90160000D01*
X154610000Y-90160000D02*
X156060000Y-88710000D01*
X159510000Y-88710000D02*
X159560000Y-88760000D01*
D32*
X159510680Y-88710680D02*
X159560000Y-88760000D01*
X159510680Y-87659800D02*
X159510680Y-88710680D01*
D33*
X135660000Y-91460000D02*
X136810000Y-92610000D01*
X135660000Y-90510000D02*
X135660000Y-91460000D01*
D32*
X137060000Y-92610000D02*
X136810000Y-92610000D01*
X137160000Y-92710000D02*
X137060000Y-92610000D01*
D35*
X158760000Y-88760000D02*
X156660000Y-90860000D01*
X159560000Y-88760000D02*
X158760000Y-88760000D01*
X157060000Y-90810000D02*
X157060000Y-98470000D01*
X157060000Y-98470000D02*
X154960000Y-100570000D01*
D34*
X154210000Y-99820000D02*
X154960000Y-100570000D01*
X154210000Y-97810000D02*
X154210000Y-99820000D01*
X157060000Y-98410000D02*
X157060000Y-98470000D01*
D33*
X134710000Y-92210000D02*
X134310000Y-92610000D01*
X134710000Y-90510000D02*
X134710000Y-92210000D01*
X136610000Y-89660000D02*
X136360000Y-89410000D01*
X136360000Y-89410000D02*
X135060000Y-89410000D01*
X135060000Y-89410000D02*
X134710000Y-89760000D01*
X134710000Y-89760000D02*
X134710000Y-90510000D01*
X136610000Y-90510000D02*
X136610000Y-89660000D01*
D35*
X135360000Y-94610000D02*
X135360000Y-95510000D01*
X134310000Y-93560000D02*
X135360000Y-94610000D01*
X134310000Y-92610000D02*
X134310000Y-93560000D01*
D32*
X159510680Y-90860200D02*
X160560200Y-90860200D01*
X160560200Y-90860200D02*
X160760000Y-91060000D01*
X160760000Y-91060000D02*
X160760000Y-91860000D01*
D35*
X154920000Y-103150000D02*
X154960000Y-103110000D01*
D32*
X157890000Y-59480000D02*
X157395000Y-59975000D01*
X157395000Y-59975000D02*
X157165000Y-59975000D01*
X138210000Y-73010000D02*
X138210000Y-74860000D01*
X138210000Y-74860000D02*
X138160000Y-74910000D01*
X138210000Y-74960000D02*
X138210000Y-79260000D01*
X138210000Y-79260000D02*
X138610000Y-79660000D01*
X138210000Y-74960000D02*
X138160000Y-74910000D01*
D34*
X138160000Y-74910000D02*
X141685000Y-74910000D01*
X141685000Y-74910000D02*
X141710000Y-74885000D01*
D32*
X144535000Y-72060000D02*
X144535000Y-71960000D01*
X140260000Y-72060000D02*
X144535000Y-72060000D01*
X144535000Y-71960000D02*
X146385000Y-70110000D01*
X140260000Y-69135000D02*
X140260000Y-68435000D01*
X139310000Y-73010000D02*
X140260000Y-72060000D01*
X140260000Y-72060000D02*
X140260000Y-69135000D01*
X138210000Y-73010000D02*
X139310000Y-73010000D01*
X145110000Y-65110000D02*
X145110000Y-61210000D01*
X144110000Y-66110000D02*
X145110000Y-65110000D01*
X142585000Y-66110000D02*
X144110000Y-66110000D01*
X140260000Y-68435000D02*
X142585000Y-66110000D01*
X138760000Y-96610000D02*
X138760000Y-98110000D01*
X138760000Y-98110000D02*
X139810000Y-99160000D01*
X139810000Y-100520000D02*
X139810000Y-99160000D01*
X138760000Y-94910000D02*
X139660000Y-94010000D01*
X138760000Y-96610000D02*
X138760000Y-94910000D01*
X140610000Y-79660000D02*
X138610000Y-79660000D01*
X138610000Y-79660000D02*
X138160000Y-80110000D01*
X135485000Y-85935000D02*
X135485000Y-85335000D01*
X135485000Y-85335000D02*
X136510000Y-84310000D01*
X136510000Y-84310000D02*
X137760000Y-84310000D01*
X137760000Y-84310000D02*
X138160000Y-83910000D01*
X138160000Y-83910000D02*
X138160000Y-80110000D01*
X138160000Y-80110000D02*
X138160000Y-79460000D01*
X136060000Y-87760000D02*
X136610000Y-88310000D01*
X136060000Y-86510000D02*
X136060000Y-87760000D01*
X135460000Y-85910000D02*
X135485000Y-85935000D01*
X135485000Y-85935000D02*
X136060000Y-86510000D01*
X133910000Y-85910000D02*
X135460000Y-85910000D01*
X133260000Y-86560000D02*
X133910000Y-85910000D01*
X133260000Y-86810000D02*
X133260000Y-86560000D01*
X136610000Y-88310000D02*
X136760000Y-88310000D01*
X136760000Y-88310000D02*
X137810000Y-89360000D01*
D34*
X145110000Y-61210000D02*
X140860000Y-61210000D01*
X140860000Y-61210000D02*
X140160000Y-60510000D01*
X140160000Y-60510000D02*
X140160000Y-59160000D01*
D33*
X152510000Y-96210000D02*
X152510000Y-95410000D01*
X152510000Y-97010000D02*
X152510000Y-96210000D01*
X149910000Y-97560000D02*
X148460000Y-97560000D01*
X148460000Y-97560000D02*
X146260000Y-95360000D01*
X146260000Y-95360000D02*
X146260000Y-94010000D01*
X152060000Y-95410000D02*
X149910000Y-97560000D01*
X152510000Y-95410000D02*
X152060000Y-95410000D01*
D32*
X139660000Y-90610000D02*
X139210000Y-90160000D01*
X139660000Y-94010000D02*
X139660000Y-90610000D01*
D34*
X135310000Y-64410000D02*
X135310000Y-64110000D01*
X135310000Y-64110000D02*
X137010000Y-62410000D01*
X135310000Y-61870000D02*
X136350000Y-61870000D01*
X137460000Y-60760000D02*
X137460000Y-59160000D01*
X136350000Y-61870000D02*
X137460000Y-60760000D01*
X151560000Y-92960000D02*
X151910000Y-92610000D01*
X149160000Y-96610000D02*
X149360000Y-96410000D01*
X149360000Y-96410000D02*
X149560000Y-96410000D01*
X149560000Y-96410000D02*
X151560000Y-94410000D01*
X151560000Y-94410000D02*
X151560000Y-92960000D01*
X149110000Y-95610000D02*
X149110000Y-93610000D01*
X150110000Y-77596398D02*
X150110000Y-78135000D01*
X148509998Y-75996396D02*
X150110000Y-77596398D01*
X148509998Y-74909998D02*
X148509998Y-75996396D01*
X148110000Y-74510000D02*
X148509998Y-74909998D01*
X153460000Y-97210000D02*
X153660000Y-97010000D01*
X153660000Y-97010000D02*
X154210000Y-97010000D01*
X148960000Y-75810000D02*
X150760000Y-77610000D01*
X148960000Y-74510000D02*
X148960000Y-75810000D01*
X154060000Y-96210000D02*
X154210000Y-96210000D01*
X153960000Y-96110000D02*
X154060000Y-96210000D01*
X149560000Y-73710000D02*
X149960000Y-73310000D01*
X149560000Y-75460000D02*
X149560000Y-73710000D01*
X151160000Y-77060000D02*
X149560000Y-75460000D01*
X154210000Y-95410000D02*
X153660000Y-95410000D01*
X153260000Y-95010000D02*
X153260000Y-91010000D01*
X153660000Y-95410000D02*
X153260000Y-95010000D01*
X153260000Y-91010000D02*
X153260000Y-90410000D01*
X155860000Y-95610000D02*
X155660000Y-95410000D01*
X155660000Y-95410000D02*
X154210000Y-95410000D01*
D32*
X134710000Y-88310000D02*
X134710000Y-87260000D01*
X134710000Y-87260000D02*
X134760000Y-87210000D01*
D34*
X150610000Y-79735000D02*
X150610000Y-78835000D01*
X150610000Y-78835000D02*
X151785000Y-77660000D01*
X151785000Y-76235000D02*
X151310000Y-75760000D01*
X151785000Y-77660000D02*
X151785000Y-76235000D01*
D32*
X150610000Y-83235000D02*
X150610000Y-79735000D01*
D34*
X150110000Y-75210000D02*
X150660000Y-75760000D01*
X150660000Y-75760000D02*
X151310000Y-75760000D01*
X135310000Y-69360000D02*
X135360000Y-69360000D01*
X135360000Y-69360000D02*
X136510000Y-68210000D01*
X136510000Y-68210000D02*
X138210000Y-68210000D01*
X149160000Y-59010000D02*
X149160000Y-60460000D01*
X149160000Y-60460000D02*
X149910000Y-61210000D01*
D33*
X155265000Y-62175000D02*
X155175000Y-62175000D01*
X155175000Y-62175000D02*
X154720000Y-61720000D01*
X157835000Y-62175000D02*
X157165000Y-62175000D01*
X157960000Y-62050000D02*
X157835000Y-62175000D01*
D34*
X144259994Y-94710000D02*
X144259994Y-93459994D01*
X144259994Y-93459994D02*
X144010000Y-93210000D01*
X147430000Y-100520000D02*
X147430000Y-99323080D01*
X144259994Y-96153074D02*
X144259994Y-94710000D01*
X144259994Y-94710000D02*
X144259994Y-94660000D01*
X147430000Y-99323080D02*
X144259994Y-96153074D01*
X147430000Y-100520000D02*
X147430000Y-100180000D01*
X145666801Y-92666801D02*
X146473602Y-91860000D01*
X146473602Y-91860000D02*
X146760000Y-91860000D01*
X145399858Y-96020142D02*
X145159998Y-95780282D01*
X145159998Y-93173604D02*
X145666801Y-92666801D01*
X145666801Y-92666801D02*
X145723604Y-92609998D01*
X145549858Y-96170142D02*
X145399858Y-96020142D01*
X149110000Y-98871400D02*
X149110000Y-100160000D01*
X148014720Y-98635004D02*
X146199858Y-96820142D01*
X148873604Y-98635004D02*
X148014720Y-98635004D01*
X149110000Y-98871400D02*
X148873604Y-98635004D01*
X146199858Y-96820142D02*
X145549858Y-96170142D01*
X145159998Y-95780282D02*
X145159998Y-93173604D01*
X144890000Y-103060000D02*
X144890000Y-103689998D01*
X144890000Y-103689998D02*
X145610000Y-104409998D01*
X149110000Y-101460000D02*
X149110000Y-100160000D01*
X149110000Y-100160000D02*
X149110000Y-100096398D01*
X149110000Y-104160000D02*
X149110000Y-101460000D01*
X148860002Y-104409998D02*
X149110000Y-104160000D01*
X145610000Y-104409998D02*
X148860002Y-104409998D01*
X144890000Y-103060000D02*
X145010000Y-103060000D01*
X145537208Y-92159996D02*
X146537204Y-91160000D01*
X144709996Y-95966678D02*
X144709996Y-92987208D01*
X144709996Y-92987208D02*
X145537208Y-92159996D01*
X147430000Y-103060000D02*
X148659998Y-101830002D01*
X147878322Y-99135004D02*
X147156659Y-98413341D01*
X148659998Y-99135004D02*
X147878322Y-99135004D01*
X148659998Y-101830002D02*
X148659998Y-99135004D01*
X147156659Y-98413341D02*
X144709996Y-95966678D01*
X146537204Y-91160000D02*
X146560000Y-91160000D01*
X147430000Y-103060000D02*
X147460000Y-103060000D01*
X143360000Y-93110000D02*
X144060000Y-92410000D01*
X143809992Y-93959992D02*
X143360000Y-93510000D01*
X143360000Y-93510000D02*
X143360000Y-93110000D01*
X144890000Y-100520000D02*
X144890000Y-97419478D01*
X143809992Y-96339470D02*
X143809992Y-95060000D01*
X144890000Y-97419478D02*
X143809992Y-96339470D01*
X143809992Y-95060000D02*
X143809992Y-93959992D01*
X144890000Y-100520000D02*
X144890000Y-100040000D01*
X145910000Y-93060000D02*
X146360000Y-92610000D01*
X142350000Y-100550000D02*
X143610000Y-101810000D01*
X145610000Y-93360000D02*
X145910000Y-93060000D01*
X145610000Y-95593886D02*
X145610000Y-93360000D01*
X148201116Y-98185002D02*
X145610000Y-95593886D01*
X149060000Y-98185002D02*
X148201116Y-98185002D01*
X149560002Y-98685004D02*
X149060000Y-98185002D01*
X149560002Y-104346396D02*
X149560002Y-98685004D01*
X149046398Y-104860000D02*
X149560002Y-104346396D01*
X144210000Y-104860000D02*
X149046398Y-104860000D01*
X143610000Y-104260000D02*
X144210000Y-104860000D01*
X143610000Y-101810000D02*
X143610000Y-104260000D01*
X146360000Y-92610000D02*
X147010000Y-92610000D01*
X142350000Y-100520000D02*
X142350000Y-100550000D01*
X142350000Y-100520000D02*
X142350000Y-100000000D01*
X141910000Y-93360000D02*
X142060000Y-93360000D01*
X141460000Y-93360000D02*
X141910000Y-93360000D01*
X142060000Y-93360000D02*
X142560000Y-92860000D01*
X141460000Y-93360000D02*
X141460000Y-93359996D01*
X141110000Y-93710000D02*
X141460000Y-93360000D01*
X141110000Y-101560000D02*
X141110000Y-93710000D01*
X142350000Y-102800000D02*
X141110000Y-101560000D01*
X142350000Y-103060000D02*
X142350000Y-102800000D01*
X152460000Y-98510000D02*
X152510000Y-98460000D01*
X152510000Y-98460000D02*
X152510000Y-97810000D01*
D33*
X149420000Y-66290000D02*
X150920000Y-66290000D01*
X153740000Y-72910000D02*
X156140000Y-75310000D01*
X153740000Y-69110000D02*
X153740000Y-72910000D01*
X150920000Y-66290000D02*
X153740000Y-69110000D01*
D36*
G36*
X137456517Y-71809776D02*
X137419697Y-71824990D01*
X137026371Y-72217630D01*
X136813243Y-72730900D01*
X136812758Y-73286661D01*
X137024990Y-73800303D01*
X137075000Y-73850400D01*
X137075000Y-74658634D01*
X137025000Y-74910000D01*
X137075000Y-75161365D01*
X137075000Y-78625000D01*
X136595000Y-78625000D01*
X136595000Y-72936309D01*
X136595000Y-72345750D01*
X136436250Y-72187000D01*
X135437000Y-72187000D01*
X135437000Y-73286250D01*
X135595750Y-73445000D01*
X135833691Y-73445000D01*
X136086310Y-73445000D01*
X136319699Y-73348327D01*
X136498327Y-73169698D01*
X136595000Y-72936309D01*
X136595000Y-78625000D01*
X134895000Y-78625000D01*
X134895000Y-73445000D01*
X135024250Y-73445000D01*
X135183000Y-73286250D01*
X135183000Y-72187000D01*
X135163000Y-72187000D01*
X135163000Y-71933000D01*
X135183000Y-71933000D01*
X135183000Y-71913000D01*
X135437000Y-71913000D01*
X135437000Y-71933000D01*
X136436250Y-71933000D01*
X136595000Y-71774250D01*
X136595000Y-71183691D01*
X136498327Y-70950302D01*
X136319699Y-70771673D01*
X136181557Y-70714453D01*
X136202123Y-70710463D01*
X136414927Y-70570673D01*
X136557377Y-70359640D01*
X136607440Y-70110000D01*
X136607440Y-69187362D01*
X136824802Y-68970000D01*
X137012469Y-68970000D01*
X137024990Y-69000303D01*
X137417630Y-69393629D01*
X137456517Y-69409776D01*
X137419697Y-69424990D01*
X137026371Y-69817630D01*
X136813243Y-70330900D01*
X136812758Y-70886661D01*
X137024990Y-71400303D01*
X137417630Y-71793629D01*
X137456517Y-71809776D01*
X137456517Y-71809776D01*
G37*
X137456517Y-71809776D02*
X137419697Y-71824990D01*
X137026371Y-72217630D01*
X136813243Y-72730900D01*
X136812758Y-73286661D01*
X137024990Y-73800303D01*
X137075000Y-73850400D01*
X137075000Y-74658634D01*
X137025000Y-74910000D01*
X137075000Y-75161365D01*
X137075000Y-78625000D01*
X136595000Y-78625000D01*
X136595000Y-72936309D01*
X136595000Y-72345750D01*
X136436250Y-72187000D01*
X135437000Y-72187000D01*
X135437000Y-73286250D01*
X135595750Y-73445000D01*
X135833691Y-73445000D01*
X136086310Y-73445000D01*
X136319699Y-73348327D01*
X136498327Y-73169698D01*
X136595000Y-72936309D01*
X136595000Y-78625000D01*
X134895000Y-78625000D01*
X134895000Y-73445000D01*
X135024250Y-73445000D01*
X135183000Y-73286250D01*
X135183000Y-72187000D01*
X135163000Y-72187000D01*
X135163000Y-71933000D01*
X135183000Y-71933000D01*
X135183000Y-71913000D01*
X135437000Y-71913000D01*
X135437000Y-71933000D01*
X136436250Y-71933000D01*
X136595000Y-71774250D01*
X136595000Y-71183691D01*
X136498327Y-70950302D01*
X136319699Y-70771673D01*
X136181557Y-70714453D01*
X136202123Y-70710463D01*
X136414927Y-70570673D01*
X136557377Y-70359640D01*
X136607440Y-70110000D01*
X136607440Y-69187362D01*
X136824802Y-68970000D01*
X137012469Y-68970000D01*
X137024990Y-69000303D01*
X137417630Y-69393629D01*
X137456517Y-69409776D01*
X137419697Y-69424990D01*
X137026371Y-69817630D01*
X136813243Y-70330900D01*
X136812758Y-70886661D01*
X137024990Y-71400303D01*
X137417630Y-71793629D01*
X137456517Y-71809776D01*
G36*
X139957000Y-103187000D02*
X139937000Y-103187000D01*
X139937000Y-103207000D01*
X139683000Y-103207000D01*
X139683000Y-103187000D01*
X138470150Y-103187000D01*
X138311400Y-103345750D01*
X138311400Y-103600634D01*
X136204616Y-101361893D01*
X136328423Y-101238303D01*
X136502801Y-100818354D01*
X136503198Y-100363641D01*
X136329554Y-99943388D01*
X136008303Y-99621577D01*
X135739338Y-99509893D01*
X136118234Y-99434526D01*
X136604415Y-99109670D01*
X136929271Y-98623489D01*
X137043345Y-98050000D01*
X136929271Y-97476511D01*
X136604415Y-96990330D01*
X136588632Y-96979784D01*
X136618123Y-96974063D01*
X136830927Y-96834273D01*
X136973377Y-96623240D01*
X137023440Y-96373600D01*
X137023440Y-94646400D01*
X136976463Y-94404277D01*
X136836673Y-94191473D01*
X136625640Y-94049023D01*
X136617841Y-94047459D01*
X136617840Y-94047458D01*
X136499266Y-93870000D01*
X136524250Y-93870000D01*
X136683000Y-93711250D01*
X136683000Y-92737000D01*
X136663000Y-92737000D01*
X136663000Y-92483000D01*
X136683000Y-92483000D01*
X136683000Y-92463000D01*
X136937000Y-92463000D01*
X136937000Y-92483000D01*
X138036250Y-92483000D01*
X138195000Y-92324250D01*
X138195000Y-92111309D01*
X138195000Y-91858690D01*
X138098327Y-91625301D01*
X137919698Y-91446673D01*
X137686309Y-91350000D01*
X137491633Y-91350000D01*
X137532377Y-91289640D01*
X137582440Y-91040000D01*
X137582440Y-90449735D01*
X137810000Y-90495000D01*
X138129013Y-90431543D01*
X138161397Y-90594345D01*
X138407434Y-90962566D01*
X138525000Y-91080132D01*
X138525000Y-93539868D01*
X138195000Y-93869868D01*
X138195000Y-93361310D01*
X138195000Y-93108691D01*
X138195000Y-92895750D01*
X138036250Y-92737000D01*
X136937000Y-92737000D01*
X136937000Y-93711250D01*
X137095750Y-93870000D01*
X137686309Y-93870000D01*
X137919698Y-93773327D01*
X138098327Y-93594699D01*
X138195000Y-93361310D01*
X138195000Y-93869868D01*
X137957434Y-94107434D01*
X137711397Y-94475654D01*
X137625000Y-94910000D01*
X137625000Y-96610000D01*
X137625000Y-98110000D01*
X137711397Y-98544346D01*
X137957434Y-98912566D01*
X138640384Y-99595516D01*
X138425474Y-99917152D01*
X138311400Y-100490641D01*
X138311400Y-100549359D01*
X138425474Y-101122848D01*
X138740526Y-101594356D01*
X138586701Y-101658073D01*
X138408073Y-101836702D01*
X138311400Y-102070091D01*
X138311400Y-102774250D01*
X138470150Y-102933000D01*
X139683000Y-102933000D01*
X139683000Y-102913000D01*
X139937000Y-102913000D01*
X139937000Y-102933000D01*
X139957000Y-102933000D01*
X139957000Y-103187000D01*
X139957000Y-103187000D01*
G37*
X139957000Y-103187000D02*
X139937000Y-103187000D01*
X139937000Y-103207000D01*
X139683000Y-103207000D01*
X139683000Y-103187000D01*
X138470150Y-103187000D01*
X138311400Y-103345750D01*
X138311400Y-103600634D01*
X136204616Y-101361893D01*
X136328423Y-101238303D01*
X136502801Y-100818354D01*
X136503198Y-100363641D01*
X136329554Y-99943388D01*
X136008303Y-99621577D01*
X135739338Y-99509893D01*
X136118234Y-99434526D01*
X136604415Y-99109670D01*
X136929271Y-98623489D01*
X137043345Y-98050000D01*
X136929271Y-97476511D01*
X136604415Y-96990330D01*
X136588632Y-96979784D01*
X136618123Y-96974063D01*
X136830927Y-96834273D01*
X136973377Y-96623240D01*
X137023440Y-96373600D01*
X137023440Y-94646400D01*
X136976463Y-94404277D01*
X136836673Y-94191473D01*
X136625640Y-94049023D01*
X136617841Y-94047459D01*
X136617840Y-94047458D01*
X136499266Y-93870000D01*
X136524250Y-93870000D01*
X136683000Y-93711250D01*
X136683000Y-92737000D01*
X136663000Y-92737000D01*
X136663000Y-92483000D01*
X136683000Y-92483000D01*
X136683000Y-92463000D01*
X136937000Y-92463000D01*
X136937000Y-92483000D01*
X138036250Y-92483000D01*
X138195000Y-92324250D01*
X138195000Y-92111309D01*
X138195000Y-91858690D01*
X138098327Y-91625301D01*
X137919698Y-91446673D01*
X137686309Y-91350000D01*
X137491633Y-91350000D01*
X137532377Y-91289640D01*
X137582440Y-91040000D01*
X137582440Y-90449735D01*
X137810000Y-90495000D01*
X138129013Y-90431543D01*
X138161397Y-90594345D01*
X138407434Y-90962566D01*
X138525000Y-91080132D01*
X138525000Y-93539868D01*
X138195000Y-93869868D01*
X138195000Y-93361310D01*
X138195000Y-93108691D01*
X138195000Y-92895750D01*
X138036250Y-92737000D01*
X136937000Y-92737000D01*
X136937000Y-93711250D01*
X137095750Y-93870000D01*
X137686309Y-93870000D01*
X137919698Y-93773327D01*
X138098327Y-93594699D01*
X138195000Y-93361310D01*
X138195000Y-93869868D01*
X137957434Y-94107434D01*
X137711397Y-94475654D01*
X137625000Y-94910000D01*
X137625000Y-96610000D01*
X137625000Y-98110000D01*
X137711397Y-98544346D01*
X137957434Y-98912566D01*
X138640384Y-99595516D01*
X138425474Y-99917152D01*
X138311400Y-100490641D01*
X138311400Y-100549359D01*
X138425474Y-101122848D01*
X138740526Y-101594356D01*
X138586701Y-101658073D01*
X138408073Y-101836702D01*
X138311400Y-102070091D01*
X138311400Y-102774250D01*
X138470150Y-102933000D01*
X139683000Y-102933000D01*
X139683000Y-102913000D01*
X139937000Y-102913000D01*
X139937000Y-102933000D01*
X139957000Y-102933000D01*
X139957000Y-103187000D01*
G36*
X143975000Y-64639867D02*
X143693900Y-64920967D01*
X143693900Y-63833600D01*
X143641757Y-63571462D01*
X143493268Y-63349232D01*
X143271038Y-63200743D01*
X143008900Y-63148600D01*
X140108900Y-63148600D01*
X139846762Y-63200743D01*
X139624532Y-63349232D01*
X139476043Y-63571462D01*
X139423900Y-63833600D01*
X139423900Y-65833600D01*
X139476043Y-66095738D01*
X139624532Y-66317968D01*
X139846762Y-66466457D01*
X140108900Y-66518600D01*
X140571267Y-66518600D01*
X139475461Y-67614406D01*
X139395010Y-67419697D01*
X139002370Y-67026371D01*
X138489100Y-66813243D01*
X137933339Y-66812758D01*
X137419697Y-67024990D01*
X137026371Y-67417630D01*
X137012929Y-67450000D01*
X136547704Y-67450000D01*
X136655927Y-67142520D01*
X136627148Y-66612801D01*
X136479800Y-66257071D01*
X136244188Y-66195417D01*
X135489605Y-66950000D01*
X135503747Y-66964142D01*
X135324142Y-67143747D01*
X135310000Y-67129605D01*
X135295857Y-67143747D01*
X135116252Y-66964142D01*
X135130395Y-66950000D01*
X135116252Y-66935857D01*
X135295857Y-66756252D01*
X135310000Y-66770395D01*
X136064583Y-66015812D01*
X136002929Y-65780200D01*
X135723688Y-65681916D01*
X136064380Y-65541146D01*
X136439827Y-65166353D01*
X136643268Y-64676413D01*
X136643731Y-64145914D01*
X136557524Y-63937277D01*
X137301969Y-63192832D01*
X137482372Y-63118292D01*
X137717466Y-62883607D01*
X137844855Y-62576821D01*
X137845145Y-62244637D01*
X137718292Y-61937628D01*
X137537890Y-61756911D01*
X137997401Y-61297401D01*
X138162148Y-61050839D01*
X138220000Y-60760000D01*
X138220000Y-60455499D01*
X138452123Y-60410463D01*
X138664927Y-60270673D01*
X138807377Y-60059640D01*
X138809216Y-60050469D01*
X138809537Y-60052123D01*
X138949327Y-60264927D01*
X139160360Y-60407377D01*
X139325060Y-60440406D01*
X139324855Y-60675363D01*
X139451708Y-60982372D01*
X139686393Y-61217466D01*
X139868125Y-61292928D01*
X140322598Y-61747401D01*
X140322599Y-61747401D01*
X140487345Y-61857480D01*
X140569160Y-61912147D01*
X140569161Y-61912148D01*
X140860000Y-61970000D01*
X143912469Y-61970000D01*
X143924990Y-62000303D01*
X143975000Y-62050400D01*
X143975000Y-64639867D01*
X143975000Y-64639867D01*
G37*
X143975000Y-64639867D02*
X143693900Y-64920967D01*
X143693900Y-63833600D01*
X143641757Y-63571462D01*
X143493268Y-63349232D01*
X143271038Y-63200743D01*
X143008900Y-63148600D01*
X140108900Y-63148600D01*
X139846762Y-63200743D01*
X139624532Y-63349232D01*
X139476043Y-63571462D01*
X139423900Y-63833600D01*
X139423900Y-65833600D01*
X139476043Y-66095738D01*
X139624532Y-66317968D01*
X139846762Y-66466457D01*
X140108900Y-66518600D01*
X140571267Y-66518600D01*
X139475461Y-67614406D01*
X139395010Y-67419697D01*
X139002370Y-67026371D01*
X138489100Y-66813243D01*
X137933339Y-66812758D01*
X137419697Y-67024990D01*
X137026371Y-67417630D01*
X137012929Y-67450000D01*
X136547704Y-67450000D01*
X136655927Y-67142520D01*
X136627148Y-66612801D01*
X136479800Y-66257071D01*
X136244188Y-66195417D01*
X135489605Y-66950000D01*
X135503747Y-66964142D01*
X135324142Y-67143747D01*
X135310000Y-67129605D01*
X135295857Y-67143747D01*
X135116252Y-66964142D01*
X135130395Y-66950000D01*
X135116252Y-66935857D01*
X135295857Y-66756252D01*
X135310000Y-66770395D01*
X136064583Y-66015812D01*
X136002929Y-65780200D01*
X135723688Y-65681916D01*
X136064380Y-65541146D01*
X136439827Y-65166353D01*
X136643268Y-64676413D01*
X136643731Y-64145914D01*
X136557524Y-63937277D01*
X137301969Y-63192832D01*
X137482372Y-63118292D01*
X137717466Y-62883607D01*
X137844855Y-62576821D01*
X137845145Y-62244637D01*
X137718292Y-61937628D01*
X137537890Y-61756911D01*
X137997401Y-61297401D01*
X138162148Y-61050839D01*
X138220000Y-60760000D01*
X138220000Y-60455499D01*
X138452123Y-60410463D01*
X138664927Y-60270673D01*
X138807377Y-60059640D01*
X138809216Y-60050469D01*
X138809537Y-60052123D01*
X138949327Y-60264927D01*
X139160360Y-60407377D01*
X139325060Y-60440406D01*
X139324855Y-60675363D01*
X139451708Y-60982372D01*
X139686393Y-61217466D01*
X139868125Y-61292928D01*
X140322598Y-61747401D01*
X140322599Y-61747401D01*
X140487345Y-61857480D01*
X140569160Y-61912147D01*
X140569161Y-61912148D01*
X140860000Y-61970000D01*
X143912469Y-61970000D01*
X143924990Y-62000303D01*
X143975000Y-62050400D01*
X143975000Y-64639867D01*
G36*
X156481711Y-61029038D02*
X156342000Y-61168750D01*
X156342000Y-61248137D01*
X156242623Y-61395360D01*
X156215370Y-61531253D01*
X156190463Y-61402877D01*
X156088000Y-61246896D01*
X156088000Y-61168750D01*
X155956137Y-61036887D01*
X155983025Y-61010000D01*
X156128327Y-60864698D01*
X156219597Y-60644352D01*
X156239537Y-60747123D01*
X156379327Y-60959927D01*
X156453507Y-61010000D01*
X156481711Y-61029038D01*
X156481711Y-61029038D01*
G37*
X156481711Y-61029038D02*
X156342000Y-61168750D01*
X156342000Y-61248137D01*
X156242623Y-61395360D01*
X156215370Y-61531253D01*
X156190463Y-61402877D01*
X156088000Y-61246896D01*
X156088000Y-61168750D01*
X155956137Y-61036887D01*
X155983025Y-61010000D01*
X156128327Y-60864698D01*
X156219597Y-60644352D01*
X156239537Y-60747123D01*
X156379327Y-60959927D01*
X156453507Y-61010000D01*
X156481711Y-61029038D01*
G36*
X157039868Y-58725000D02*
X156967308Y-58797560D01*
X156840000Y-58797560D01*
X156597877Y-58844537D01*
X156385073Y-58984327D01*
X156242623Y-59195360D01*
X156220209Y-59307125D01*
X156128327Y-59085302D01*
X155949699Y-58906673D01*
X155716310Y-58810000D01*
X155550750Y-58810000D01*
X155392000Y-58968750D01*
X155392000Y-59848000D01*
X155412000Y-59848000D01*
X155412000Y-60102000D01*
X155392000Y-60102000D01*
X155392000Y-60122000D01*
X155138000Y-60122000D01*
X155138000Y-60102000D01*
X155138000Y-59848000D01*
X155138000Y-58968750D01*
X154979250Y-58810000D01*
X154813690Y-58810000D01*
X154580301Y-58906673D01*
X154401673Y-59085302D01*
X154305000Y-59318691D01*
X154305000Y-59689250D01*
X154463750Y-59848000D01*
X155138000Y-59848000D01*
X155138000Y-60102000D01*
X154463750Y-60102000D01*
X154305000Y-60260750D01*
X154305000Y-60631309D01*
X154392887Y-60843488D01*
X154191057Y-60926883D01*
X153927808Y-61189673D01*
X153785162Y-61533201D01*
X153784838Y-61905167D01*
X153926883Y-62248943D01*
X154058855Y-62381145D01*
X154189673Y-62512192D01*
X154190064Y-62512354D01*
X154292560Y-62614850D01*
X154292560Y-62705000D01*
X154339537Y-62947123D01*
X154471886Y-63148600D01*
X153245000Y-63148600D01*
X153245000Y-59786310D01*
X153245000Y-59533691D01*
X153245000Y-59295750D01*
X153086250Y-59137000D01*
X151987000Y-59137000D01*
X151987000Y-60136250D01*
X152145750Y-60295000D01*
X152736309Y-60295000D01*
X152969698Y-60198327D01*
X153148327Y-60019699D01*
X153245000Y-59786310D01*
X153245000Y-63148600D01*
X152008900Y-63148600D01*
X151746762Y-63200743D01*
X151524532Y-63349232D01*
X151376043Y-63571462D01*
X151323900Y-63833600D01*
X151323900Y-65153600D01*
X151376043Y-65415738D01*
X151467870Y-65553167D01*
X151277809Y-65426173D01*
X150920000Y-65355000D01*
X149420816Y-65355000D01*
X149234833Y-65354838D01*
X149000526Y-65451651D01*
X149043900Y-65233600D01*
X148927055Y-64646181D01*
X148594309Y-64148191D01*
X148096319Y-63815445D01*
X147508900Y-63698600D01*
X146921481Y-63815445D01*
X146423491Y-64148191D01*
X146245000Y-64415321D01*
X146245000Y-62050914D01*
X146293629Y-62002370D01*
X146309776Y-61963482D01*
X146324990Y-62000303D01*
X146717630Y-62393629D01*
X147230900Y-62606757D01*
X147786661Y-62607242D01*
X148300303Y-62395010D01*
X148693629Y-62002370D01*
X148709776Y-61963482D01*
X148724990Y-62000303D01*
X149117630Y-62393629D01*
X149630900Y-62606757D01*
X150186661Y-62607242D01*
X150700303Y-62395010D01*
X151093629Y-62002370D01*
X151306757Y-61489100D01*
X151307242Y-60933339D01*
X151095010Y-60419697D01*
X150961252Y-60285705D01*
X150983691Y-60295000D01*
X151574250Y-60295000D01*
X151733000Y-60136250D01*
X151733000Y-59137000D01*
X151713000Y-59137000D01*
X151713000Y-58883000D01*
X151733000Y-58883000D01*
X151733000Y-58863000D01*
X151987000Y-58863000D01*
X151987000Y-58883000D01*
X153086250Y-58883000D01*
X153244250Y-58725000D01*
X157039868Y-58725000D01*
X157039868Y-58725000D01*
G37*
X157039868Y-58725000D02*
X156967308Y-58797560D01*
X156840000Y-58797560D01*
X156597877Y-58844537D01*
X156385073Y-58984327D01*
X156242623Y-59195360D01*
X156220209Y-59307125D01*
X156128327Y-59085302D01*
X155949699Y-58906673D01*
X155716310Y-58810000D01*
X155550750Y-58810000D01*
X155392000Y-58968750D01*
X155392000Y-59848000D01*
X155412000Y-59848000D01*
X155412000Y-60102000D01*
X155392000Y-60102000D01*
X155392000Y-60122000D01*
X155138000Y-60122000D01*
X155138000Y-60102000D01*
X155138000Y-59848000D01*
X155138000Y-58968750D01*
X154979250Y-58810000D01*
X154813690Y-58810000D01*
X154580301Y-58906673D01*
X154401673Y-59085302D01*
X154305000Y-59318691D01*
X154305000Y-59689250D01*
X154463750Y-59848000D01*
X155138000Y-59848000D01*
X155138000Y-60102000D01*
X154463750Y-60102000D01*
X154305000Y-60260750D01*
X154305000Y-60631309D01*
X154392887Y-60843488D01*
X154191057Y-60926883D01*
X153927808Y-61189673D01*
X153785162Y-61533201D01*
X153784838Y-61905167D01*
X153926883Y-62248943D01*
X154058855Y-62381145D01*
X154189673Y-62512192D01*
X154190064Y-62512354D01*
X154292560Y-62614850D01*
X154292560Y-62705000D01*
X154339537Y-62947123D01*
X154471886Y-63148600D01*
X153245000Y-63148600D01*
X153245000Y-59786310D01*
X153245000Y-59533691D01*
X153245000Y-59295750D01*
X153086250Y-59137000D01*
X151987000Y-59137000D01*
X151987000Y-60136250D01*
X152145750Y-60295000D01*
X152736309Y-60295000D01*
X152969698Y-60198327D01*
X153148327Y-60019699D01*
X153245000Y-59786310D01*
X153245000Y-63148600D01*
X152008900Y-63148600D01*
X151746762Y-63200743D01*
X151524532Y-63349232D01*
X151376043Y-63571462D01*
X151323900Y-63833600D01*
X151323900Y-65153600D01*
X151376043Y-65415738D01*
X151467870Y-65553167D01*
X151277809Y-65426173D01*
X150920000Y-65355000D01*
X149420816Y-65355000D01*
X149234833Y-65354838D01*
X149000526Y-65451651D01*
X149043900Y-65233600D01*
X148927055Y-64646181D01*
X148594309Y-64148191D01*
X148096319Y-63815445D01*
X147508900Y-63698600D01*
X146921481Y-63815445D01*
X146423491Y-64148191D01*
X146245000Y-64415321D01*
X146245000Y-62050914D01*
X146293629Y-62002370D01*
X146309776Y-61963482D01*
X146324990Y-62000303D01*
X146717630Y-62393629D01*
X147230900Y-62606757D01*
X147786661Y-62607242D01*
X148300303Y-62395010D01*
X148693629Y-62002370D01*
X148709776Y-61963482D01*
X148724990Y-62000303D01*
X149117630Y-62393629D01*
X149630900Y-62606757D01*
X150186661Y-62607242D01*
X150700303Y-62395010D01*
X151093629Y-62002370D01*
X151306757Y-61489100D01*
X151307242Y-60933339D01*
X151095010Y-60419697D01*
X150961252Y-60285705D01*
X150983691Y-60295000D01*
X151574250Y-60295000D01*
X151733000Y-60136250D01*
X151733000Y-59137000D01*
X151713000Y-59137000D01*
X151713000Y-58883000D01*
X151733000Y-58883000D01*
X151733000Y-58863000D01*
X151987000Y-58863000D01*
X151987000Y-58883000D01*
X153086250Y-58883000D01*
X153244250Y-58725000D01*
X157039868Y-58725000D01*
G36*
X165925000Y-92425000D02*
X162612878Y-92425000D01*
X162722663Y-92379638D01*
X163028026Y-92074807D01*
X163193491Y-91676323D01*
X163193868Y-91244850D01*
X163193868Y-86845570D01*
X163029098Y-86446797D01*
X162724267Y-86141434D01*
X162325783Y-85975969D01*
X161894310Y-85975592D01*
X161495537Y-86140362D01*
X161190174Y-86445193D01*
X161024709Y-86843677D01*
X161024681Y-86874966D01*
X161020998Y-86871283D01*
X160787609Y-86774610D01*
X159796430Y-86774610D01*
X159637680Y-86933360D01*
X159637680Y-87534705D01*
X159657680Y-87534705D01*
X159657680Y-87784895D01*
X159637680Y-87784895D01*
X159637680Y-88386240D01*
X159796430Y-88544990D01*
X160787609Y-88544990D01*
X161020998Y-88448317D01*
X161199627Y-88269689D01*
X161296300Y-88036300D01*
X161296300Y-87943645D01*
X161139457Y-87786802D01*
X161296300Y-87786802D01*
X161296300Y-87781308D01*
X161493933Y-87979286D01*
X161892417Y-88144751D01*
X162323890Y-88145128D01*
X162722663Y-87980358D01*
X163028026Y-87675527D01*
X163193491Y-87277043D01*
X163193868Y-86845570D01*
X163193868Y-91244850D01*
X163029098Y-90846077D01*
X162724267Y-90540714D01*
X162325783Y-90375249D01*
X161894310Y-90374872D01*
X161695832Y-90456881D01*
X161562566Y-90257434D01*
X161362766Y-90057634D01*
X161296300Y-90013222D01*
X160994546Y-89811597D01*
X160560200Y-89725200D01*
X159510680Y-89725200D01*
X159076334Y-89811597D01*
X158850387Y-89962570D01*
X158360060Y-89962570D01*
X158117937Y-90009547D01*
X157905133Y-90149337D01*
X157762683Y-90360370D01*
X157712620Y-90610010D01*
X157712620Y-91110390D01*
X157759597Y-91352513D01*
X157899387Y-91565317D01*
X158110420Y-91707767D01*
X158360060Y-91757830D01*
X158850387Y-91757830D01*
X159076334Y-91908803D01*
X159510680Y-91995200D01*
X159624881Y-91995200D01*
X159624821Y-92063150D01*
X158360060Y-92063150D01*
X158117937Y-92110127D01*
X157905133Y-92249917D01*
X157762683Y-92460950D01*
X157712620Y-92710590D01*
X157712620Y-94709570D01*
X157759597Y-94951693D01*
X157899387Y-95164497D01*
X158110420Y-95306947D01*
X158360060Y-95357010D01*
X160801758Y-95357010D01*
X160162030Y-99899079D01*
X156623440Y-103660756D01*
X156623440Y-102094000D01*
X156576463Y-101851877D01*
X156436673Y-101639073D01*
X156276956Y-101531262D01*
X156366385Y-101434818D01*
X156565975Y-100952944D01*
X156565975Y-100187056D01*
X156366385Y-99705182D01*
X155928379Y-99232812D01*
X155342946Y-98964017D01*
X155295000Y-98986237D01*
X155295000Y-98136310D01*
X155295000Y-98068750D01*
X155136250Y-97910000D01*
X154337000Y-97910000D01*
X154337000Y-98486250D01*
X154495750Y-98645000D01*
X154786309Y-98645000D01*
X155019698Y-98548327D01*
X155198327Y-98369699D01*
X155295000Y-98136310D01*
X155295000Y-98986237D01*
X155087000Y-99082633D01*
X155087000Y-100443000D01*
X156446836Y-100443000D01*
X156565975Y-100187056D01*
X156565975Y-100952944D01*
X156446836Y-100697000D01*
X155087000Y-100697000D01*
X155087000Y-100717000D01*
X154833000Y-100717000D01*
X154833000Y-100697000D01*
X154833000Y-100443000D01*
X154833000Y-99082633D01*
X154577054Y-98964017D01*
X153991621Y-99232812D01*
X153553615Y-99705182D01*
X153354025Y-100187056D01*
X153473164Y-100443000D01*
X154833000Y-100443000D01*
X154833000Y-100697000D01*
X153473164Y-100697000D01*
X153354025Y-100952944D01*
X153553615Y-101434818D01*
X153643574Y-101531835D01*
X153489073Y-101633327D01*
X153346623Y-101844360D01*
X153296560Y-102094000D01*
X153296560Y-104126000D01*
X153343537Y-104368123D01*
X153377537Y-104419882D01*
X152403939Y-104421561D01*
X152559778Y-104317433D01*
X152917670Y-103781810D01*
X153043345Y-103150000D01*
X152917670Y-102518190D01*
X152690830Y-102178701D01*
X152830927Y-102086673D01*
X152973377Y-101875640D01*
X153023440Y-101626000D01*
X153023440Y-99594000D01*
X152976463Y-99351877D01*
X152898032Y-99232480D01*
X152932372Y-99218292D01*
X153167466Y-98983607D01*
X153294855Y-98676821D01*
X153294966Y-98549474D01*
X153359232Y-98507258D01*
X153400302Y-98548327D01*
X153633691Y-98645000D01*
X153924250Y-98645000D01*
X154083000Y-98486250D01*
X154083000Y-97910000D01*
X154063000Y-97910000D01*
X154063000Y-97857440D01*
X154660000Y-97857440D01*
X154902123Y-97810463D01*
X155055059Y-97710000D01*
X155136250Y-97710000D01*
X155295000Y-97551250D01*
X155295000Y-97483690D01*
X155266400Y-97414644D01*
X155307440Y-97210000D01*
X155307440Y-96810000D01*
X155267994Y-96606695D01*
X155307440Y-96410000D01*
X155307440Y-96238375D01*
X155386393Y-96317466D01*
X155693179Y-96444855D01*
X156025363Y-96445145D01*
X156332372Y-96318292D01*
X156567466Y-96083607D01*
X156694855Y-95776821D01*
X156695145Y-95444637D01*
X156568292Y-95137628D01*
X156333607Y-94902534D01*
X156092147Y-94802270D01*
X155995000Y-94737359D01*
X155995000Y-93386310D01*
X155995000Y-93133691D01*
X155995000Y-92895750D01*
X155995000Y-92324250D01*
X155995000Y-92086309D01*
X155995000Y-91833690D01*
X155898327Y-91600301D01*
X155719698Y-91421673D01*
X155486309Y-91325000D01*
X154895750Y-91325000D01*
X154737000Y-91483750D01*
X154737000Y-92483000D01*
X155836250Y-92483000D01*
X155995000Y-92324250D01*
X155995000Y-92895750D01*
X155836250Y-92737000D01*
X154737000Y-92737000D01*
X154737000Y-93736250D01*
X154895750Y-93895000D01*
X155486309Y-93895000D01*
X155719698Y-93798327D01*
X155898327Y-93619699D01*
X155995000Y-93386310D01*
X155995000Y-94737359D01*
X155950839Y-94707852D01*
X155660000Y-94650000D01*
X154965012Y-94650000D01*
X154909640Y-94612623D01*
X154660000Y-94562560D01*
X154020000Y-94562560D01*
X154020000Y-93895000D01*
X154324250Y-93895000D01*
X154483000Y-93736250D01*
X154483000Y-92737000D01*
X154463000Y-92737000D01*
X154463000Y-92483000D01*
X154483000Y-92483000D01*
X154483000Y-91483750D01*
X154324250Y-91325000D01*
X154020000Y-91325000D01*
X154020000Y-91010000D01*
X154020000Y-90757091D01*
X154094855Y-90576821D01*
X154095145Y-90244637D01*
X153968292Y-89937628D01*
X153733607Y-89702534D01*
X153426821Y-89575145D01*
X153094637Y-89574855D01*
X152787628Y-89701708D01*
X152552534Y-89936393D01*
X152425145Y-90243179D01*
X152424855Y-90575363D01*
X152500000Y-90757228D01*
X152500000Y-91010000D01*
X152500000Y-91312560D01*
X151160000Y-91312560D01*
X150917877Y-91359537D01*
X150705073Y-91499327D01*
X150562623Y-91710360D01*
X150512560Y-91960000D01*
X150512560Y-93260000D01*
X150559537Y-93502123D01*
X150699327Y-93714927D01*
X150800000Y-93782882D01*
X150800000Y-94095198D01*
X149870000Y-95025198D01*
X149870000Y-93957091D01*
X149944855Y-93776821D01*
X149945145Y-93444637D01*
X149818292Y-93137628D01*
X149583607Y-92902534D01*
X149276821Y-92775145D01*
X148944637Y-92774855D01*
X148637628Y-92901708D01*
X148402534Y-93136393D01*
X148275145Y-93443179D01*
X148274855Y-93775363D01*
X148350000Y-93957228D01*
X148350000Y-95262908D01*
X148275145Y-95443179D01*
X148274855Y-95775363D01*
X148401708Y-96082372D01*
X148454087Y-96134842D01*
X148452534Y-96136393D01*
X148424997Y-96202707D01*
X147195000Y-94972710D01*
X147195000Y-94010000D01*
X147123827Y-93652191D01*
X146985372Y-93444979D01*
X147175363Y-93445145D01*
X147482372Y-93318292D01*
X147717466Y-93083607D01*
X147844855Y-92776821D01*
X147845145Y-92444637D01*
X147718292Y-92137628D01*
X147594866Y-92013987D01*
X147595145Y-91694637D01*
X147468292Y-91387628D01*
X147448787Y-91368089D01*
X147652447Y-91408600D01*
X148849637Y-91170464D01*
X149864566Y-90492310D01*
X150542720Y-89477381D01*
X150780856Y-88280191D01*
X150542720Y-87083001D01*
X149864566Y-86068072D01*
X148849637Y-85389918D01*
X147745000Y-85170191D01*
X147745000Y-84361310D01*
X147745000Y-84108691D01*
X147745000Y-83520750D01*
X147745000Y-82949250D01*
X147745000Y-82361309D01*
X147745000Y-82108690D01*
X147745000Y-80861310D01*
X147745000Y-80608691D01*
X147745000Y-80020750D01*
X147745000Y-79449250D01*
X147745000Y-78861309D01*
X147745000Y-78608690D01*
X147648327Y-78375301D01*
X147469698Y-78196673D01*
X147236309Y-78100000D01*
X146395750Y-78100000D01*
X146237000Y-78258750D01*
X146237000Y-79608000D01*
X147586250Y-79608000D01*
X147745000Y-79449250D01*
X147745000Y-80020750D01*
X147586250Y-79862000D01*
X146237000Y-79862000D01*
X146237000Y-81211250D01*
X146395750Y-81370000D01*
X147236309Y-81370000D01*
X147469698Y-81273327D01*
X147648327Y-81094699D01*
X147745000Y-80861310D01*
X147745000Y-82108690D01*
X147648327Y-81875301D01*
X147469698Y-81696673D01*
X147236309Y-81600000D01*
X146395750Y-81600000D01*
X146237000Y-81758750D01*
X146237000Y-83108000D01*
X147586250Y-83108000D01*
X147745000Y-82949250D01*
X147745000Y-83520750D01*
X147586250Y-83362000D01*
X146237000Y-83362000D01*
X146237000Y-84711250D01*
X146395750Y-84870000D01*
X147236309Y-84870000D01*
X147469698Y-84773327D01*
X147648327Y-84594699D01*
X147745000Y-84361310D01*
X147745000Y-85170191D01*
X147652447Y-85151782D01*
X146455257Y-85389918D01*
X145983000Y-85705470D01*
X145983000Y-84711250D01*
X145983000Y-83362000D01*
X145983000Y-83108000D01*
X145983000Y-81758750D01*
X145983000Y-81211250D01*
X145983000Y-79862000D01*
X145983000Y-79608000D01*
X145983000Y-78258750D01*
X145824250Y-78100000D01*
X144983691Y-78100000D01*
X144750302Y-78196673D01*
X144571673Y-78375301D01*
X144475000Y-78608690D01*
X144475000Y-78860405D01*
X144398327Y-78675301D01*
X144219698Y-78496673D01*
X143986309Y-78400000D01*
X143395750Y-78400000D01*
X143237000Y-78558750D01*
X143237000Y-79533000D01*
X144336250Y-79533000D01*
X144475000Y-79394250D01*
X144475000Y-79449250D01*
X144633750Y-79608000D01*
X145983000Y-79608000D01*
X145983000Y-79862000D01*
X144633750Y-79862000D01*
X144495000Y-80000750D01*
X144495000Y-79945750D01*
X144336250Y-79787000D01*
X143237000Y-79787000D01*
X143237000Y-80761250D01*
X143395750Y-80920000D01*
X143986309Y-80920000D01*
X144219698Y-80823327D01*
X144398327Y-80644699D01*
X144475000Y-80459594D01*
X144475000Y-80608691D01*
X144475000Y-80861310D01*
X144571673Y-81094699D01*
X144750302Y-81273327D01*
X144983691Y-81370000D01*
X145824250Y-81370000D01*
X145983000Y-81211250D01*
X145983000Y-81758750D01*
X145824250Y-81600000D01*
X144983691Y-81600000D01*
X144750302Y-81696673D01*
X144571673Y-81875301D01*
X144475000Y-82108690D01*
X144475000Y-82361309D01*
X144475000Y-82949250D01*
X144633750Y-83108000D01*
X145983000Y-83108000D01*
X145983000Y-83362000D01*
X144633750Y-83362000D01*
X144475000Y-83520750D01*
X144475000Y-84108691D01*
X144475000Y-84361310D01*
X144571673Y-84594699D01*
X144750302Y-84773327D01*
X144983691Y-84870000D01*
X145824250Y-84870000D01*
X145983000Y-84711250D01*
X145983000Y-85705470D01*
X145440328Y-86068072D01*
X144762174Y-87083001D01*
X144524038Y-88280191D01*
X144762174Y-89477381D01*
X145440328Y-90492310D01*
X145826092Y-90750069D01*
X145793258Y-90829143D01*
X144999807Y-91622595D01*
X144726569Y-91895832D01*
X144533607Y-91702534D01*
X144226821Y-91575145D01*
X143894637Y-91574855D01*
X143587628Y-91701708D01*
X143352534Y-91936393D01*
X143277071Y-92118125D01*
X143138044Y-92257153D01*
X143033607Y-92152534D01*
X142726821Y-92025145D01*
X142394637Y-92024855D01*
X142087628Y-92151708D01*
X141852534Y-92386393D01*
X141777071Y-92568126D01*
X141745198Y-92600000D01*
X141460020Y-92600000D01*
X141460000Y-92599996D01*
X141169161Y-92657848D01*
X140922599Y-92822595D01*
X140922590Y-92822607D01*
X140795000Y-92950198D01*
X140795000Y-90610000D01*
X140708603Y-90175655D01*
X140708603Y-90175654D01*
X140462566Y-89807434D01*
X140012566Y-89357434D01*
X139644345Y-89111397D01*
X139210000Y-89025000D01*
X138890986Y-89088456D01*
X138858603Y-88925655D01*
X138845606Y-88906204D01*
X139242571Y-88827243D01*
X139964413Y-88344924D01*
X140446732Y-87623082D01*
X140616100Y-86771611D01*
X140446732Y-85920140D01*
X139964413Y-85198298D01*
X139242571Y-84715979D01*
X138993402Y-84666416D01*
X139208603Y-84344346D01*
X139294999Y-83910000D01*
X139295000Y-83910000D01*
X139295000Y-80795000D01*
X139480915Y-80795000D01*
X139610360Y-80882377D01*
X139860000Y-80932440D01*
X141360000Y-80932440D01*
X141602123Y-80885463D01*
X141814927Y-80745673D01*
X141858337Y-80681362D01*
X142000302Y-80823327D01*
X142233691Y-80920000D01*
X142824250Y-80920000D01*
X142983000Y-80761250D01*
X142983000Y-79787000D01*
X142963000Y-79787000D01*
X142963000Y-79533000D01*
X142983000Y-79533000D01*
X142983000Y-78558750D01*
X142824250Y-78400000D01*
X142233691Y-78400000D01*
X142000302Y-78496673D01*
X141858823Y-78638150D01*
X141820673Y-78580073D01*
X141609640Y-78437623D01*
X141360000Y-78387560D01*
X139860000Y-78387560D01*
X139617877Y-78434537D01*
X139480164Y-78525000D01*
X139345000Y-78525000D01*
X139345000Y-75670000D01*
X139423900Y-75670000D01*
X139423900Y-77333600D01*
X139476043Y-77595738D01*
X139624532Y-77817968D01*
X139846762Y-77966457D01*
X140108900Y-78018600D01*
X143008900Y-78018600D01*
X143271038Y-77966457D01*
X143493268Y-77817968D01*
X143641757Y-77595738D01*
X143693900Y-77333600D01*
X143693900Y-76013600D01*
X143641757Y-75751462D01*
X143493268Y-75529232D01*
X143271038Y-75380743D01*
X143008900Y-75328600D01*
X142538204Y-75328600D01*
X142644838Y-75071799D01*
X142645162Y-74699833D01*
X142503117Y-74356057D01*
X142240327Y-74092808D01*
X141896799Y-73950162D01*
X141524833Y-73949838D01*
X141181057Y-74091883D01*
X141122838Y-74150000D01*
X139345000Y-74150000D01*
X139345000Y-74138038D01*
X139744345Y-74058603D01*
X139744346Y-74058603D01*
X140112566Y-73812566D01*
X140730132Y-73195000D01*
X144535000Y-73195000D01*
X144969346Y-73108603D01*
X145337566Y-72862566D01*
X145538933Y-72561198D01*
X147187566Y-70912566D01*
X147433603Y-70544345D01*
X147520000Y-70110000D01*
X147433603Y-69675655D01*
X147187566Y-69307434D01*
X146819345Y-69061397D01*
X146385000Y-68975000D01*
X145950655Y-69061397D01*
X145582434Y-69307434D01*
X143964868Y-70925000D01*
X141395000Y-70925000D01*
X141395000Y-69135000D01*
X141395000Y-68905132D01*
X143055132Y-67245000D01*
X144110000Y-67245000D01*
X144544345Y-67158603D01*
X144544346Y-67158603D01*
X144912566Y-66912566D01*
X145912566Y-65912566D01*
X145912567Y-65912566D01*
X146063903Y-65686075D01*
X146090745Y-65821019D01*
X146423491Y-66319009D01*
X146921481Y-66651755D01*
X147508900Y-66768600D01*
X148096319Y-66651755D01*
X148484910Y-66392106D01*
X148484838Y-66475167D01*
X148626883Y-66818943D01*
X148758855Y-66951145D01*
X148889673Y-67082192D01*
X149233201Y-67224838D01*
X149420000Y-67225000D01*
X149605167Y-67225162D01*
X149605559Y-67225000D01*
X150532710Y-67225000D01*
X152805000Y-69497290D01*
X152805000Y-72910000D01*
X152876173Y-73267809D01*
X153078855Y-73571145D01*
X154152710Y-74645000D01*
X153960000Y-74645000D01*
X153697862Y-74697143D01*
X153475632Y-74845632D01*
X153327143Y-75067862D01*
X153326589Y-75070643D01*
X153326043Y-75071462D01*
X153275610Y-75325000D01*
X152033733Y-75325000D01*
X152018292Y-75287628D01*
X151783607Y-75052534D01*
X151476821Y-74925145D01*
X151144637Y-74924855D01*
X150971284Y-74996482D01*
X150892832Y-74918030D01*
X150818292Y-74737628D01*
X150583607Y-74502534D01*
X150320000Y-74393074D01*
X150320000Y-74064722D01*
X150432372Y-74018292D01*
X150667466Y-73783607D01*
X150794855Y-73476821D01*
X150795145Y-73144637D01*
X150668292Y-72837628D01*
X150433607Y-72602534D01*
X150126821Y-72475145D01*
X149794637Y-72474855D01*
X149487628Y-72601708D01*
X149252534Y-72836393D01*
X149177071Y-73018126D01*
X149022599Y-73172599D01*
X148857852Y-73419161D01*
X148806988Y-73674865D01*
X148794637Y-73674855D01*
X148534739Y-73782242D01*
X148276821Y-73675145D01*
X147944637Y-73674855D01*
X147637628Y-73801708D01*
X147402534Y-74036393D01*
X147275145Y-74343179D01*
X147274855Y-74675363D01*
X147401708Y-74982372D01*
X147636393Y-75217466D01*
X147749998Y-75264639D01*
X147749998Y-75996396D01*
X147807850Y-76287235D01*
X147972597Y-76533797D01*
X149313825Y-77875025D01*
X149275145Y-77968179D01*
X149274946Y-78195582D01*
X149155073Y-78274327D01*
X149012623Y-78485360D01*
X148962560Y-78735000D01*
X148962560Y-80735000D01*
X149009537Y-80977123D01*
X149149327Y-81189927D01*
X149360360Y-81332377D01*
X149475000Y-81355366D01*
X149475000Y-81613752D01*
X149367877Y-81634537D01*
X149155073Y-81774327D01*
X149012623Y-81985360D01*
X148962560Y-82235000D01*
X148962560Y-84235000D01*
X149009537Y-84477123D01*
X149149327Y-84689927D01*
X149360360Y-84832377D01*
X149610000Y-84882440D01*
X151610000Y-84882440D01*
X151852123Y-84835463D01*
X152064927Y-84695673D01*
X152207377Y-84484640D01*
X152257440Y-84235000D01*
X152257440Y-82235000D01*
X152210463Y-81992877D01*
X152070673Y-81780073D01*
X151859640Y-81637623D01*
X151745000Y-81614633D01*
X151745000Y-81356247D01*
X151852123Y-81335463D01*
X152064927Y-81195673D01*
X152207377Y-80984640D01*
X152257440Y-80735000D01*
X152257440Y-78735000D01*
X152210463Y-78492877D01*
X152137697Y-78382104D01*
X152322401Y-78197401D01*
X152441871Y-78018600D01*
X154908900Y-78018600D01*
X155171038Y-77966457D01*
X155393268Y-77817968D01*
X155541757Y-77595738D01*
X155542310Y-77592956D01*
X155542857Y-77592138D01*
X155568616Y-77462636D01*
X155594991Y-77333425D01*
X155601189Y-76093693D01*
X155609673Y-76102192D01*
X155953201Y-76244838D01*
X156139998Y-76245000D01*
X156140000Y-76245001D01*
X156140001Y-76245000D01*
X156325167Y-76245162D01*
X156497809Y-76173827D01*
X156668943Y-76103117D01*
X156801145Y-75971145D01*
X156932192Y-75840327D01*
X157003827Y-75667809D01*
X157074838Y-75496799D01*
X157075000Y-75310001D01*
X157075001Y-75310000D01*
X157075000Y-75309998D01*
X157075162Y-75124833D01*
X156933117Y-74781057D01*
X156801145Y-74648855D01*
X156670327Y-74517808D01*
X156669935Y-74517645D01*
X154675000Y-72522710D01*
X154675000Y-69110000D01*
X154603827Y-68752191D01*
X154401145Y-68448855D01*
X151722607Y-65770317D01*
X151746762Y-65786457D01*
X152008900Y-65838600D01*
X153274894Y-65838600D01*
X153326043Y-66095738D01*
X153474532Y-66317968D01*
X153696762Y-66466457D01*
X153958900Y-66518600D01*
X154908900Y-66518600D01*
X155171038Y-66466457D01*
X155393268Y-66317968D01*
X155541757Y-66095738D01*
X155593900Y-65833600D01*
X155593900Y-63833600D01*
X155541757Y-63571462D01*
X155395411Y-63352440D01*
X155590000Y-63352440D01*
X155728737Y-63325522D01*
X155763690Y-63340000D01*
X155929250Y-63340000D01*
X156088000Y-63181250D01*
X156088000Y-63101862D01*
X156187377Y-62954640D01*
X156214629Y-62818746D01*
X156239537Y-62947123D01*
X156342000Y-63103103D01*
X156342000Y-63181250D01*
X156500750Y-63340000D01*
X156666310Y-63340000D01*
X156702734Y-63324912D01*
X156840000Y-63352440D01*
X157355375Y-63352440D01*
X157346560Y-63396400D01*
X157346560Y-65123600D01*
X157393537Y-65365723D01*
X157533327Y-65578527D01*
X157744360Y-65720977D01*
X157782962Y-65728718D01*
X157765585Y-65740330D01*
X157440729Y-66226511D01*
X157326655Y-66800000D01*
X157440729Y-67373489D01*
X157765585Y-67859670D01*
X158075069Y-68066460D01*
X157659268Y-68437964D01*
X157405291Y-68965209D01*
X157402642Y-68980974D01*
X157523783Y-69213000D01*
X158883000Y-69213000D01*
X158883000Y-69193000D01*
X159137000Y-69193000D01*
X159137000Y-69213000D01*
X159157000Y-69213000D01*
X159157000Y-69467000D01*
X159137000Y-69467000D01*
X159137000Y-69487000D01*
X158883000Y-69487000D01*
X158883000Y-69467000D01*
X157523783Y-69467000D01*
X157402642Y-69699026D01*
X157405291Y-69714791D01*
X157659268Y-70242036D01*
X158075069Y-70613539D01*
X157765585Y-70820330D01*
X157440729Y-71306511D01*
X157326655Y-71880000D01*
X157440729Y-72453489D01*
X157765585Y-72939670D01*
X158251766Y-73264526D01*
X158825255Y-73378600D01*
X159194745Y-73378600D01*
X159768234Y-73264526D01*
X160125000Y-73026142D01*
X160125000Y-78625000D01*
X157710000Y-78625000D01*
X157447862Y-78677143D01*
X157225632Y-78825632D01*
X157077143Y-79047862D01*
X157025000Y-79310000D01*
X157025000Y-83410000D01*
X157077143Y-83672138D01*
X157225632Y-83894368D01*
X157447862Y-84042857D01*
X157710000Y-84095000D01*
X157712620Y-84095000D01*
X157712620Y-84816238D01*
X157562571Y-84715979D01*
X156711100Y-84546611D01*
X155859629Y-84715979D01*
X155137787Y-85198298D01*
X154655468Y-85920140D01*
X154486100Y-86771611D01*
X154655468Y-87623082D01*
X155137787Y-88344924D01*
X155859629Y-88827243D01*
X156711100Y-88996611D01*
X157562571Y-88827243D01*
X158080188Y-88481382D01*
X158233751Y-88544990D01*
X159224930Y-88544990D01*
X159383680Y-88386240D01*
X159383680Y-87784895D01*
X159363680Y-87784895D01*
X159363680Y-87534705D01*
X159383680Y-87534705D01*
X159383680Y-86933360D01*
X159224930Y-86774610D01*
X158935503Y-86774610D01*
X158936100Y-86771611D01*
X158873490Y-86456850D01*
X160859420Y-86456850D01*
X161101543Y-86409873D01*
X161314347Y-86270083D01*
X161456797Y-86059050D01*
X161506860Y-85809410D01*
X161506860Y-84095000D01*
X162444714Y-84095000D01*
X162235254Y-85291919D01*
X162236631Y-85351525D01*
X162225000Y-85410000D01*
X162239689Y-85483848D01*
X162241429Y-85559122D01*
X162265511Y-85613663D01*
X162277143Y-85672138D01*
X162318972Y-85734740D01*
X162349387Y-85803622D01*
X162392509Y-85844796D01*
X162425632Y-85894368D01*
X162488237Y-85936199D01*
X162542694Y-85988196D01*
X162598289Y-86009733D01*
X162647862Y-86042857D01*
X162721707Y-86057545D01*
X162791919Y-86084746D01*
X162851525Y-86083368D01*
X162910000Y-86095000D01*
X165925000Y-86095000D01*
X165925000Y-92425000D01*
X165925000Y-92425000D01*
G37*
X165925000Y-92425000D02*
X162612878Y-92425000D01*
X162722663Y-92379638D01*
X163028026Y-92074807D01*
X163193491Y-91676323D01*
X163193868Y-91244850D01*
X163193868Y-86845570D01*
X163029098Y-86446797D01*
X162724267Y-86141434D01*
X162325783Y-85975969D01*
X161894310Y-85975592D01*
X161495537Y-86140362D01*
X161190174Y-86445193D01*
X161024709Y-86843677D01*
X161024681Y-86874966D01*
X161020998Y-86871283D01*
X160787609Y-86774610D01*
X159796430Y-86774610D01*
X159637680Y-86933360D01*
X159637680Y-87534705D01*
X159657680Y-87534705D01*
X159657680Y-87784895D01*
X159637680Y-87784895D01*
X159637680Y-88386240D01*
X159796430Y-88544990D01*
X160787609Y-88544990D01*
X161020998Y-88448317D01*
X161199627Y-88269689D01*
X161296300Y-88036300D01*
X161296300Y-87943645D01*
X161139457Y-87786802D01*
X161296300Y-87786802D01*
X161296300Y-87781308D01*
X161493933Y-87979286D01*
X161892417Y-88144751D01*
X162323890Y-88145128D01*
X162722663Y-87980358D01*
X163028026Y-87675527D01*
X163193491Y-87277043D01*
X163193868Y-86845570D01*
X163193868Y-91244850D01*
X163029098Y-90846077D01*
X162724267Y-90540714D01*
X162325783Y-90375249D01*
X161894310Y-90374872D01*
X161695832Y-90456881D01*
X161562566Y-90257434D01*
X161362766Y-90057634D01*
X161296300Y-90013222D01*
X160994546Y-89811597D01*
X160560200Y-89725200D01*
X159510680Y-89725200D01*
X159076334Y-89811597D01*
X158850387Y-89962570D01*
X158360060Y-89962570D01*
X158117937Y-90009547D01*
X157905133Y-90149337D01*
X157762683Y-90360370D01*
X157712620Y-90610010D01*
X157712620Y-91110390D01*
X157759597Y-91352513D01*
X157899387Y-91565317D01*
X158110420Y-91707767D01*
X158360060Y-91757830D01*
X158850387Y-91757830D01*
X159076334Y-91908803D01*
X159510680Y-91995200D01*
X159624881Y-91995200D01*
X159624821Y-92063150D01*
X158360060Y-92063150D01*
X158117937Y-92110127D01*
X157905133Y-92249917D01*
X157762683Y-92460950D01*
X157712620Y-92710590D01*
X157712620Y-94709570D01*
X157759597Y-94951693D01*
X157899387Y-95164497D01*
X158110420Y-95306947D01*
X158360060Y-95357010D01*
X160801758Y-95357010D01*
X160162030Y-99899079D01*
X156623440Y-103660756D01*
X156623440Y-102094000D01*
X156576463Y-101851877D01*
X156436673Y-101639073D01*
X156276956Y-101531262D01*
X156366385Y-101434818D01*
X156565975Y-100952944D01*
X156565975Y-100187056D01*
X156366385Y-99705182D01*
X155928379Y-99232812D01*
X155342946Y-98964017D01*
X155295000Y-98986237D01*
X155295000Y-98136310D01*
X155295000Y-98068750D01*
X155136250Y-97910000D01*
X154337000Y-97910000D01*
X154337000Y-98486250D01*
X154495750Y-98645000D01*
X154786309Y-98645000D01*
X155019698Y-98548327D01*
X155198327Y-98369699D01*
X155295000Y-98136310D01*
X155295000Y-98986237D01*
X155087000Y-99082633D01*
X155087000Y-100443000D01*
X156446836Y-100443000D01*
X156565975Y-100187056D01*
X156565975Y-100952944D01*
X156446836Y-100697000D01*
X155087000Y-100697000D01*
X155087000Y-100717000D01*
X154833000Y-100717000D01*
X154833000Y-100697000D01*
X154833000Y-100443000D01*
X154833000Y-99082633D01*
X154577054Y-98964017D01*
X153991621Y-99232812D01*
X153553615Y-99705182D01*
X153354025Y-100187056D01*
X153473164Y-100443000D01*
X154833000Y-100443000D01*
X154833000Y-100697000D01*
X153473164Y-100697000D01*
X153354025Y-100952944D01*
X153553615Y-101434818D01*
X153643574Y-101531835D01*
X153489073Y-101633327D01*
X153346623Y-101844360D01*
X153296560Y-102094000D01*
X153296560Y-104126000D01*
X153343537Y-104368123D01*
X153377537Y-104419882D01*
X152403939Y-104421561D01*
X152559778Y-104317433D01*
X152917670Y-103781810D01*
X153043345Y-103150000D01*
X152917670Y-102518190D01*
X152690830Y-102178701D01*
X152830927Y-102086673D01*
X152973377Y-101875640D01*
X153023440Y-101626000D01*
X153023440Y-99594000D01*
X152976463Y-99351877D01*
X152898032Y-99232480D01*
X152932372Y-99218292D01*
X153167466Y-98983607D01*
X153294855Y-98676821D01*
X153294966Y-98549474D01*
X153359232Y-98507258D01*
X153400302Y-98548327D01*
X153633691Y-98645000D01*
X153924250Y-98645000D01*
X154083000Y-98486250D01*
X154083000Y-97910000D01*
X154063000Y-97910000D01*
X154063000Y-97857440D01*
X154660000Y-97857440D01*
X154902123Y-97810463D01*
X155055059Y-97710000D01*
X155136250Y-97710000D01*
X155295000Y-97551250D01*
X155295000Y-97483690D01*
X155266400Y-97414644D01*
X155307440Y-97210000D01*
X155307440Y-96810000D01*
X155267994Y-96606695D01*
X155307440Y-96410000D01*
X155307440Y-96238375D01*
X155386393Y-96317466D01*
X155693179Y-96444855D01*
X156025363Y-96445145D01*
X156332372Y-96318292D01*
X156567466Y-96083607D01*
X156694855Y-95776821D01*
X156695145Y-95444637D01*
X156568292Y-95137628D01*
X156333607Y-94902534D01*
X156092147Y-94802270D01*
X155995000Y-94737359D01*
X155995000Y-93386310D01*
X155995000Y-93133691D01*
X155995000Y-92895750D01*
X155995000Y-92324250D01*
X155995000Y-92086309D01*
X155995000Y-91833690D01*
X155898327Y-91600301D01*
X155719698Y-91421673D01*
X155486309Y-91325000D01*
X154895750Y-91325000D01*
X154737000Y-91483750D01*
X154737000Y-92483000D01*
X155836250Y-92483000D01*
X155995000Y-92324250D01*
X155995000Y-92895750D01*
X155836250Y-92737000D01*
X154737000Y-92737000D01*
X154737000Y-93736250D01*
X154895750Y-93895000D01*
X155486309Y-93895000D01*
X155719698Y-93798327D01*
X155898327Y-93619699D01*
X155995000Y-93386310D01*
X155995000Y-94737359D01*
X155950839Y-94707852D01*
X155660000Y-94650000D01*
X154965012Y-94650000D01*
X154909640Y-94612623D01*
X154660000Y-94562560D01*
X154020000Y-94562560D01*
X154020000Y-93895000D01*
X154324250Y-93895000D01*
X154483000Y-93736250D01*
X154483000Y-92737000D01*
X154463000Y-92737000D01*
X154463000Y-92483000D01*
X154483000Y-92483000D01*
X154483000Y-91483750D01*
X154324250Y-91325000D01*
X154020000Y-91325000D01*
X154020000Y-91010000D01*
X154020000Y-90757091D01*
X154094855Y-90576821D01*
X154095145Y-90244637D01*
X153968292Y-89937628D01*
X153733607Y-89702534D01*
X153426821Y-89575145D01*
X153094637Y-89574855D01*
X152787628Y-89701708D01*
X152552534Y-89936393D01*
X152425145Y-90243179D01*
X152424855Y-90575363D01*
X152500000Y-90757228D01*
X152500000Y-91010000D01*
X152500000Y-91312560D01*
X151160000Y-91312560D01*
X150917877Y-91359537D01*
X150705073Y-91499327D01*
X150562623Y-91710360D01*
X150512560Y-91960000D01*
X150512560Y-93260000D01*
X150559537Y-93502123D01*
X150699327Y-93714927D01*
X150800000Y-93782882D01*
X150800000Y-94095198D01*
X149870000Y-95025198D01*
X149870000Y-93957091D01*
X149944855Y-93776821D01*
X149945145Y-93444637D01*
X149818292Y-93137628D01*
X149583607Y-92902534D01*
X149276821Y-92775145D01*
X148944637Y-92774855D01*
X148637628Y-92901708D01*
X148402534Y-93136393D01*
X148275145Y-93443179D01*
X148274855Y-93775363D01*
X148350000Y-93957228D01*
X148350000Y-95262908D01*
X148275145Y-95443179D01*
X148274855Y-95775363D01*
X148401708Y-96082372D01*
X148454087Y-96134842D01*
X148452534Y-96136393D01*
X148424997Y-96202707D01*
X147195000Y-94972710D01*
X147195000Y-94010000D01*
X147123827Y-93652191D01*
X146985372Y-93444979D01*
X147175363Y-93445145D01*
X147482372Y-93318292D01*
X147717466Y-93083607D01*
X147844855Y-92776821D01*
X147845145Y-92444637D01*
X147718292Y-92137628D01*
X147594866Y-92013987D01*
X147595145Y-91694637D01*
X147468292Y-91387628D01*
X147448787Y-91368089D01*
X147652447Y-91408600D01*
X148849637Y-91170464D01*
X149864566Y-90492310D01*
X150542720Y-89477381D01*
X150780856Y-88280191D01*
X150542720Y-87083001D01*
X149864566Y-86068072D01*
X148849637Y-85389918D01*
X147745000Y-85170191D01*
X147745000Y-84361310D01*
X147745000Y-84108691D01*
X147745000Y-83520750D01*
X147745000Y-82949250D01*
X147745000Y-82361309D01*
X147745000Y-82108690D01*
X147745000Y-80861310D01*
X147745000Y-80608691D01*
X147745000Y-80020750D01*
X147745000Y-79449250D01*
X147745000Y-78861309D01*
X147745000Y-78608690D01*
X147648327Y-78375301D01*
X147469698Y-78196673D01*
X147236309Y-78100000D01*
X146395750Y-78100000D01*
X146237000Y-78258750D01*
X146237000Y-79608000D01*
X147586250Y-79608000D01*
X147745000Y-79449250D01*
X147745000Y-80020750D01*
X147586250Y-79862000D01*
X146237000Y-79862000D01*
X146237000Y-81211250D01*
X146395750Y-81370000D01*
X147236309Y-81370000D01*
X147469698Y-81273327D01*
X147648327Y-81094699D01*
X147745000Y-80861310D01*
X147745000Y-82108690D01*
X147648327Y-81875301D01*
X147469698Y-81696673D01*
X147236309Y-81600000D01*
X146395750Y-81600000D01*
X146237000Y-81758750D01*
X146237000Y-83108000D01*
X147586250Y-83108000D01*
X147745000Y-82949250D01*
X147745000Y-83520750D01*
X147586250Y-83362000D01*
X146237000Y-83362000D01*
X146237000Y-84711250D01*
X146395750Y-84870000D01*
X147236309Y-84870000D01*
X147469698Y-84773327D01*
X147648327Y-84594699D01*
X147745000Y-84361310D01*
X147745000Y-85170191D01*
X147652447Y-85151782D01*
X146455257Y-85389918D01*
X145983000Y-85705470D01*
X145983000Y-84711250D01*
X145983000Y-83362000D01*
X145983000Y-83108000D01*
X145983000Y-81758750D01*
X145983000Y-81211250D01*
X145983000Y-79862000D01*
X145983000Y-79608000D01*
X145983000Y-78258750D01*
X145824250Y-78100000D01*
X144983691Y-78100000D01*
X144750302Y-78196673D01*
X144571673Y-78375301D01*
X144475000Y-78608690D01*
X144475000Y-78860405D01*
X144398327Y-78675301D01*
X144219698Y-78496673D01*
X143986309Y-78400000D01*
X143395750Y-78400000D01*
X143237000Y-78558750D01*
X143237000Y-79533000D01*
X144336250Y-79533000D01*
X144475000Y-79394250D01*
X144475000Y-79449250D01*
X144633750Y-79608000D01*
X145983000Y-79608000D01*
X145983000Y-79862000D01*
X144633750Y-79862000D01*
X144495000Y-80000750D01*
X144495000Y-79945750D01*
X144336250Y-79787000D01*
X143237000Y-79787000D01*
X143237000Y-80761250D01*
X143395750Y-80920000D01*
X143986309Y-80920000D01*
X144219698Y-80823327D01*
X144398327Y-80644699D01*
X144475000Y-80459594D01*
X144475000Y-80608691D01*
X144475000Y-80861310D01*
X144571673Y-81094699D01*
X144750302Y-81273327D01*
X144983691Y-81370000D01*
X145824250Y-81370000D01*
X145983000Y-81211250D01*
X145983000Y-81758750D01*
X145824250Y-81600000D01*
X144983691Y-81600000D01*
X144750302Y-81696673D01*
X144571673Y-81875301D01*
X144475000Y-82108690D01*
X144475000Y-82361309D01*
X144475000Y-82949250D01*
X144633750Y-83108000D01*
X145983000Y-83108000D01*
X145983000Y-83362000D01*
X144633750Y-83362000D01*
X144475000Y-83520750D01*
X144475000Y-84108691D01*
X144475000Y-84361310D01*
X144571673Y-84594699D01*
X144750302Y-84773327D01*
X144983691Y-84870000D01*
X145824250Y-84870000D01*
X145983000Y-84711250D01*
X145983000Y-85705470D01*
X145440328Y-86068072D01*
X144762174Y-87083001D01*
X144524038Y-88280191D01*
X144762174Y-89477381D01*
X145440328Y-90492310D01*
X145826092Y-90750069D01*
X145793258Y-90829143D01*
X144999807Y-91622595D01*
X144726569Y-91895832D01*
X144533607Y-91702534D01*
X144226821Y-91575145D01*
X143894637Y-91574855D01*
X143587628Y-91701708D01*
X143352534Y-91936393D01*
X143277071Y-92118125D01*
X143138044Y-92257153D01*
X143033607Y-92152534D01*
X142726821Y-92025145D01*
X142394637Y-92024855D01*
X142087628Y-92151708D01*
X141852534Y-92386393D01*
X141777071Y-92568126D01*
X141745198Y-92600000D01*
X141460020Y-92600000D01*
X141460000Y-92599996D01*
X141169161Y-92657848D01*
X140922599Y-92822595D01*
X140922590Y-92822607D01*
X140795000Y-92950198D01*
X140795000Y-90610000D01*
X140708603Y-90175655D01*
X140708603Y-90175654D01*
X140462566Y-89807434D01*
X140012566Y-89357434D01*
X139644345Y-89111397D01*
X139210000Y-89025000D01*
X138890986Y-89088456D01*
X138858603Y-88925655D01*
X138845606Y-88906204D01*
X139242571Y-88827243D01*
X139964413Y-88344924D01*
X140446732Y-87623082D01*
X140616100Y-86771611D01*
X140446732Y-85920140D01*
X139964413Y-85198298D01*
X139242571Y-84715979D01*
X138993402Y-84666416D01*
X139208603Y-84344346D01*
X139294999Y-83910000D01*
X139295000Y-83910000D01*
X139295000Y-80795000D01*
X139480915Y-80795000D01*
X139610360Y-80882377D01*
X139860000Y-80932440D01*
X141360000Y-80932440D01*
X141602123Y-80885463D01*
X141814927Y-80745673D01*
X141858337Y-80681362D01*
X142000302Y-80823327D01*
X142233691Y-80920000D01*
X142824250Y-80920000D01*
X142983000Y-80761250D01*
X142983000Y-79787000D01*
X142963000Y-79787000D01*
X142963000Y-79533000D01*
X142983000Y-79533000D01*
X142983000Y-78558750D01*
X142824250Y-78400000D01*
X142233691Y-78400000D01*
X142000302Y-78496673D01*
X141858823Y-78638150D01*
X141820673Y-78580073D01*
X141609640Y-78437623D01*
X141360000Y-78387560D01*
X139860000Y-78387560D01*
X139617877Y-78434537D01*
X139480164Y-78525000D01*
X139345000Y-78525000D01*
X139345000Y-75670000D01*
X139423900Y-75670000D01*
X139423900Y-77333600D01*
X139476043Y-77595738D01*
X139624532Y-77817968D01*
X139846762Y-77966457D01*
X140108900Y-78018600D01*
X143008900Y-78018600D01*
X143271038Y-77966457D01*
X143493268Y-77817968D01*
X143641757Y-77595738D01*
X143693900Y-77333600D01*
X143693900Y-76013600D01*
X143641757Y-75751462D01*
X143493268Y-75529232D01*
X143271038Y-75380743D01*
X143008900Y-75328600D01*
X142538204Y-75328600D01*
X142644838Y-75071799D01*
X142645162Y-74699833D01*
X142503117Y-74356057D01*
X142240327Y-74092808D01*
X141896799Y-73950162D01*
X141524833Y-73949838D01*
X141181057Y-74091883D01*
X141122838Y-74150000D01*
X139345000Y-74150000D01*
X139345000Y-74138038D01*
X139744345Y-74058603D01*
X139744346Y-74058603D01*
X140112566Y-73812566D01*
X140730132Y-73195000D01*
X144535000Y-73195000D01*
X144969346Y-73108603D01*
X145337566Y-72862566D01*
X145538933Y-72561198D01*
X147187566Y-70912566D01*
X147433603Y-70544345D01*
X147520000Y-70110000D01*
X147433603Y-69675655D01*
X147187566Y-69307434D01*
X146819345Y-69061397D01*
X146385000Y-68975000D01*
X145950655Y-69061397D01*
X145582434Y-69307434D01*
X143964868Y-70925000D01*
X141395000Y-70925000D01*
X141395000Y-69135000D01*
X141395000Y-68905132D01*
X143055132Y-67245000D01*
X144110000Y-67245000D01*
X144544345Y-67158603D01*
X144544346Y-67158603D01*
X144912566Y-66912566D01*
X145912566Y-65912566D01*
X145912567Y-65912566D01*
X146063903Y-65686075D01*
X146090745Y-65821019D01*
X146423491Y-66319009D01*
X146921481Y-66651755D01*
X147508900Y-66768600D01*
X148096319Y-66651755D01*
X148484910Y-66392106D01*
X148484838Y-66475167D01*
X148626883Y-66818943D01*
X148758855Y-66951145D01*
X148889673Y-67082192D01*
X149233201Y-67224838D01*
X149420000Y-67225000D01*
X149605167Y-67225162D01*
X149605559Y-67225000D01*
X150532710Y-67225000D01*
X152805000Y-69497290D01*
X152805000Y-72910000D01*
X152876173Y-73267809D01*
X153078855Y-73571145D01*
X154152710Y-74645000D01*
X153960000Y-74645000D01*
X153697862Y-74697143D01*
X153475632Y-74845632D01*
X153327143Y-75067862D01*
X153326589Y-75070643D01*
X153326043Y-75071462D01*
X153275610Y-75325000D01*
X152033733Y-75325000D01*
X152018292Y-75287628D01*
X151783607Y-75052534D01*
X151476821Y-74925145D01*
X151144637Y-74924855D01*
X150971284Y-74996482D01*
X150892832Y-74918030D01*
X150818292Y-74737628D01*
X150583607Y-74502534D01*
X150320000Y-74393074D01*
X150320000Y-74064722D01*
X150432372Y-74018292D01*
X150667466Y-73783607D01*
X150794855Y-73476821D01*
X150795145Y-73144637D01*
X150668292Y-72837628D01*
X150433607Y-72602534D01*
X150126821Y-72475145D01*
X149794637Y-72474855D01*
X149487628Y-72601708D01*
X149252534Y-72836393D01*
X149177071Y-73018126D01*
X149022599Y-73172599D01*
X148857852Y-73419161D01*
X148806988Y-73674865D01*
X148794637Y-73674855D01*
X148534739Y-73782242D01*
X148276821Y-73675145D01*
X147944637Y-73674855D01*
X147637628Y-73801708D01*
X147402534Y-74036393D01*
X147275145Y-74343179D01*
X147274855Y-74675363D01*
X147401708Y-74982372D01*
X147636393Y-75217466D01*
X147749998Y-75264639D01*
X147749998Y-75996396D01*
X147807850Y-76287235D01*
X147972597Y-76533797D01*
X149313825Y-77875025D01*
X149275145Y-77968179D01*
X149274946Y-78195582D01*
X149155073Y-78274327D01*
X149012623Y-78485360D01*
X148962560Y-78735000D01*
X148962560Y-80735000D01*
X149009537Y-80977123D01*
X149149327Y-81189927D01*
X149360360Y-81332377D01*
X149475000Y-81355366D01*
X149475000Y-81613752D01*
X149367877Y-81634537D01*
X149155073Y-81774327D01*
X149012623Y-81985360D01*
X148962560Y-82235000D01*
X148962560Y-84235000D01*
X149009537Y-84477123D01*
X149149327Y-84689927D01*
X149360360Y-84832377D01*
X149610000Y-84882440D01*
X151610000Y-84882440D01*
X151852123Y-84835463D01*
X152064927Y-84695673D01*
X152207377Y-84484640D01*
X152257440Y-84235000D01*
X152257440Y-82235000D01*
X152210463Y-81992877D01*
X152070673Y-81780073D01*
X151859640Y-81637623D01*
X151745000Y-81614633D01*
X151745000Y-81356247D01*
X151852123Y-81335463D01*
X152064927Y-81195673D01*
X152207377Y-80984640D01*
X152257440Y-80735000D01*
X152257440Y-78735000D01*
X152210463Y-78492877D01*
X152137697Y-78382104D01*
X152322401Y-78197401D01*
X152441871Y-78018600D01*
X154908900Y-78018600D01*
X155171038Y-77966457D01*
X155393268Y-77817968D01*
X155541757Y-77595738D01*
X155542310Y-77592956D01*
X155542857Y-77592138D01*
X155568616Y-77462636D01*
X155594991Y-77333425D01*
X155601189Y-76093693D01*
X155609673Y-76102192D01*
X155953201Y-76244838D01*
X156139998Y-76245000D01*
X156140000Y-76245001D01*
X156140001Y-76245000D01*
X156325167Y-76245162D01*
X156497809Y-76173827D01*
X156668943Y-76103117D01*
X156801145Y-75971145D01*
X156932192Y-75840327D01*
X157003827Y-75667809D01*
X157074838Y-75496799D01*
X157075000Y-75310001D01*
X157075001Y-75310000D01*
X157075000Y-75309998D01*
X157075162Y-75124833D01*
X156933117Y-74781057D01*
X156801145Y-74648855D01*
X156670327Y-74517808D01*
X156669935Y-74517645D01*
X154675000Y-72522710D01*
X154675000Y-69110000D01*
X154603827Y-68752191D01*
X154401145Y-68448855D01*
X151722607Y-65770317D01*
X151746762Y-65786457D01*
X152008900Y-65838600D01*
X153274894Y-65838600D01*
X153326043Y-66095738D01*
X153474532Y-66317968D01*
X153696762Y-66466457D01*
X153958900Y-66518600D01*
X154908900Y-66518600D01*
X155171038Y-66466457D01*
X155393268Y-66317968D01*
X155541757Y-66095738D01*
X155593900Y-65833600D01*
X155593900Y-63833600D01*
X155541757Y-63571462D01*
X155395411Y-63352440D01*
X155590000Y-63352440D01*
X155728737Y-63325522D01*
X155763690Y-63340000D01*
X155929250Y-63340000D01*
X156088000Y-63181250D01*
X156088000Y-63101862D01*
X156187377Y-62954640D01*
X156214629Y-62818746D01*
X156239537Y-62947123D01*
X156342000Y-63103103D01*
X156342000Y-63181250D01*
X156500750Y-63340000D01*
X156666310Y-63340000D01*
X156702734Y-63324912D01*
X156840000Y-63352440D01*
X157355375Y-63352440D01*
X157346560Y-63396400D01*
X157346560Y-65123600D01*
X157393537Y-65365723D01*
X157533327Y-65578527D01*
X157744360Y-65720977D01*
X157782962Y-65728718D01*
X157765585Y-65740330D01*
X157440729Y-66226511D01*
X157326655Y-66800000D01*
X157440729Y-67373489D01*
X157765585Y-67859670D01*
X158075069Y-68066460D01*
X157659268Y-68437964D01*
X157405291Y-68965209D01*
X157402642Y-68980974D01*
X157523783Y-69213000D01*
X158883000Y-69213000D01*
X158883000Y-69193000D01*
X159137000Y-69193000D01*
X159137000Y-69213000D01*
X159157000Y-69213000D01*
X159157000Y-69467000D01*
X159137000Y-69467000D01*
X159137000Y-69487000D01*
X158883000Y-69487000D01*
X158883000Y-69467000D01*
X157523783Y-69467000D01*
X157402642Y-69699026D01*
X157405291Y-69714791D01*
X157659268Y-70242036D01*
X158075069Y-70613539D01*
X157765585Y-70820330D01*
X157440729Y-71306511D01*
X157326655Y-71880000D01*
X157440729Y-72453489D01*
X157765585Y-72939670D01*
X158251766Y-73264526D01*
X158825255Y-73378600D01*
X159194745Y-73378600D01*
X159768234Y-73264526D01*
X160125000Y-73026142D01*
X160125000Y-78625000D01*
X157710000Y-78625000D01*
X157447862Y-78677143D01*
X157225632Y-78825632D01*
X157077143Y-79047862D01*
X157025000Y-79310000D01*
X157025000Y-83410000D01*
X157077143Y-83672138D01*
X157225632Y-83894368D01*
X157447862Y-84042857D01*
X157710000Y-84095000D01*
X157712620Y-84095000D01*
X157712620Y-84816238D01*
X157562571Y-84715979D01*
X156711100Y-84546611D01*
X155859629Y-84715979D01*
X155137787Y-85198298D01*
X154655468Y-85920140D01*
X154486100Y-86771611D01*
X154655468Y-87623082D01*
X155137787Y-88344924D01*
X155859629Y-88827243D01*
X156711100Y-88996611D01*
X157562571Y-88827243D01*
X158080188Y-88481382D01*
X158233751Y-88544990D01*
X159224930Y-88544990D01*
X159383680Y-88386240D01*
X159383680Y-87784895D01*
X159363680Y-87784895D01*
X159363680Y-87534705D01*
X159383680Y-87534705D01*
X159383680Y-86933360D01*
X159224930Y-86774610D01*
X158935503Y-86774610D01*
X158936100Y-86771611D01*
X158873490Y-86456850D01*
X160859420Y-86456850D01*
X161101543Y-86409873D01*
X161314347Y-86270083D01*
X161456797Y-86059050D01*
X161506860Y-85809410D01*
X161506860Y-84095000D01*
X162444714Y-84095000D01*
X162235254Y-85291919D01*
X162236631Y-85351525D01*
X162225000Y-85410000D01*
X162239689Y-85483848D01*
X162241429Y-85559122D01*
X162265511Y-85613663D01*
X162277143Y-85672138D01*
X162318972Y-85734740D01*
X162349387Y-85803622D01*
X162392509Y-85844796D01*
X162425632Y-85894368D01*
X162488237Y-85936199D01*
X162542694Y-85988196D01*
X162598289Y-86009733D01*
X162647862Y-86042857D01*
X162721707Y-86057545D01*
X162791919Y-86084746D01*
X162851525Y-86083368D01*
X162910000Y-86095000D01*
X165925000Y-86095000D01*
X165925000Y-92425000D01*
M02*
